G04 #@! TF.GenerationSoftware,KiCad,Pcbnew,(5.1.5)-3*
G04 #@! TF.CreationDate,2020-05-28T08:00:16-06:00*
G04 #@! TF.ProjectId,FeatherProtoShield,46656174-6865-4725-9072-6f746f536869,rev?*
G04 #@! TF.SameCoordinates,Original*
G04 #@! TF.FileFunction,Legend,Top*
G04 #@! TF.FilePolarity,Positive*
%FSLAX46Y46*%
G04 Gerber Fmt 4.6, Leading zero omitted, Abs format (unit mm)*
G04 Created by KiCad (PCBNEW (5.1.5)-3) date 2020-05-28 08:00:16*
%MOMM*%
%LPD*%
G04 APERTURE LIST*
%ADD10C,0.120000*%
G04 APERTURE END LIST*
D10*
X163830000Y-77470000D02*
X166370000Y-77470000D01*
X166370000Y-77470000D02*
X167640000Y-77470000D01*
X168148000Y-77470000D02*
X168910000Y-76708000D01*
X168910000Y-76708000D02*
X168910000Y-76200000D01*
X167640000Y-77470000D02*
X168148000Y-77470000D01*
X168656000Y-77724000D02*
X169164000Y-77216000D01*
X169672000Y-77470000D02*
X170180000Y-77470000D01*
X168910000Y-78232000D02*
X169672000Y-77470000D01*
X168910000Y-78740000D02*
X168910000Y-78232000D01*
X168910000Y-59690000D02*
X168910000Y-76200000D01*
X171450000Y-59690000D02*
X168910000Y-59690000D01*
X171450000Y-59690000D02*
X171450000Y-77470000D01*
X173990000Y-59690000D02*
X171450000Y-59690000D01*
X173990000Y-77470000D02*
X173990000Y-64770000D01*
X204470000Y-82550000D02*
X201930000Y-82550000D01*
X204470000Y-77470000D02*
X204470000Y-82550000D01*
X201930000Y-77470000D02*
X204470000Y-77470000D01*
X201930000Y-82550000D02*
X199390000Y-82550000D01*
X201930000Y-77470000D02*
X201930000Y-82550000D01*
X199390000Y-77470000D02*
X201930000Y-77470000D01*
X199390000Y-82550000D02*
X196850000Y-82550000D01*
X199390000Y-77470000D02*
X199390000Y-82550000D01*
X196850000Y-77470000D02*
X199390000Y-77470000D01*
X196850000Y-82550000D02*
X194310000Y-82550000D01*
X196850000Y-77470000D02*
X196850000Y-82550000D01*
X194310000Y-77470000D02*
X196850000Y-77470000D01*
X194310000Y-82550000D02*
X191770000Y-82550000D01*
X194310000Y-77470000D02*
X194310000Y-82550000D01*
X191770000Y-77470000D02*
X194310000Y-77470000D01*
X191770000Y-82550000D02*
X189230000Y-82550000D01*
X191770000Y-77470000D02*
X191770000Y-82550000D01*
X189230000Y-77470000D02*
X191770000Y-77470000D01*
X189230000Y-82550000D02*
X186690000Y-82550000D01*
X189230000Y-77470000D02*
X189230000Y-82550000D01*
X186690000Y-77470000D02*
X189230000Y-77470000D01*
X186690000Y-82550000D02*
X184150000Y-82550000D01*
X186690000Y-77470000D02*
X186690000Y-82550000D01*
X184150000Y-77470000D02*
X186690000Y-77470000D01*
X184150000Y-82550000D02*
X181610000Y-82550000D01*
X184150000Y-77470000D02*
X184150000Y-82550000D01*
X181610000Y-77470000D02*
X184150000Y-77470000D01*
X181610000Y-82550000D02*
X179070000Y-82550000D01*
X181610000Y-77470000D02*
X181610000Y-82550000D01*
X179070000Y-77470000D02*
X181610000Y-77470000D01*
X179070000Y-82550000D02*
X176530000Y-82550000D01*
X179070000Y-77470000D02*
X179070000Y-82550000D01*
X176530000Y-77470000D02*
X179070000Y-77470000D01*
X176530000Y-82550000D02*
X173990000Y-82550000D01*
X176530000Y-77470000D02*
X176530000Y-82550000D01*
X173990000Y-77470000D02*
X176530000Y-77470000D01*
X173990000Y-82550000D02*
X171450000Y-82550000D01*
X173990000Y-77470000D02*
X173990000Y-82550000D01*
X171450000Y-82550000D02*
X168910000Y-82550000D01*
X171450000Y-77470000D02*
X171450000Y-82550000D01*
X170180000Y-77470000D02*
X171450000Y-77470000D01*
X168910000Y-82550000D02*
X166370000Y-82550000D01*
X168910000Y-78740000D02*
X168910000Y-82550000D01*
X166370000Y-82550000D02*
X163830000Y-82550000D01*
X166370000Y-77470000D02*
X166370000Y-82550000D01*
X163830000Y-82550000D02*
X163830000Y-77470000D01*
X204470000Y-59690000D02*
X201930000Y-59690000D01*
X204470000Y-64770000D02*
X204470000Y-59690000D01*
X201930000Y-64770000D02*
X204470000Y-64770000D01*
X201930000Y-59690000D02*
X199390000Y-59690000D01*
X201930000Y-64770000D02*
X201930000Y-59690000D01*
X199390000Y-64770000D02*
X201930000Y-64770000D01*
X199390000Y-59690000D02*
X196850000Y-59690000D01*
X199390000Y-64770000D02*
X199390000Y-59690000D01*
X196850000Y-64770000D02*
X199390000Y-64770000D01*
X196850000Y-59690000D02*
X194310000Y-59690000D01*
X196850000Y-64770000D02*
X196850000Y-59690000D01*
X194310000Y-64770000D02*
X196850000Y-64770000D01*
X194310000Y-59690000D02*
X191770000Y-59690000D01*
X194310000Y-64770000D02*
X194310000Y-59690000D01*
X191770000Y-64770000D02*
X194310000Y-64770000D01*
X191770000Y-59690000D02*
X189230000Y-59690000D01*
X191770000Y-64770000D02*
X191770000Y-59690000D01*
X189230000Y-64770000D02*
X191770000Y-64770000D01*
X189230000Y-59690000D02*
X186690000Y-59690000D01*
X189230000Y-64770000D02*
X189230000Y-59690000D01*
X186690000Y-64770000D02*
X189230000Y-64770000D01*
X186690000Y-59690000D02*
X184150000Y-59690000D01*
X186690000Y-64770000D02*
X186690000Y-59690000D01*
X184150000Y-64770000D02*
X186690000Y-64770000D01*
X184150000Y-59690000D02*
X181610000Y-59690000D01*
X184150000Y-64770000D02*
X184150000Y-59690000D01*
X181610000Y-64770000D02*
X184150000Y-64770000D01*
X181610000Y-59690000D02*
X179070000Y-59690000D01*
X181610000Y-64770000D02*
X181610000Y-59690000D01*
X179070000Y-64770000D02*
X181610000Y-64770000D01*
X179070000Y-59690000D02*
X176530000Y-59690000D01*
X179070000Y-64770000D02*
X179070000Y-59690000D01*
X176530000Y-64770000D02*
X179070000Y-64770000D01*
X176530000Y-59690000D02*
X173990000Y-59690000D01*
X176530000Y-64770000D02*
X176530000Y-59690000D01*
X173990000Y-64770000D02*
X176530000Y-64770000D01*
X173990000Y-59690000D02*
X173990000Y-64770000D01*
M02*
