G04 #@! TF.GenerationSoftware,KiCad,Pcbnew,(5.1.5)-3*
G04 #@! TF.CreationDate,2020-05-28T08:00:16-06:00*
G04 #@! TF.ProjectId,FeatherProtoShield,46656174-6865-4725-9072-6f746f536869,rev?*
G04 #@! TF.SameCoordinates,Original*
G04 #@! TF.FileFunction,Soldermask,Bot*
G04 #@! TF.FilePolarity,Negative*
%FSLAX46Y46*%
G04 Gerber Fmt 4.6, Leading zero omitted, Abs format (unit mm)*
G04 Created by KiCad (PCBNEW (5.1.5)-3) date 2020-05-28 08:00:16*
%MOMM*%
%LPD*%
G04 APERTURE LIST*
%ADD10C,0.100000*%
G04 APERTURE END LIST*
D10*
G36*
X165213512Y-80383927D02*
G01*
X165362812Y-80413624D01*
X165526784Y-80481544D01*
X165674354Y-80580147D01*
X165799853Y-80705646D01*
X165898456Y-80853216D01*
X165966376Y-81017188D01*
X166001000Y-81191259D01*
X166001000Y-81368741D01*
X165966376Y-81542812D01*
X165898456Y-81706784D01*
X165799853Y-81854354D01*
X165674354Y-81979853D01*
X165526784Y-82078456D01*
X165362812Y-82146376D01*
X165213512Y-82176073D01*
X165188742Y-82181000D01*
X165011258Y-82181000D01*
X164986488Y-82176073D01*
X164837188Y-82146376D01*
X164673216Y-82078456D01*
X164525646Y-81979853D01*
X164400147Y-81854354D01*
X164301544Y-81706784D01*
X164233624Y-81542812D01*
X164199000Y-81368741D01*
X164199000Y-81191259D01*
X164233624Y-81017188D01*
X164301544Y-80853216D01*
X164400147Y-80705646D01*
X164525646Y-80580147D01*
X164673216Y-80481544D01*
X164837188Y-80413624D01*
X164986488Y-80383927D01*
X165011258Y-80379000D01*
X165188742Y-80379000D01*
X165213512Y-80383927D01*
G37*
G36*
X188073512Y-80383927D02*
G01*
X188222812Y-80413624D01*
X188386784Y-80481544D01*
X188534354Y-80580147D01*
X188659853Y-80705646D01*
X188758456Y-80853216D01*
X188826376Y-81017188D01*
X188861000Y-81191259D01*
X188861000Y-81368741D01*
X188826376Y-81542812D01*
X188758456Y-81706784D01*
X188659853Y-81854354D01*
X188534354Y-81979853D01*
X188386784Y-82078456D01*
X188222812Y-82146376D01*
X188073512Y-82176073D01*
X188048742Y-82181000D01*
X187871258Y-82181000D01*
X187846488Y-82176073D01*
X187697188Y-82146376D01*
X187533216Y-82078456D01*
X187385646Y-81979853D01*
X187260147Y-81854354D01*
X187161544Y-81706784D01*
X187093624Y-81542812D01*
X187059000Y-81368741D01*
X187059000Y-81191259D01*
X187093624Y-81017188D01*
X187161544Y-80853216D01*
X187260147Y-80705646D01*
X187385646Y-80580147D01*
X187533216Y-80481544D01*
X187697188Y-80413624D01*
X187846488Y-80383927D01*
X187871258Y-80379000D01*
X188048742Y-80379000D01*
X188073512Y-80383927D01*
G37*
G36*
X203313512Y-80383927D02*
G01*
X203462812Y-80413624D01*
X203626784Y-80481544D01*
X203774354Y-80580147D01*
X203899853Y-80705646D01*
X203998456Y-80853216D01*
X204066376Y-81017188D01*
X204101000Y-81191259D01*
X204101000Y-81368741D01*
X204066376Y-81542812D01*
X203998456Y-81706784D01*
X203899853Y-81854354D01*
X203774354Y-81979853D01*
X203626784Y-82078456D01*
X203462812Y-82146376D01*
X203313512Y-82176073D01*
X203288742Y-82181000D01*
X203111258Y-82181000D01*
X203086488Y-82176073D01*
X202937188Y-82146376D01*
X202773216Y-82078456D01*
X202625646Y-81979853D01*
X202500147Y-81854354D01*
X202401544Y-81706784D01*
X202333624Y-81542812D01*
X202299000Y-81368741D01*
X202299000Y-81191259D01*
X202333624Y-81017188D01*
X202401544Y-80853216D01*
X202500147Y-80705646D01*
X202625646Y-80580147D01*
X202773216Y-80481544D01*
X202937188Y-80413624D01*
X203086488Y-80383927D01*
X203111258Y-80379000D01*
X203288742Y-80379000D01*
X203313512Y-80383927D01*
G37*
G36*
X200773512Y-80383927D02*
G01*
X200922812Y-80413624D01*
X201086784Y-80481544D01*
X201234354Y-80580147D01*
X201359853Y-80705646D01*
X201458456Y-80853216D01*
X201526376Y-81017188D01*
X201561000Y-81191259D01*
X201561000Y-81368741D01*
X201526376Y-81542812D01*
X201458456Y-81706784D01*
X201359853Y-81854354D01*
X201234354Y-81979853D01*
X201086784Y-82078456D01*
X200922812Y-82146376D01*
X200773512Y-82176073D01*
X200748742Y-82181000D01*
X200571258Y-82181000D01*
X200546488Y-82176073D01*
X200397188Y-82146376D01*
X200233216Y-82078456D01*
X200085646Y-81979853D01*
X199960147Y-81854354D01*
X199861544Y-81706784D01*
X199793624Y-81542812D01*
X199759000Y-81368741D01*
X199759000Y-81191259D01*
X199793624Y-81017188D01*
X199861544Y-80853216D01*
X199960147Y-80705646D01*
X200085646Y-80580147D01*
X200233216Y-80481544D01*
X200397188Y-80413624D01*
X200546488Y-80383927D01*
X200571258Y-80379000D01*
X200748742Y-80379000D01*
X200773512Y-80383927D01*
G37*
G36*
X198233512Y-80383927D02*
G01*
X198382812Y-80413624D01*
X198546784Y-80481544D01*
X198694354Y-80580147D01*
X198819853Y-80705646D01*
X198918456Y-80853216D01*
X198986376Y-81017188D01*
X199021000Y-81191259D01*
X199021000Y-81368741D01*
X198986376Y-81542812D01*
X198918456Y-81706784D01*
X198819853Y-81854354D01*
X198694354Y-81979853D01*
X198546784Y-82078456D01*
X198382812Y-82146376D01*
X198233512Y-82176073D01*
X198208742Y-82181000D01*
X198031258Y-82181000D01*
X198006488Y-82176073D01*
X197857188Y-82146376D01*
X197693216Y-82078456D01*
X197545646Y-81979853D01*
X197420147Y-81854354D01*
X197321544Y-81706784D01*
X197253624Y-81542812D01*
X197219000Y-81368741D01*
X197219000Y-81191259D01*
X197253624Y-81017188D01*
X197321544Y-80853216D01*
X197420147Y-80705646D01*
X197545646Y-80580147D01*
X197693216Y-80481544D01*
X197857188Y-80413624D01*
X198006488Y-80383927D01*
X198031258Y-80379000D01*
X198208742Y-80379000D01*
X198233512Y-80383927D01*
G37*
G36*
X195693512Y-80383927D02*
G01*
X195842812Y-80413624D01*
X196006784Y-80481544D01*
X196154354Y-80580147D01*
X196279853Y-80705646D01*
X196378456Y-80853216D01*
X196446376Y-81017188D01*
X196481000Y-81191259D01*
X196481000Y-81368741D01*
X196446376Y-81542812D01*
X196378456Y-81706784D01*
X196279853Y-81854354D01*
X196154354Y-81979853D01*
X196006784Y-82078456D01*
X195842812Y-82146376D01*
X195693512Y-82176073D01*
X195668742Y-82181000D01*
X195491258Y-82181000D01*
X195466488Y-82176073D01*
X195317188Y-82146376D01*
X195153216Y-82078456D01*
X195005646Y-81979853D01*
X194880147Y-81854354D01*
X194781544Y-81706784D01*
X194713624Y-81542812D01*
X194679000Y-81368741D01*
X194679000Y-81191259D01*
X194713624Y-81017188D01*
X194781544Y-80853216D01*
X194880147Y-80705646D01*
X195005646Y-80580147D01*
X195153216Y-80481544D01*
X195317188Y-80413624D01*
X195466488Y-80383927D01*
X195491258Y-80379000D01*
X195668742Y-80379000D01*
X195693512Y-80383927D01*
G37*
G36*
X193153512Y-80383927D02*
G01*
X193302812Y-80413624D01*
X193466784Y-80481544D01*
X193614354Y-80580147D01*
X193739853Y-80705646D01*
X193838456Y-80853216D01*
X193906376Y-81017188D01*
X193941000Y-81191259D01*
X193941000Y-81368741D01*
X193906376Y-81542812D01*
X193838456Y-81706784D01*
X193739853Y-81854354D01*
X193614354Y-81979853D01*
X193466784Y-82078456D01*
X193302812Y-82146376D01*
X193153512Y-82176073D01*
X193128742Y-82181000D01*
X192951258Y-82181000D01*
X192926488Y-82176073D01*
X192777188Y-82146376D01*
X192613216Y-82078456D01*
X192465646Y-81979853D01*
X192340147Y-81854354D01*
X192241544Y-81706784D01*
X192173624Y-81542812D01*
X192139000Y-81368741D01*
X192139000Y-81191259D01*
X192173624Y-81017188D01*
X192241544Y-80853216D01*
X192340147Y-80705646D01*
X192465646Y-80580147D01*
X192613216Y-80481544D01*
X192777188Y-80413624D01*
X192926488Y-80383927D01*
X192951258Y-80379000D01*
X193128742Y-80379000D01*
X193153512Y-80383927D01*
G37*
G36*
X190613512Y-80383927D02*
G01*
X190762812Y-80413624D01*
X190926784Y-80481544D01*
X191074354Y-80580147D01*
X191199853Y-80705646D01*
X191298456Y-80853216D01*
X191366376Y-81017188D01*
X191401000Y-81191259D01*
X191401000Y-81368741D01*
X191366376Y-81542812D01*
X191298456Y-81706784D01*
X191199853Y-81854354D01*
X191074354Y-81979853D01*
X190926784Y-82078456D01*
X190762812Y-82146376D01*
X190613512Y-82176073D01*
X190588742Y-82181000D01*
X190411258Y-82181000D01*
X190386488Y-82176073D01*
X190237188Y-82146376D01*
X190073216Y-82078456D01*
X189925646Y-81979853D01*
X189800147Y-81854354D01*
X189701544Y-81706784D01*
X189633624Y-81542812D01*
X189599000Y-81368741D01*
X189599000Y-81191259D01*
X189633624Y-81017188D01*
X189701544Y-80853216D01*
X189800147Y-80705646D01*
X189925646Y-80580147D01*
X190073216Y-80481544D01*
X190237188Y-80413624D01*
X190386488Y-80383927D01*
X190411258Y-80379000D01*
X190588742Y-80379000D01*
X190613512Y-80383927D01*
G37*
G36*
X167753512Y-80383927D02*
G01*
X167902812Y-80413624D01*
X168066784Y-80481544D01*
X168214354Y-80580147D01*
X168339853Y-80705646D01*
X168438456Y-80853216D01*
X168506376Y-81017188D01*
X168541000Y-81191259D01*
X168541000Y-81368741D01*
X168506376Y-81542812D01*
X168438456Y-81706784D01*
X168339853Y-81854354D01*
X168214354Y-81979853D01*
X168066784Y-82078456D01*
X167902812Y-82146376D01*
X167753512Y-82176073D01*
X167728742Y-82181000D01*
X167551258Y-82181000D01*
X167526488Y-82176073D01*
X167377188Y-82146376D01*
X167213216Y-82078456D01*
X167065646Y-81979853D01*
X166940147Y-81854354D01*
X166841544Y-81706784D01*
X166773624Y-81542812D01*
X166739000Y-81368741D01*
X166739000Y-81191259D01*
X166773624Y-81017188D01*
X166841544Y-80853216D01*
X166940147Y-80705646D01*
X167065646Y-80580147D01*
X167213216Y-80481544D01*
X167377188Y-80413624D01*
X167526488Y-80383927D01*
X167551258Y-80379000D01*
X167728742Y-80379000D01*
X167753512Y-80383927D01*
G37*
G36*
X182993512Y-80383927D02*
G01*
X183142812Y-80413624D01*
X183306784Y-80481544D01*
X183454354Y-80580147D01*
X183579853Y-80705646D01*
X183678456Y-80853216D01*
X183746376Y-81017188D01*
X183781000Y-81191259D01*
X183781000Y-81368741D01*
X183746376Y-81542812D01*
X183678456Y-81706784D01*
X183579853Y-81854354D01*
X183454354Y-81979853D01*
X183306784Y-82078456D01*
X183142812Y-82146376D01*
X182993512Y-82176073D01*
X182968742Y-82181000D01*
X182791258Y-82181000D01*
X182766488Y-82176073D01*
X182617188Y-82146376D01*
X182453216Y-82078456D01*
X182305646Y-81979853D01*
X182180147Y-81854354D01*
X182081544Y-81706784D01*
X182013624Y-81542812D01*
X181979000Y-81368741D01*
X181979000Y-81191259D01*
X182013624Y-81017188D01*
X182081544Y-80853216D01*
X182180147Y-80705646D01*
X182305646Y-80580147D01*
X182453216Y-80481544D01*
X182617188Y-80413624D01*
X182766488Y-80383927D01*
X182791258Y-80379000D01*
X182968742Y-80379000D01*
X182993512Y-80383927D01*
G37*
G36*
X180453512Y-80383927D02*
G01*
X180602812Y-80413624D01*
X180766784Y-80481544D01*
X180914354Y-80580147D01*
X181039853Y-80705646D01*
X181138456Y-80853216D01*
X181206376Y-81017188D01*
X181241000Y-81191259D01*
X181241000Y-81368741D01*
X181206376Y-81542812D01*
X181138456Y-81706784D01*
X181039853Y-81854354D01*
X180914354Y-81979853D01*
X180766784Y-82078456D01*
X180602812Y-82146376D01*
X180453512Y-82176073D01*
X180428742Y-82181000D01*
X180251258Y-82181000D01*
X180226488Y-82176073D01*
X180077188Y-82146376D01*
X179913216Y-82078456D01*
X179765646Y-81979853D01*
X179640147Y-81854354D01*
X179541544Y-81706784D01*
X179473624Y-81542812D01*
X179439000Y-81368741D01*
X179439000Y-81191259D01*
X179473624Y-81017188D01*
X179541544Y-80853216D01*
X179640147Y-80705646D01*
X179765646Y-80580147D01*
X179913216Y-80481544D01*
X180077188Y-80413624D01*
X180226488Y-80383927D01*
X180251258Y-80379000D01*
X180428742Y-80379000D01*
X180453512Y-80383927D01*
G37*
G36*
X177913512Y-80383927D02*
G01*
X178062812Y-80413624D01*
X178226784Y-80481544D01*
X178374354Y-80580147D01*
X178499853Y-80705646D01*
X178598456Y-80853216D01*
X178666376Y-81017188D01*
X178701000Y-81191259D01*
X178701000Y-81368741D01*
X178666376Y-81542812D01*
X178598456Y-81706784D01*
X178499853Y-81854354D01*
X178374354Y-81979853D01*
X178226784Y-82078456D01*
X178062812Y-82146376D01*
X177913512Y-82176073D01*
X177888742Y-82181000D01*
X177711258Y-82181000D01*
X177686488Y-82176073D01*
X177537188Y-82146376D01*
X177373216Y-82078456D01*
X177225646Y-81979853D01*
X177100147Y-81854354D01*
X177001544Y-81706784D01*
X176933624Y-81542812D01*
X176899000Y-81368741D01*
X176899000Y-81191259D01*
X176933624Y-81017188D01*
X177001544Y-80853216D01*
X177100147Y-80705646D01*
X177225646Y-80580147D01*
X177373216Y-80481544D01*
X177537188Y-80413624D01*
X177686488Y-80383927D01*
X177711258Y-80379000D01*
X177888742Y-80379000D01*
X177913512Y-80383927D01*
G37*
G36*
X175373512Y-80383927D02*
G01*
X175522812Y-80413624D01*
X175686784Y-80481544D01*
X175834354Y-80580147D01*
X175959853Y-80705646D01*
X176058456Y-80853216D01*
X176126376Y-81017188D01*
X176161000Y-81191259D01*
X176161000Y-81368741D01*
X176126376Y-81542812D01*
X176058456Y-81706784D01*
X175959853Y-81854354D01*
X175834354Y-81979853D01*
X175686784Y-82078456D01*
X175522812Y-82146376D01*
X175373512Y-82176073D01*
X175348742Y-82181000D01*
X175171258Y-82181000D01*
X175146488Y-82176073D01*
X174997188Y-82146376D01*
X174833216Y-82078456D01*
X174685646Y-81979853D01*
X174560147Y-81854354D01*
X174461544Y-81706784D01*
X174393624Y-81542812D01*
X174359000Y-81368741D01*
X174359000Y-81191259D01*
X174393624Y-81017188D01*
X174461544Y-80853216D01*
X174560147Y-80705646D01*
X174685646Y-80580147D01*
X174833216Y-80481544D01*
X174997188Y-80413624D01*
X175146488Y-80383927D01*
X175171258Y-80379000D01*
X175348742Y-80379000D01*
X175373512Y-80383927D01*
G37*
G36*
X172833512Y-80383927D02*
G01*
X172982812Y-80413624D01*
X173146784Y-80481544D01*
X173294354Y-80580147D01*
X173419853Y-80705646D01*
X173518456Y-80853216D01*
X173586376Y-81017188D01*
X173621000Y-81191259D01*
X173621000Y-81368741D01*
X173586376Y-81542812D01*
X173518456Y-81706784D01*
X173419853Y-81854354D01*
X173294354Y-81979853D01*
X173146784Y-82078456D01*
X172982812Y-82146376D01*
X172833512Y-82176073D01*
X172808742Y-82181000D01*
X172631258Y-82181000D01*
X172606488Y-82176073D01*
X172457188Y-82146376D01*
X172293216Y-82078456D01*
X172145646Y-81979853D01*
X172020147Y-81854354D01*
X171921544Y-81706784D01*
X171853624Y-81542812D01*
X171819000Y-81368741D01*
X171819000Y-81191259D01*
X171853624Y-81017188D01*
X171921544Y-80853216D01*
X172020147Y-80705646D01*
X172145646Y-80580147D01*
X172293216Y-80481544D01*
X172457188Y-80413624D01*
X172606488Y-80383927D01*
X172631258Y-80379000D01*
X172808742Y-80379000D01*
X172833512Y-80383927D01*
G37*
G36*
X170293512Y-80383927D02*
G01*
X170442812Y-80413624D01*
X170606784Y-80481544D01*
X170754354Y-80580147D01*
X170879853Y-80705646D01*
X170978456Y-80853216D01*
X171046376Y-81017188D01*
X171081000Y-81191259D01*
X171081000Y-81368741D01*
X171046376Y-81542812D01*
X170978456Y-81706784D01*
X170879853Y-81854354D01*
X170754354Y-81979853D01*
X170606784Y-82078456D01*
X170442812Y-82146376D01*
X170293512Y-82176073D01*
X170268742Y-82181000D01*
X170091258Y-82181000D01*
X170066488Y-82176073D01*
X169917188Y-82146376D01*
X169753216Y-82078456D01*
X169605646Y-81979853D01*
X169480147Y-81854354D01*
X169381544Y-81706784D01*
X169313624Y-81542812D01*
X169279000Y-81368741D01*
X169279000Y-81191259D01*
X169313624Y-81017188D01*
X169381544Y-80853216D01*
X169480147Y-80705646D01*
X169605646Y-80580147D01*
X169753216Y-80481544D01*
X169917188Y-80413624D01*
X170066488Y-80383927D01*
X170091258Y-80379000D01*
X170268742Y-80379000D01*
X170293512Y-80383927D01*
G37*
G36*
X185533512Y-80383927D02*
G01*
X185682812Y-80413624D01*
X185846784Y-80481544D01*
X185994354Y-80580147D01*
X186119853Y-80705646D01*
X186218456Y-80853216D01*
X186286376Y-81017188D01*
X186321000Y-81191259D01*
X186321000Y-81368741D01*
X186286376Y-81542812D01*
X186218456Y-81706784D01*
X186119853Y-81854354D01*
X185994354Y-81979853D01*
X185846784Y-82078456D01*
X185682812Y-82146376D01*
X185533512Y-82176073D01*
X185508742Y-82181000D01*
X185331258Y-82181000D01*
X185306488Y-82176073D01*
X185157188Y-82146376D01*
X184993216Y-82078456D01*
X184845646Y-81979853D01*
X184720147Y-81854354D01*
X184621544Y-81706784D01*
X184553624Y-81542812D01*
X184519000Y-81368741D01*
X184519000Y-81191259D01*
X184553624Y-81017188D01*
X184621544Y-80853216D01*
X184720147Y-80705646D01*
X184845646Y-80580147D01*
X184993216Y-80481544D01*
X185157188Y-80413624D01*
X185306488Y-80383927D01*
X185331258Y-80379000D01*
X185508742Y-80379000D01*
X185533512Y-80383927D01*
G37*
G36*
X207385256Y-78401298D02*
G01*
X207491579Y-78422447D01*
X207792042Y-78546903D01*
X208062451Y-78727585D01*
X208292415Y-78957549D01*
X208473097Y-79227958D01*
X208597553Y-79528421D01*
X208661000Y-79847391D01*
X208661000Y-80172609D01*
X208597553Y-80491579D01*
X208473097Y-80792042D01*
X208292415Y-81062451D01*
X208062451Y-81292415D01*
X207792042Y-81473097D01*
X207491579Y-81597553D01*
X207385256Y-81618702D01*
X207172611Y-81661000D01*
X206847389Y-81661000D01*
X206634744Y-81618702D01*
X206528421Y-81597553D01*
X206227958Y-81473097D01*
X205957549Y-81292415D01*
X205727585Y-81062451D01*
X205546903Y-80792042D01*
X205422447Y-80491579D01*
X205359000Y-80172609D01*
X205359000Y-79847391D01*
X205422447Y-79528421D01*
X205546903Y-79227958D01*
X205727585Y-78957549D01*
X205957549Y-78727585D01*
X206227958Y-78546903D01*
X206528421Y-78422447D01*
X206634744Y-78401298D01*
X206847389Y-78359000D01*
X207172611Y-78359000D01*
X207385256Y-78401298D01*
G37*
G36*
X161665256Y-78401298D02*
G01*
X161771579Y-78422447D01*
X162072042Y-78546903D01*
X162342451Y-78727585D01*
X162572415Y-78957549D01*
X162753097Y-79227958D01*
X162877553Y-79528421D01*
X162941000Y-79847391D01*
X162941000Y-80172609D01*
X162877553Y-80491579D01*
X162753097Y-80792042D01*
X162572415Y-81062451D01*
X162342451Y-81292415D01*
X162072042Y-81473097D01*
X161771579Y-81597553D01*
X161665256Y-81618702D01*
X161452611Y-81661000D01*
X161127389Y-81661000D01*
X160914744Y-81618702D01*
X160808421Y-81597553D01*
X160507958Y-81473097D01*
X160237549Y-81292415D01*
X160007585Y-81062451D01*
X159826903Y-80792042D01*
X159702447Y-80491579D01*
X159639000Y-80172609D01*
X159639000Y-79847391D01*
X159702447Y-79528421D01*
X159826903Y-79227958D01*
X160007585Y-78957549D01*
X160237549Y-78727585D01*
X160507958Y-78546903D01*
X160808421Y-78422447D01*
X160914744Y-78401298D01*
X161127389Y-78359000D01*
X161452611Y-78359000D01*
X161665256Y-78401298D01*
G37*
G36*
X185533512Y-77843927D02*
G01*
X185682812Y-77873624D01*
X185846784Y-77941544D01*
X185994354Y-78040147D01*
X186119853Y-78165646D01*
X186218456Y-78313216D01*
X186286376Y-78477188D01*
X186321000Y-78651259D01*
X186321000Y-78828741D01*
X186286376Y-79002812D01*
X186218456Y-79166784D01*
X186119853Y-79314354D01*
X185994354Y-79439853D01*
X185846784Y-79538456D01*
X185682812Y-79606376D01*
X185533512Y-79636073D01*
X185508742Y-79641000D01*
X185331258Y-79641000D01*
X185306488Y-79636073D01*
X185157188Y-79606376D01*
X184993216Y-79538456D01*
X184845646Y-79439853D01*
X184720147Y-79314354D01*
X184621544Y-79166784D01*
X184553624Y-79002812D01*
X184519000Y-78828741D01*
X184519000Y-78651259D01*
X184553624Y-78477188D01*
X184621544Y-78313216D01*
X184720147Y-78165646D01*
X184845646Y-78040147D01*
X184993216Y-77941544D01*
X185157188Y-77873624D01*
X185306488Y-77843927D01*
X185331258Y-77839000D01*
X185508742Y-77839000D01*
X185533512Y-77843927D01*
G37*
G36*
X165213512Y-77843927D02*
G01*
X165362812Y-77873624D01*
X165526784Y-77941544D01*
X165674354Y-78040147D01*
X165799853Y-78165646D01*
X165898456Y-78313216D01*
X165966376Y-78477188D01*
X166001000Y-78651259D01*
X166001000Y-78828741D01*
X165966376Y-79002812D01*
X165898456Y-79166784D01*
X165799853Y-79314354D01*
X165674354Y-79439853D01*
X165526784Y-79538456D01*
X165362812Y-79606376D01*
X165213512Y-79636073D01*
X165188742Y-79641000D01*
X165011258Y-79641000D01*
X164986488Y-79636073D01*
X164837188Y-79606376D01*
X164673216Y-79538456D01*
X164525646Y-79439853D01*
X164400147Y-79314354D01*
X164301544Y-79166784D01*
X164233624Y-79002812D01*
X164199000Y-78828741D01*
X164199000Y-78651259D01*
X164233624Y-78477188D01*
X164301544Y-78313216D01*
X164400147Y-78165646D01*
X164525646Y-78040147D01*
X164673216Y-77941544D01*
X164837188Y-77873624D01*
X164986488Y-77843927D01*
X165011258Y-77839000D01*
X165188742Y-77839000D01*
X165213512Y-77843927D01*
G37*
G36*
X167753512Y-77843927D02*
G01*
X167902812Y-77873624D01*
X168066784Y-77941544D01*
X168214354Y-78040147D01*
X168339853Y-78165646D01*
X168438456Y-78313216D01*
X168506376Y-78477188D01*
X168541000Y-78651259D01*
X168541000Y-78828741D01*
X168506376Y-79002812D01*
X168438456Y-79166784D01*
X168339853Y-79314354D01*
X168214354Y-79439853D01*
X168066784Y-79538456D01*
X167902812Y-79606376D01*
X167753512Y-79636073D01*
X167728742Y-79641000D01*
X167551258Y-79641000D01*
X167526488Y-79636073D01*
X167377188Y-79606376D01*
X167213216Y-79538456D01*
X167065646Y-79439853D01*
X166940147Y-79314354D01*
X166841544Y-79166784D01*
X166773624Y-79002812D01*
X166739000Y-78828741D01*
X166739000Y-78651259D01*
X166773624Y-78477188D01*
X166841544Y-78313216D01*
X166940147Y-78165646D01*
X167065646Y-78040147D01*
X167213216Y-77941544D01*
X167377188Y-77873624D01*
X167526488Y-77843927D01*
X167551258Y-77839000D01*
X167728742Y-77839000D01*
X167753512Y-77843927D01*
G37*
G36*
X170293512Y-77843927D02*
G01*
X170442812Y-77873624D01*
X170606784Y-77941544D01*
X170754354Y-78040147D01*
X170879853Y-78165646D01*
X170978456Y-78313216D01*
X171046376Y-78477188D01*
X171081000Y-78651259D01*
X171081000Y-78828741D01*
X171046376Y-79002812D01*
X170978456Y-79166784D01*
X170879853Y-79314354D01*
X170754354Y-79439853D01*
X170606784Y-79538456D01*
X170442812Y-79606376D01*
X170293512Y-79636073D01*
X170268742Y-79641000D01*
X170091258Y-79641000D01*
X170066488Y-79636073D01*
X169917188Y-79606376D01*
X169753216Y-79538456D01*
X169605646Y-79439853D01*
X169480147Y-79314354D01*
X169381544Y-79166784D01*
X169313624Y-79002812D01*
X169279000Y-78828741D01*
X169279000Y-78651259D01*
X169313624Y-78477188D01*
X169381544Y-78313216D01*
X169480147Y-78165646D01*
X169605646Y-78040147D01*
X169753216Y-77941544D01*
X169917188Y-77873624D01*
X170066488Y-77843927D01*
X170091258Y-77839000D01*
X170268742Y-77839000D01*
X170293512Y-77843927D01*
G37*
G36*
X195693512Y-77843927D02*
G01*
X195842812Y-77873624D01*
X196006784Y-77941544D01*
X196154354Y-78040147D01*
X196279853Y-78165646D01*
X196378456Y-78313216D01*
X196446376Y-78477188D01*
X196481000Y-78651259D01*
X196481000Y-78828741D01*
X196446376Y-79002812D01*
X196378456Y-79166784D01*
X196279853Y-79314354D01*
X196154354Y-79439853D01*
X196006784Y-79538456D01*
X195842812Y-79606376D01*
X195693512Y-79636073D01*
X195668742Y-79641000D01*
X195491258Y-79641000D01*
X195466488Y-79636073D01*
X195317188Y-79606376D01*
X195153216Y-79538456D01*
X195005646Y-79439853D01*
X194880147Y-79314354D01*
X194781544Y-79166784D01*
X194713624Y-79002812D01*
X194679000Y-78828741D01*
X194679000Y-78651259D01*
X194713624Y-78477188D01*
X194781544Y-78313216D01*
X194880147Y-78165646D01*
X195005646Y-78040147D01*
X195153216Y-77941544D01*
X195317188Y-77873624D01*
X195466488Y-77843927D01*
X195491258Y-77839000D01*
X195668742Y-77839000D01*
X195693512Y-77843927D01*
G37*
G36*
X190613512Y-77843927D02*
G01*
X190762812Y-77873624D01*
X190926784Y-77941544D01*
X191074354Y-78040147D01*
X191199853Y-78165646D01*
X191298456Y-78313216D01*
X191366376Y-78477188D01*
X191401000Y-78651259D01*
X191401000Y-78828741D01*
X191366376Y-79002812D01*
X191298456Y-79166784D01*
X191199853Y-79314354D01*
X191074354Y-79439853D01*
X190926784Y-79538456D01*
X190762812Y-79606376D01*
X190613512Y-79636073D01*
X190588742Y-79641000D01*
X190411258Y-79641000D01*
X190386488Y-79636073D01*
X190237188Y-79606376D01*
X190073216Y-79538456D01*
X189925646Y-79439853D01*
X189800147Y-79314354D01*
X189701544Y-79166784D01*
X189633624Y-79002812D01*
X189599000Y-78828741D01*
X189599000Y-78651259D01*
X189633624Y-78477188D01*
X189701544Y-78313216D01*
X189800147Y-78165646D01*
X189925646Y-78040147D01*
X190073216Y-77941544D01*
X190237188Y-77873624D01*
X190386488Y-77843927D01*
X190411258Y-77839000D01*
X190588742Y-77839000D01*
X190613512Y-77843927D01*
G37*
G36*
X188073512Y-77843927D02*
G01*
X188222812Y-77873624D01*
X188386784Y-77941544D01*
X188534354Y-78040147D01*
X188659853Y-78165646D01*
X188758456Y-78313216D01*
X188826376Y-78477188D01*
X188861000Y-78651259D01*
X188861000Y-78828741D01*
X188826376Y-79002812D01*
X188758456Y-79166784D01*
X188659853Y-79314354D01*
X188534354Y-79439853D01*
X188386784Y-79538456D01*
X188222812Y-79606376D01*
X188073512Y-79636073D01*
X188048742Y-79641000D01*
X187871258Y-79641000D01*
X187846488Y-79636073D01*
X187697188Y-79606376D01*
X187533216Y-79538456D01*
X187385646Y-79439853D01*
X187260147Y-79314354D01*
X187161544Y-79166784D01*
X187093624Y-79002812D01*
X187059000Y-78828741D01*
X187059000Y-78651259D01*
X187093624Y-78477188D01*
X187161544Y-78313216D01*
X187260147Y-78165646D01*
X187385646Y-78040147D01*
X187533216Y-77941544D01*
X187697188Y-77873624D01*
X187846488Y-77843927D01*
X187871258Y-77839000D01*
X188048742Y-77839000D01*
X188073512Y-77843927D01*
G37*
G36*
X175373512Y-77843927D02*
G01*
X175522812Y-77873624D01*
X175686784Y-77941544D01*
X175834354Y-78040147D01*
X175959853Y-78165646D01*
X176058456Y-78313216D01*
X176126376Y-78477188D01*
X176161000Y-78651259D01*
X176161000Y-78828741D01*
X176126376Y-79002812D01*
X176058456Y-79166784D01*
X175959853Y-79314354D01*
X175834354Y-79439853D01*
X175686784Y-79538456D01*
X175522812Y-79606376D01*
X175373512Y-79636073D01*
X175348742Y-79641000D01*
X175171258Y-79641000D01*
X175146488Y-79636073D01*
X174997188Y-79606376D01*
X174833216Y-79538456D01*
X174685646Y-79439853D01*
X174560147Y-79314354D01*
X174461544Y-79166784D01*
X174393624Y-79002812D01*
X174359000Y-78828741D01*
X174359000Y-78651259D01*
X174393624Y-78477188D01*
X174461544Y-78313216D01*
X174560147Y-78165646D01*
X174685646Y-78040147D01*
X174833216Y-77941544D01*
X174997188Y-77873624D01*
X175146488Y-77843927D01*
X175171258Y-77839000D01*
X175348742Y-77839000D01*
X175373512Y-77843927D01*
G37*
G36*
X182993512Y-77843927D02*
G01*
X183142812Y-77873624D01*
X183306784Y-77941544D01*
X183454354Y-78040147D01*
X183579853Y-78165646D01*
X183678456Y-78313216D01*
X183746376Y-78477188D01*
X183781000Y-78651259D01*
X183781000Y-78828741D01*
X183746376Y-79002812D01*
X183678456Y-79166784D01*
X183579853Y-79314354D01*
X183454354Y-79439853D01*
X183306784Y-79538456D01*
X183142812Y-79606376D01*
X182993512Y-79636073D01*
X182968742Y-79641000D01*
X182791258Y-79641000D01*
X182766488Y-79636073D01*
X182617188Y-79606376D01*
X182453216Y-79538456D01*
X182305646Y-79439853D01*
X182180147Y-79314354D01*
X182081544Y-79166784D01*
X182013624Y-79002812D01*
X181979000Y-78828741D01*
X181979000Y-78651259D01*
X182013624Y-78477188D01*
X182081544Y-78313216D01*
X182180147Y-78165646D01*
X182305646Y-78040147D01*
X182453216Y-77941544D01*
X182617188Y-77873624D01*
X182766488Y-77843927D01*
X182791258Y-77839000D01*
X182968742Y-77839000D01*
X182993512Y-77843927D01*
G37*
G36*
X193153512Y-77843927D02*
G01*
X193302812Y-77873624D01*
X193466784Y-77941544D01*
X193614354Y-78040147D01*
X193739853Y-78165646D01*
X193838456Y-78313216D01*
X193906376Y-78477188D01*
X193941000Y-78651259D01*
X193941000Y-78828741D01*
X193906376Y-79002812D01*
X193838456Y-79166784D01*
X193739853Y-79314354D01*
X193614354Y-79439853D01*
X193466784Y-79538456D01*
X193302812Y-79606376D01*
X193153512Y-79636073D01*
X193128742Y-79641000D01*
X192951258Y-79641000D01*
X192926488Y-79636073D01*
X192777188Y-79606376D01*
X192613216Y-79538456D01*
X192465646Y-79439853D01*
X192340147Y-79314354D01*
X192241544Y-79166784D01*
X192173624Y-79002812D01*
X192139000Y-78828741D01*
X192139000Y-78651259D01*
X192173624Y-78477188D01*
X192241544Y-78313216D01*
X192340147Y-78165646D01*
X192465646Y-78040147D01*
X192613216Y-77941544D01*
X192777188Y-77873624D01*
X192926488Y-77843927D01*
X192951258Y-77839000D01*
X193128742Y-77839000D01*
X193153512Y-77843927D01*
G37*
G36*
X200773512Y-77843927D02*
G01*
X200922812Y-77873624D01*
X201086784Y-77941544D01*
X201234354Y-78040147D01*
X201359853Y-78165646D01*
X201458456Y-78313216D01*
X201526376Y-78477188D01*
X201561000Y-78651259D01*
X201561000Y-78828741D01*
X201526376Y-79002812D01*
X201458456Y-79166784D01*
X201359853Y-79314354D01*
X201234354Y-79439853D01*
X201086784Y-79538456D01*
X200922812Y-79606376D01*
X200773512Y-79636073D01*
X200748742Y-79641000D01*
X200571258Y-79641000D01*
X200546488Y-79636073D01*
X200397188Y-79606376D01*
X200233216Y-79538456D01*
X200085646Y-79439853D01*
X199960147Y-79314354D01*
X199861544Y-79166784D01*
X199793624Y-79002812D01*
X199759000Y-78828741D01*
X199759000Y-78651259D01*
X199793624Y-78477188D01*
X199861544Y-78313216D01*
X199960147Y-78165646D01*
X200085646Y-78040147D01*
X200233216Y-77941544D01*
X200397188Y-77873624D01*
X200546488Y-77843927D01*
X200571258Y-77839000D01*
X200748742Y-77839000D01*
X200773512Y-77843927D01*
G37*
G36*
X180453512Y-77843927D02*
G01*
X180602812Y-77873624D01*
X180766784Y-77941544D01*
X180914354Y-78040147D01*
X181039853Y-78165646D01*
X181138456Y-78313216D01*
X181206376Y-78477188D01*
X181241000Y-78651259D01*
X181241000Y-78828741D01*
X181206376Y-79002812D01*
X181138456Y-79166784D01*
X181039853Y-79314354D01*
X180914354Y-79439853D01*
X180766784Y-79538456D01*
X180602812Y-79606376D01*
X180453512Y-79636073D01*
X180428742Y-79641000D01*
X180251258Y-79641000D01*
X180226488Y-79636073D01*
X180077188Y-79606376D01*
X179913216Y-79538456D01*
X179765646Y-79439853D01*
X179640147Y-79314354D01*
X179541544Y-79166784D01*
X179473624Y-79002812D01*
X179439000Y-78828741D01*
X179439000Y-78651259D01*
X179473624Y-78477188D01*
X179541544Y-78313216D01*
X179640147Y-78165646D01*
X179765646Y-78040147D01*
X179913216Y-77941544D01*
X180077188Y-77873624D01*
X180226488Y-77843927D01*
X180251258Y-77839000D01*
X180428742Y-77839000D01*
X180453512Y-77843927D01*
G37*
G36*
X177913512Y-77843927D02*
G01*
X178062812Y-77873624D01*
X178226784Y-77941544D01*
X178374354Y-78040147D01*
X178499853Y-78165646D01*
X178598456Y-78313216D01*
X178666376Y-78477188D01*
X178701000Y-78651259D01*
X178701000Y-78828741D01*
X178666376Y-79002812D01*
X178598456Y-79166784D01*
X178499853Y-79314354D01*
X178374354Y-79439853D01*
X178226784Y-79538456D01*
X178062812Y-79606376D01*
X177913512Y-79636073D01*
X177888742Y-79641000D01*
X177711258Y-79641000D01*
X177686488Y-79636073D01*
X177537188Y-79606376D01*
X177373216Y-79538456D01*
X177225646Y-79439853D01*
X177100147Y-79314354D01*
X177001544Y-79166784D01*
X176933624Y-79002812D01*
X176899000Y-78828741D01*
X176899000Y-78651259D01*
X176933624Y-78477188D01*
X177001544Y-78313216D01*
X177100147Y-78165646D01*
X177225646Y-78040147D01*
X177373216Y-77941544D01*
X177537188Y-77873624D01*
X177686488Y-77843927D01*
X177711258Y-77839000D01*
X177888742Y-77839000D01*
X177913512Y-77843927D01*
G37*
G36*
X172833512Y-77843927D02*
G01*
X172982812Y-77873624D01*
X173146784Y-77941544D01*
X173294354Y-78040147D01*
X173419853Y-78165646D01*
X173518456Y-78313216D01*
X173586376Y-78477188D01*
X173621000Y-78651259D01*
X173621000Y-78828741D01*
X173586376Y-79002812D01*
X173518456Y-79166784D01*
X173419853Y-79314354D01*
X173294354Y-79439853D01*
X173146784Y-79538456D01*
X172982812Y-79606376D01*
X172833512Y-79636073D01*
X172808742Y-79641000D01*
X172631258Y-79641000D01*
X172606488Y-79636073D01*
X172457188Y-79606376D01*
X172293216Y-79538456D01*
X172145646Y-79439853D01*
X172020147Y-79314354D01*
X171921544Y-79166784D01*
X171853624Y-79002812D01*
X171819000Y-78828741D01*
X171819000Y-78651259D01*
X171853624Y-78477188D01*
X171921544Y-78313216D01*
X172020147Y-78165646D01*
X172145646Y-78040147D01*
X172293216Y-77941544D01*
X172457188Y-77873624D01*
X172606488Y-77843927D01*
X172631258Y-77839000D01*
X172808742Y-77839000D01*
X172833512Y-77843927D01*
G37*
G36*
X203313512Y-77843927D02*
G01*
X203462812Y-77873624D01*
X203626784Y-77941544D01*
X203774354Y-78040147D01*
X203899853Y-78165646D01*
X203998456Y-78313216D01*
X204066376Y-78477188D01*
X204101000Y-78651259D01*
X204101000Y-78828741D01*
X204066376Y-79002812D01*
X203998456Y-79166784D01*
X203899853Y-79314354D01*
X203774354Y-79439853D01*
X203626784Y-79538456D01*
X203462812Y-79606376D01*
X203313512Y-79636073D01*
X203288742Y-79641000D01*
X203111258Y-79641000D01*
X203086488Y-79636073D01*
X202937188Y-79606376D01*
X202773216Y-79538456D01*
X202625646Y-79439853D01*
X202500147Y-79314354D01*
X202401544Y-79166784D01*
X202333624Y-79002812D01*
X202299000Y-78828741D01*
X202299000Y-78651259D01*
X202333624Y-78477188D01*
X202401544Y-78313216D01*
X202500147Y-78165646D01*
X202625646Y-78040147D01*
X202773216Y-77941544D01*
X202937188Y-77873624D01*
X203086488Y-77843927D01*
X203111258Y-77839000D01*
X203288742Y-77839000D01*
X203313512Y-77843927D01*
G37*
G36*
X198233512Y-77843927D02*
G01*
X198382812Y-77873624D01*
X198546784Y-77941544D01*
X198694354Y-78040147D01*
X198819853Y-78165646D01*
X198918456Y-78313216D01*
X198986376Y-78477188D01*
X199021000Y-78651259D01*
X199021000Y-78828741D01*
X198986376Y-79002812D01*
X198918456Y-79166784D01*
X198819853Y-79314354D01*
X198694354Y-79439853D01*
X198546784Y-79538456D01*
X198382812Y-79606376D01*
X198233512Y-79636073D01*
X198208742Y-79641000D01*
X198031258Y-79641000D01*
X198006488Y-79636073D01*
X197857188Y-79606376D01*
X197693216Y-79538456D01*
X197545646Y-79439853D01*
X197420147Y-79314354D01*
X197321544Y-79166784D01*
X197253624Y-79002812D01*
X197219000Y-78828741D01*
X197219000Y-78651259D01*
X197253624Y-78477188D01*
X197321544Y-78313216D01*
X197420147Y-78165646D01*
X197545646Y-78040147D01*
X197693216Y-77941544D01*
X197857188Y-77873624D01*
X198006488Y-77843927D01*
X198031258Y-77839000D01*
X198208742Y-77839000D01*
X198233512Y-77843927D01*
G37*
G36*
X160133512Y-75303927D02*
G01*
X160282812Y-75333624D01*
X160446784Y-75401544D01*
X160594354Y-75500147D01*
X160719853Y-75625646D01*
X160818456Y-75773216D01*
X160886376Y-75937188D01*
X160921000Y-76111259D01*
X160921000Y-76288741D01*
X160886376Y-76462812D01*
X160818456Y-76626784D01*
X160719853Y-76774354D01*
X160594354Y-76899853D01*
X160446784Y-76998456D01*
X160282812Y-77066376D01*
X160133512Y-77096073D01*
X160108742Y-77101000D01*
X159931258Y-77101000D01*
X159906488Y-77096073D01*
X159757188Y-77066376D01*
X159593216Y-76998456D01*
X159445646Y-76899853D01*
X159320147Y-76774354D01*
X159221544Y-76626784D01*
X159153624Y-76462812D01*
X159119000Y-76288741D01*
X159119000Y-76111259D01*
X159153624Y-75937188D01*
X159221544Y-75773216D01*
X159320147Y-75625646D01*
X159445646Y-75500147D01*
X159593216Y-75401544D01*
X159757188Y-75333624D01*
X159906488Y-75303927D01*
X159931258Y-75299000D01*
X160108742Y-75299000D01*
X160133512Y-75303927D01*
G37*
G36*
X165213512Y-75303927D02*
G01*
X165362812Y-75333624D01*
X165526784Y-75401544D01*
X165674354Y-75500147D01*
X165799853Y-75625646D01*
X165898456Y-75773216D01*
X165966376Y-75937188D01*
X166001000Y-76111259D01*
X166001000Y-76288741D01*
X165966376Y-76462812D01*
X165898456Y-76626784D01*
X165799853Y-76774354D01*
X165674354Y-76899853D01*
X165526784Y-76998456D01*
X165362812Y-77066376D01*
X165213512Y-77096073D01*
X165188742Y-77101000D01*
X165011258Y-77101000D01*
X164986488Y-77096073D01*
X164837188Y-77066376D01*
X164673216Y-76998456D01*
X164525646Y-76899853D01*
X164400147Y-76774354D01*
X164301544Y-76626784D01*
X164233624Y-76462812D01*
X164199000Y-76288741D01*
X164199000Y-76111259D01*
X164233624Y-75937188D01*
X164301544Y-75773216D01*
X164400147Y-75625646D01*
X164525646Y-75500147D01*
X164673216Y-75401544D01*
X164837188Y-75333624D01*
X164986488Y-75303927D01*
X165011258Y-75299000D01*
X165188742Y-75299000D01*
X165213512Y-75303927D01*
G37*
G36*
X162673512Y-75303927D02*
G01*
X162822812Y-75333624D01*
X162986784Y-75401544D01*
X163134354Y-75500147D01*
X163259853Y-75625646D01*
X163358456Y-75773216D01*
X163426376Y-75937188D01*
X163461000Y-76111259D01*
X163461000Y-76288741D01*
X163426376Y-76462812D01*
X163358456Y-76626784D01*
X163259853Y-76774354D01*
X163134354Y-76899853D01*
X162986784Y-76998456D01*
X162822812Y-77066376D01*
X162673512Y-77096073D01*
X162648742Y-77101000D01*
X162471258Y-77101000D01*
X162446488Y-77096073D01*
X162297188Y-77066376D01*
X162133216Y-76998456D01*
X161985646Y-76899853D01*
X161860147Y-76774354D01*
X161761544Y-76626784D01*
X161693624Y-76462812D01*
X161659000Y-76288741D01*
X161659000Y-76111259D01*
X161693624Y-75937188D01*
X161761544Y-75773216D01*
X161860147Y-75625646D01*
X161985646Y-75500147D01*
X162133216Y-75401544D01*
X162297188Y-75333624D01*
X162446488Y-75303927D01*
X162471258Y-75299000D01*
X162648742Y-75299000D01*
X162673512Y-75303927D01*
G37*
G36*
X167753512Y-75303927D02*
G01*
X167902812Y-75333624D01*
X168066784Y-75401544D01*
X168214354Y-75500147D01*
X168339853Y-75625646D01*
X168438456Y-75773216D01*
X168506376Y-75937188D01*
X168541000Y-76111259D01*
X168541000Y-76288741D01*
X168506376Y-76462812D01*
X168438456Y-76626784D01*
X168339853Y-76774354D01*
X168214354Y-76899853D01*
X168066784Y-76998456D01*
X167902812Y-77066376D01*
X167753512Y-77096073D01*
X167728742Y-77101000D01*
X167551258Y-77101000D01*
X167526488Y-77096073D01*
X167377188Y-77066376D01*
X167213216Y-76998456D01*
X167065646Y-76899853D01*
X166940147Y-76774354D01*
X166841544Y-76626784D01*
X166773624Y-76462812D01*
X166739000Y-76288741D01*
X166739000Y-76111259D01*
X166773624Y-75937188D01*
X166841544Y-75773216D01*
X166940147Y-75625646D01*
X167065646Y-75500147D01*
X167213216Y-75401544D01*
X167377188Y-75333624D01*
X167526488Y-75303927D01*
X167551258Y-75299000D01*
X167728742Y-75299000D01*
X167753512Y-75303927D01*
G37*
G36*
X180453512Y-75303927D02*
G01*
X180602812Y-75333624D01*
X180766784Y-75401544D01*
X180914354Y-75500147D01*
X181039853Y-75625646D01*
X181138456Y-75773216D01*
X181206376Y-75937188D01*
X181241000Y-76111259D01*
X181241000Y-76288741D01*
X181206376Y-76462812D01*
X181138456Y-76626784D01*
X181039853Y-76774354D01*
X180914354Y-76899853D01*
X180766784Y-76998456D01*
X180602812Y-77066376D01*
X180453512Y-77096073D01*
X180428742Y-77101000D01*
X180251258Y-77101000D01*
X180226488Y-77096073D01*
X180077188Y-77066376D01*
X179913216Y-76998456D01*
X179765646Y-76899853D01*
X179640147Y-76774354D01*
X179541544Y-76626784D01*
X179473624Y-76462812D01*
X179439000Y-76288741D01*
X179439000Y-76111259D01*
X179473624Y-75937188D01*
X179541544Y-75773216D01*
X179640147Y-75625646D01*
X179765646Y-75500147D01*
X179913216Y-75401544D01*
X180077188Y-75333624D01*
X180226488Y-75303927D01*
X180251258Y-75299000D01*
X180428742Y-75299000D01*
X180453512Y-75303927D01*
G37*
G36*
X177913512Y-75303927D02*
G01*
X178062812Y-75333624D01*
X178226784Y-75401544D01*
X178374354Y-75500147D01*
X178499853Y-75625646D01*
X178598456Y-75773216D01*
X178666376Y-75937188D01*
X178701000Y-76111259D01*
X178701000Y-76288741D01*
X178666376Y-76462812D01*
X178598456Y-76626784D01*
X178499853Y-76774354D01*
X178374354Y-76899853D01*
X178226784Y-76998456D01*
X178062812Y-77066376D01*
X177913512Y-77096073D01*
X177888742Y-77101000D01*
X177711258Y-77101000D01*
X177686488Y-77096073D01*
X177537188Y-77066376D01*
X177373216Y-76998456D01*
X177225646Y-76899853D01*
X177100147Y-76774354D01*
X177001544Y-76626784D01*
X176933624Y-76462812D01*
X176899000Y-76288741D01*
X176899000Y-76111259D01*
X176933624Y-75937188D01*
X177001544Y-75773216D01*
X177100147Y-75625646D01*
X177225646Y-75500147D01*
X177373216Y-75401544D01*
X177537188Y-75333624D01*
X177686488Y-75303927D01*
X177711258Y-75299000D01*
X177888742Y-75299000D01*
X177913512Y-75303927D01*
G37*
G36*
X170293512Y-75303927D02*
G01*
X170442812Y-75333624D01*
X170606784Y-75401544D01*
X170754354Y-75500147D01*
X170879853Y-75625646D01*
X170978456Y-75773216D01*
X171046376Y-75937188D01*
X171081000Y-76111259D01*
X171081000Y-76288741D01*
X171046376Y-76462812D01*
X170978456Y-76626784D01*
X170879853Y-76774354D01*
X170754354Y-76899853D01*
X170606784Y-76998456D01*
X170442812Y-77066376D01*
X170293512Y-77096073D01*
X170268742Y-77101000D01*
X170091258Y-77101000D01*
X170066488Y-77096073D01*
X169917188Y-77066376D01*
X169753216Y-76998456D01*
X169605646Y-76899853D01*
X169480147Y-76774354D01*
X169381544Y-76626784D01*
X169313624Y-76462812D01*
X169279000Y-76288741D01*
X169279000Y-76111259D01*
X169313624Y-75937188D01*
X169381544Y-75773216D01*
X169480147Y-75625646D01*
X169605646Y-75500147D01*
X169753216Y-75401544D01*
X169917188Y-75333624D01*
X170066488Y-75303927D01*
X170091258Y-75299000D01*
X170268742Y-75299000D01*
X170293512Y-75303927D01*
G37*
G36*
X205853512Y-75303927D02*
G01*
X206002812Y-75333624D01*
X206166784Y-75401544D01*
X206314354Y-75500147D01*
X206439853Y-75625646D01*
X206538456Y-75773216D01*
X206606376Y-75937188D01*
X206641000Y-76111259D01*
X206641000Y-76288741D01*
X206606376Y-76462812D01*
X206538456Y-76626784D01*
X206439853Y-76774354D01*
X206314354Y-76899853D01*
X206166784Y-76998456D01*
X206002812Y-77066376D01*
X205853512Y-77096073D01*
X205828742Y-77101000D01*
X205651258Y-77101000D01*
X205626488Y-77096073D01*
X205477188Y-77066376D01*
X205313216Y-76998456D01*
X205165646Y-76899853D01*
X205040147Y-76774354D01*
X204941544Y-76626784D01*
X204873624Y-76462812D01*
X204839000Y-76288741D01*
X204839000Y-76111259D01*
X204873624Y-75937188D01*
X204941544Y-75773216D01*
X205040147Y-75625646D01*
X205165646Y-75500147D01*
X205313216Y-75401544D01*
X205477188Y-75333624D01*
X205626488Y-75303927D01*
X205651258Y-75299000D01*
X205828742Y-75299000D01*
X205853512Y-75303927D01*
G37*
G36*
X175373512Y-75303927D02*
G01*
X175522812Y-75333624D01*
X175686784Y-75401544D01*
X175834354Y-75500147D01*
X175959853Y-75625646D01*
X176058456Y-75773216D01*
X176126376Y-75937188D01*
X176161000Y-76111259D01*
X176161000Y-76288741D01*
X176126376Y-76462812D01*
X176058456Y-76626784D01*
X175959853Y-76774354D01*
X175834354Y-76899853D01*
X175686784Y-76998456D01*
X175522812Y-77066376D01*
X175373512Y-77096073D01*
X175348742Y-77101000D01*
X175171258Y-77101000D01*
X175146488Y-77096073D01*
X174997188Y-77066376D01*
X174833216Y-76998456D01*
X174685646Y-76899853D01*
X174560147Y-76774354D01*
X174461544Y-76626784D01*
X174393624Y-76462812D01*
X174359000Y-76288741D01*
X174359000Y-76111259D01*
X174393624Y-75937188D01*
X174461544Y-75773216D01*
X174560147Y-75625646D01*
X174685646Y-75500147D01*
X174833216Y-75401544D01*
X174997188Y-75333624D01*
X175146488Y-75303927D01*
X175171258Y-75299000D01*
X175348742Y-75299000D01*
X175373512Y-75303927D01*
G37*
G36*
X172833512Y-75303927D02*
G01*
X172982812Y-75333624D01*
X173146784Y-75401544D01*
X173294354Y-75500147D01*
X173419853Y-75625646D01*
X173518456Y-75773216D01*
X173586376Y-75937188D01*
X173621000Y-76111259D01*
X173621000Y-76288741D01*
X173586376Y-76462812D01*
X173518456Y-76626784D01*
X173419853Y-76774354D01*
X173294354Y-76899853D01*
X173146784Y-76998456D01*
X172982812Y-77066376D01*
X172833512Y-77096073D01*
X172808742Y-77101000D01*
X172631258Y-77101000D01*
X172606488Y-77096073D01*
X172457188Y-77066376D01*
X172293216Y-76998456D01*
X172145646Y-76899853D01*
X172020147Y-76774354D01*
X171921544Y-76626784D01*
X171853624Y-76462812D01*
X171819000Y-76288741D01*
X171819000Y-76111259D01*
X171853624Y-75937188D01*
X171921544Y-75773216D01*
X172020147Y-75625646D01*
X172145646Y-75500147D01*
X172293216Y-75401544D01*
X172457188Y-75333624D01*
X172606488Y-75303927D01*
X172631258Y-75299000D01*
X172808742Y-75299000D01*
X172833512Y-75303927D01*
G37*
G36*
X185533512Y-75303927D02*
G01*
X185682812Y-75333624D01*
X185846784Y-75401544D01*
X185994354Y-75500147D01*
X186119853Y-75625646D01*
X186218456Y-75773216D01*
X186286376Y-75937188D01*
X186321000Y-76111259D01*
X186321000Y-76288741D01*
X186286376Y-76462812D01*
X186218456Y-76626784D01*
X186119853Y-76774354D01*
X185994354Y-76899853D01*
X185846784Y-76998456D01*
X185682812Y-77066376D01*
X185533512Y-77096073D01*
X185508742Y-77101000D01*
X185331258Y-77101000D01*
X185306488Y-77096073D01*
X185157188Y-77066376D01*
X184993216Y-76998456D01*
X184845646Y-76899853D01*
X184720147Y-76774354D01*
X184621544Y-76626784D01*
X184553624Y-76462812D01*
X184519000Y-76288741D01*
X184519000Y-76111259D01*
X184553624Y-75937188D01*
X184621544Y-75773216D01*
X184720147Y-75625646D01*
X184845646Y-75500147D01*
X184993216Y-75401544D01*
X185157188Y-75333624D01*
X185306488Y-75303927D01*
X185331258Y-75299000D01*
X185508742Y-75299000D01*
X185533512Y-75303927D01*
G37*
G36*
X182993512Y-75303927D02*
G01*
X183142812Y-75333624D01*
X183306784Y-75401544D01*
X183454354Y-75500147D01*
X183579853Y-75625646D01*
X183678456Y-75773216D01*
X183746376Y-75937188D01*
X183781000Y-76111259D01*
X183781000Y-76288741D01*
X183746376Y-76462812D01*
X183678456Y-76626784D01*
X183579853Y-76774354D01*
X183454354Y-76899853D01*
X183306784Y-76998456D01*
X183142812Y-77066376D01*
X182993512Y-77096073D01*
X182968742Y-77101000D01*
X182791258Y-77101000D01*
X182766488Y-77096073D01*
X182617188Y-77066376D01*
X182453216Y-76998456D01*
X182305646Y-76899853D01*
X182180147Y-76774354D01*
X182081544Y-76626784D01*
X182013624Y-76462812D01*
X181979000Y-76288741D01*
X181979000Y-76111259D01*
X182013624Y-75937188D01*
X182081544Y-75773216D01*
X182180147Y-75625646D01*
X182305646Y-75500147D01*
X182453216Y-75401544D01*
X182617188Y-75333624D01*
X182766488Y-75303927D01*
X182791258Y-75299000D01*
X182968742Y-75299000D01*
X182993512Y-75303927D01*
G37*
G36*
X188073512Y-75303927D02*
G01*
X188222812Y-75333624D01*
X188386784Y-75401544D01*
X188534354Y-75500147D01*
X188659853Y-75625646D01*
X188758456Y-75773216D01*
X188826376Y-75937188D01*
X188861000Y-76111259D01*
X188861000Y-76288741D01*
X188826376Y-76462812D01*
X188758456Y-76626784D01*
X188659853Y-76774354D01*
X188534354Y-76899853D01*
X188386784Y-76998456D01*
X188222812Y-77066376D01*
X188073512Y-77096073D01*
X188048742Y-77101000D01*
X187871258Y-77101000D01*
X187846488Y-77096073D01*
X187697188Y-77066376D01*
X187533216Y-76998456D01*
X187385646Y-76899853D01*
X187260147Y-76774354D01*
X187161544Y-76626784D01*
X187093624Y-76462812D01*
X187059000Y-76288741D01*
X187059000Y-76111259D01*
X187093624Y-75937188D01*
X187161544Y-75773216D01*
X187260147Y-75625646D01*
X187385646Y-75500147D01*
X187533216Y-75401544D01*
X187697188Y-75333624D01*
X187846488Y-75303927D01*
X187871258Y-75299000D01*
X188048742Y-75299000D01*
X188073512Y-75303927D01*
G37*
G36*
X198233512Y-75303927D02*
G01*
X198382812Y-75333624D01*
X198546784Y-75401544D01*
X198694354Y-75500147D01*
X198819853Y-75625646D01*
X198918456Y-75773216D01*
X198986376Y-75937188D01*
X199021000Y-76111259D01*
X199021000Y-76288741D01*
X198986376Y-76462812D01*
X198918456Y-76626784D01*
X198819853Y-76774354D01*
X198694354Y-76899853D01*
X198546784Y-76998456D01*
X198382812Y-77066376D01*
X198233512Y-77096073D01*
X198208742Y-77101000D01*
X198031258Y-77101000D01*
X198006488Y-77096073D01*
X197857188Y-77066376D01*
X197693216Y-76998456D01*
X197545646Y-76899853D01*
X197420147Y-76774354D01*
X197321544Y-76626784D01*
X197253624Y-76462812D01*
X197219000Y-76288741D01*
X197219000Y-76111259D01*
X197253624Y-75937188D01*
X197321544Y-75773216D01*
X197420147Y-75625646D01*
X197545646Y-75500147D01*
X197693216Y-75401544D01*
X197857188Y-75333624D01*
X198006488Y-75303927D01*
X198031258Y-75299000D01*
X198208742Y-75299000D01*
X198233512Y-75303927D01*
G37*
G36*
X200773512Y-75303927D02*
G01*
X200922812Y-75333624D01*
X201086784Y-75401544D01*
X201234354Y-75500147D01*
X201359853Y-75625646D01*
X201458456Y-75773216D01*
X201526376Y-75937188D01*
X201561000Y-76111259D01*
X201561000Y-76288741D01*
X201526376Y-76462812D01*
X201458456Y-76626784D01*
X201359853Y-76774354D01*
X201234354Y-76899853D01*
X201086784Y-76998456D01*
X200922812Y-77066376D01*
X200773512Y-77096073D01*
X200748742Y-77101000D01*
X200571258Y-77101000D01*
X200546488Y-77096073D01*
X200397188Y-77066376D01*
X200233216Y-76998456D01*
X200085646Y-76899853D01*
X199960147Y-76774354D01*
X199861544Y-76626784D01*
X199793624Y-76462812D01*
X199759000Y-76288741D01*
X199759000Y-76111259D01*
X199793624Y-75937188D01*
X199861544Y-75773216D01*
X199960147Y-75625646D01*
X200085646Y-75500147D01*
X200233216Y-75401544D01*
X200397188Y-75333624D01*
X200546488Y-75303927D01*
X200571258Y-75299000D01*
X200748742Y-75299000D01*
X200773512Y-75303927D01*
G37*
G36*
X195693512Y-75303927D02*
G01*
X195842812Y-75333624D01*
X196006784Y-75401544D01*
X196154354Y-75500147D01*
X196279853Y-75625646D01*
X196378456Y-75773216D01*
X196446376Y-75937188D01*
X196481000Y-76111259D01*
X196481000Y-76288741D01*
X196446376Y-76462812D01*
X196378456Y-76626784D01*
X196279853Y-76774354D01*
X196154354Y-76899853D01*
X196006784Y-76998456D01*
X195842812Y-77066376D01*
X195693512Y-77096073D01*
X195668742Y-77101000D01*
X195491258Y-77101000D01*
X195466488Y-77096073D01*
X195317188Y-77066376D01*
X195153216Y-76998456D01*
X195005646Y-76899853D01*
X194880147Y-76774354D01*
X194781544Y-76626784D01*
X194713624Y-76462812D01*
X194679000Y-76288741D01*
X194679000Y-76111259D01*
X194713624Y-75937188D01*
X194781544Y-75773216D01*
X194880147Y-75625646D01*
X195005646Y-75500147D01*
X195153216Y-75401544D01*
X195317188Y-75333624D01*
X195466488Y-75303927D01*
X195491258Y-75299000D01*
X195668742Y-75299000D01*
X195693512Y-75303927D01*
G37*
G36*
X193153512Y-75303927D02*
G01*
X193302812Y-75333624D01*
X193466784Y-75401544D01*
X193614354Y-75500147D01*
X193739853Y-75625646D01*
X193838456Y-75773216D01*
X193906376Y-75937188D01*
X193941000Y-76111259D01*
X193941000Y-76288741D01*
X193906376Y-76462812D01*
X193838456Y-76626784D01*
X193739853Y-76774354D01*
X193614354Y-76899853D01*
X193466784Y-76998456D01*
X193302812Y-77066376D01*
X193153512Y-77096073D01*
X193128742Y-77101000D01*
X192951258Y-77101000D01*
X192926488Y-77096073D01*
X192777188Y-77066376D01*
X192613216Y-76998456D01*
X192465646Y-76899853D01*
X192340147Y-76774354D01*
X192241544Y-76626784D01*
X192173624Y-76462812D01*
X192139000Y-76288741D01*
X192139000Y-76111259D01*
X192173624Y-75937188D01*
X192241544Y-75773216D01*
X192340147Y-75625646D01*
X192465646Y-75500147D01*
X192613216Y-75401544D01*
X192777188Y-75333624D01*
X192926488Y-75303927D01*
X192951258Y-75299000D01*
X193128742Y-75299000D01*
X193153512Y-75303927D01*
G37*
G36*
X203313512Y-75303927D02*
G01*
X203462812Y-75333624D01*
X203626784Y-75401544D01*
X203774354Y-75500147D01*
X203899853Y-75625646D01*
X203998456Y-75773216D01*
X204066376Y-75937188D01*
X204101000Y-76111259D01*
X204101000Y-76288741D01*
X204066376Y-76462812D01*
X203998456Y-76626784D01*
X203899853Y-76774354D01*
X203774354Y-76899853D01*
X203626784Y-76998456D01*
X203462812Y-77066376D01*
X203313512Y-77096073D01*
X203288742Y-77101000D01*
X203111258Y-77101000D01*
X203086488Y-77096073D01*
X202937188Y-77066376D01*
X202773216Y-76998456D01*
X202625646Y-76899853D01*
X202500147Y-76774354D01*
X202401544Y-76626784D01*
X202333624Y-76462812D01*
X202299000Y-76288741D01*
X202299000Y-76111259D01*
X202333624Y-75937188D01*
X202401544Y-75773216D01*
X202500147Y-75625646D01*
X202625646Y-75500147D01*
X202773216Y-75401544D01*
X202937188Y-75333624D01*
X203086488Y-75303927D01*
X203111258Y-75299000D01*
X203288742Y-75299000D01*
X203313512Y-75303927D01*
G37*
G36*
X190613512Y-75303927D02*
G01*
X190762812Y-75333624D01*
X190926784Y-75401544D01*
X191074354Y-75500147D01*
X191199853Y-75625646D01*
X191298456Y-75773216D01*
X191366376Y-75937188D01*
X191401000Y-76111259D01*
X191401000Y-76288741D01*
X191366376Y-76462812D01*
X191298456Y-76626784D01*
X191199853Y-76774354D01*
X191074354Y-76899853D01*
X190926784Y-76998456D01*
X190762812Y-77066376D01*
X190613512Y-77096073D01*
X190588742Y-77101000D01*
X190411258Y-77101000D01*
X190386488Y-77096073D01*
X190237188Y-77066376D01*
X190073216Y-76998456D01*
X189925646Y-76899853D01*
X189800147Y-76774354D01*
X189701544Y-76626784D01*
X189633624Y-76462812D01*
X189599000Y-76288741D01*
X189599000Y-76111259D01*
X189633624Y-75937188D01*
X189701544Y-75773216D01*
X189800147Y-75625646D01*
X189925646Y-75500147D01*
X190073216Y-75401544D01*
X190237188Y-75333624D01*
X190386488Y-75303927D01*
X190411258Y-75299000D01*
X190588742Y-75299000D01*
X190613512Y-75303927D01*
G37*
G36*
X208393512Y-75303927D02*
G01*
X208542812Y-75333624D01*
X208706784Y-75401544D01*
X208854354Y-75500147D01*
X208979853Y-75625646D01*
X209078456Y-75773216D01*
X209146376Y-75937188D01*
X209181000Y-76111259D01*
X209181000Y-76288741D01*
X209146376Y-76462812D01*
X209078456Y-76626784D01*
X208979853Y-76774354D01*
X208854354Y-76899853D01*
X208706784Y-76998456D01*
X208542812Y-77066376D01*
X208393512Y-77096073D01*
X208368742Y-77101000D01*
X208191258Y-77101000D01*
X208166488Y-77096073D01*
X208017188Y-77066376D01*
X207853216Y-76998456D01*
X207705646Y-76899853D01*
X207580147Y-76774354D01*
X207481544Y-76626784D01*
X207413624Y-76462812D01*
X207379000Y-76288741D01*
X207379000Y-76111259D01*
X207413624Y-75937188D01*
X207481544Y-75773216D01*
X207580147Y-75625646D01*
X207705646Y-75500147D01*
X207853216Y-75401544D01*
X208017188Y-75333624D01*
X208166488Y-75303927D01*
X208191258Y-75299000D01*
X208368742Y-75299000D01*
X208393512Y-75303927D01*
G37*
G36*
X208393512Y-72763927D02*
G01*
X208542812Y-72793624D01*
X208706784Y-72861544D01*
X208854354Y-72960147D01*
X208979853Y-73085646D01*
X209078456Y-73233216D01*
X209146376Y-73397188D01*
X209181000Y-73571259D01*
X209181000Y-73748741D01*
X209146376Y-73922812D01*
X209078456Y-74086784D01*
X208979853Y-74234354D01*
X208854354Y-74359853D01*
X208706784Y-74458456D01*
X208542812Y-74526376D01*
X208393512Y-74556073D01*
X208368742Y-74561000D01*
X208191258Y-74561000D01*
X208166488Y-74556073D01*
X208017188Y-74526376D01*
X207853216Y-74458456D01*
X207705646Y-74359853D01*
X207580147Y-74234354D01*
X207481544Y-74086784D01*
X207413624Y-73922812D01*
X207379000Y-73748741D01*
X207379000Y-73571259D01*
X207413624Y-73397188D01*
X207481544Y-73233216D01*
X207580147Y-73085646D01*
X207705646Y-72960147D01*
X207853216Y-72861544D01*
X208017188Y-72793624D01*
X208166488Y-72763927D01*
X208191258Y-72759000D01*
X208368742Y-72759000D01*
X208393512Y-72763927D01*
G37*
G36*
X165213512Y-72763927D02*
G01*
X165362812Y-72793624D01*
X165526784Y-72861544D01*
X165674354Y-72960147D01*
X165799853Y-73085646D01*
X165898456Y-73233216D01*
X165966376Y-73397188D01*
X166001000Y-73571259D01*
X166001000Y-73748741D01*
X165966376Y-73922812D01*
X165898456Y-74086784D01*
X165799853Y-74234354D01*
X165674354Y-74359853D01*
X165526784Y-74458456D01*
X165362812Y-74526376D01*
X165213512Y-74556073D01*
X165188742Y-74561000D01*
X165011258Y-74561000D01*
X164986488Y-74556073D01*
X164837188Y-74526376D01*
X164673216Y-74458456D01*
X164525646Y-74359853D01*
X164400147Y-74234354D01*
X164301544Y-74086784D01*
X164233624Y-73922812D01*
X164199000Y-73748741D01*
X164199000Y-73571259D01*
X164233624Y-73397188D01*
X164301544Y-73233216D01*
X164400147Y-73085646D01*
X164525646Y-72960147D01*
X164673216Y-72861544D01*
X164837188Y-72793624D01*
X164986488Y-72763927D01*
X165011258Y-72759000D01*
X165188742Y-72759000D01*
X165213512Y-72763927D01*
G37*
G36*
X167753512Y-72763927D02*
G01*
X167902812Y-72793624D01*
X168066784Y-72861544D01*
X168214354Y-72960147D01*
X168339853Y-73085646D01*
X168438456Y-73233216D01*
X168506376Y-73397188D01*
X168541000Y-73571259D01*
X168541000Y-73748741D01*
X168506376Y-73922812D01*
X168438456Y-74086784D01*
X168339853Y-74234354D01*
X168214354Y-74359853D01*
X168066784Y-74458456D01*
X167902812Y-74526376D01*
X167753512Y-74556073D01*
X167728742Y-74561000D01*
X167551258Y-74561000D01*
X167526488Y-74556073D01*
X167377188Y-74526376D01*
X167213216Y-74458456D01*
X167065646Y-74359853D01*
X166940147Y-74234354D01*
X166841544Y-74086784D01*
X166773624Y-73922812D01*
X166739000Y-73748741D01*
X166739000Y-73571259D01*
X166773624Y-73397188D01*
X166841544Y-73233216D01*
X166940147Y-73085646D01*
X167065646Y-72960147D01*
X167213216Y-72861544D01*
X167377188Y-72793624D01*
X167526488Y-72763927D01*
X167551258Y-72759000D01*
X167728742Y-72759000D01*
X167753512Y-72763927D01*
G37*
G36*
X170293512Y-72763927D02*
G01*
X170442812Y-72793624D01*
X170606784Y-72861544D01*
X170754354Y-72960147D01*
X170879853Y-73085646D01*
X170978456Y-73233216D01*
X171046376Y-73397188D01*
X171081000Y-73571259D01*
X171081000Y-73748741D01*
X171046376Y-73922812D01*
X170978456Y-74086784D01*
X170879853Y-74234354D01*
X170754354Y-74359853D01*
X170606784Y-74458456D01*
X170442812Y-74526376D01*
X170293512Y-74556073D01*
X170268742Y-74561000D01*
X170091258Y-74561000D01*
X170066488Y-74556073D01*
X169917188Y-74526376D01*
X169753216Y-74458456D01*
X169605646Y-74359853D01*
X169480147Y-74234354D01*
X169381544Y-74086784D01*
X169313624Y-73922812D01*
X169279000Y-73748741D01*
X169279000Y-73571259D01*
X169313624Y-73397188D01*
X169381544Y-73233216D01*
X169480147Y-73085646D01*
X169605646Y-72960147D01*
X169753216Y-72861544D01*
X169917188Y-72793624D01*
X170066488Y-72763927D01*
X170091258Y-72759000D01*
X170268742Y-72759000D01*
X170293512Y-72763927D01*
G37*
G36*
X162673512Y-72763927D02*
G01*
X162822812Y-72793624D01*
X162986784Y-72861544D01*
X163134354Y-72960147D01*
X163259853Y-73085646D01*
X163358456Y-73233216D01*
X163426376Y-73397188D01*
X163461000Y-73571259D01*
X163461000Y-73748741D01*
X163426376Y-73922812D01*
X163358456Y-74086784D01*
X163259853Y-74234354D01*
X163134354Y-74359853D01*
X162986784Y-74458456D01*
X162822812Y-74526376D01*
X162673512Y-74556073D01*
X162648742Y-74561000D01*
X162471258Y-74561000D01*
X162446488Y-74556073D01*
X162297188Y-74526376D01*
X162133216Y-74458456D01*
X161985646Y-74359853D01*
X161860147Y-74234354D01*
X161761544Y-74086784D01*
X161693624Y-73922812D01*
X161659000Y-73748741D01*
X161659000Y-73571259D01*
X161693624Y-73397188D01*
X161761544Y-73233216D01*
X161860147Y-73085646D01*
X161985646Y-72960147D01*
X162133216Y-72861544D01*
X162297188Y-72793624D01*
X162446488Y-72763927D01*
X162471258Y-72759000D01*
X162648742Y-72759000D01*
X162673512Y-72763927D01*
G37*
G36*
X160133512Y-72763927D02*
G01*
X160282812Y-72793624D01*
X160446784Y-72861544D01*
X160594354Y-72960147D01*
X160719853Y-73085646D01*
X160818456Y-73233216D01*
X160886376Y-73397188D01*
X160921000Y-73571259D01*
X160921000Y-73748741D01*
X160886376Y-73922812D01*
X160818456Y-74086784D01*
X160719853Y-74234354D01*
X160594354Y-74359853D01*
X160446784Y-74458456D01*
X160282812Y-74526376D01*
X160133512Y-74556073D01*
X160108742Y-74561000D01*
X159931258Y-74561000D01*
X159906488Y-74556073D01*
X159757188Y-74526376D01*
X159593216Y-74458456D01*
X159445646Y-74359853D01*
X159320147Y-74234354D01*
X159221544Y-74086784D01*
X159153624Y-73922812D01*
X159119000Y-73748741D01*
X159119000Y-73571259D01*
X159153624Y-73397188D01*
X159221544Y-73233216D01*
X159320147Y-73085646D01*
X159445646Y-72960147D01*
X159593216Y-72861544D01*
X159757188Y-72793624D01*
X159906488Y-72763927D01*
X159931258Y-72759000D01*
X160108742Y-72759000D01*
X160133512Y-72763927D01*
G37*
G36*
X198233512Y-72763927D02*
G01*
X198382812Y-72793624D01*
X198546784Y-72861544D01*
X198694354Y-72960147D01*
X198819853Y-73085646D01*
X198918456Y-73233216D01*
X198986376Y-73397188D01*
X199021000Y-73571259D01*
X199021000Y-73748741D01*
X198986376Y-73922812D01*
X198918456Y-74086784D01*
X198819853Y-74234354D01*
X198694354Y-74359853D01*
X198546784Y-74458456D01*
X198382812Y-74526376D01*
X198233512Y-74556073D01*
X198208742Y-74561000D01*
X198031258Y-74561000D01*
X198006488Y-74556073D01*
X197857188Y-74526376D01*
X197693216Y-74458456D01*
X197545646Y-74359853D01*
X197420147Y-74234354D01*
X197321544Y-74086784D01*
X197253624Y-73922812D01*
X197219000Y-73748741D01*
X197219000Y-73571259D01*
X197253624Y-73397188D01*
X197321544Y-73233216D01*
X197420147Y-73085646D01*
X197545646Y-72960147D01*
X197693216Y-72861544D01*
X197857188Y-72793624D01*
X198006488Y-72763927D01*
X198031258Y-72759000D01*
X198208742Y-72759000D01*
X198233512Y-72763927D01*
G37*
G36*
X205853512Y-72763927D02*
G01*
X206002812Y-72793624D01*
X206166784Y-72861544D01*
X206314354Y-72960147D01*
X206439853Y-73085646D01*
X206538456Y-73233216D01*
X206606376Y-73397188D01*
X206641000Y-73571259D01*
X206641000Y-73748741D01*
X206606376Y-73922812D01*
X206538456Y-74086784D01*
X206439853Y-74234354D01*
X206314354Y-74359853D01*
X206166784Y-74458456D01*
X206002812Y-74526376D01*
X205853512Y-74556073D01*
X205828742Y-74561000D01*
X205651258Y-74561000D01*
X205626488Y-74556073D01*
X205477188Y-74526376D01*
X205313216Y-74458456D01*
X205165646Y-74359853D01*
X205040147Y-74234354D01*
X204941544Y-74086784D01*
X204873624Y-73922812D01*
X204839000Y-73748741D01*
X204839000Y-73571259D01*
X204873624Y-73397188D01*
X204941544Y-73233216D01*
X205040147Y-73085646D01*
X205165646Y-72960147D01*
X205313216Y-72861544D01*
X205477188Y-72793624D01*
X205626488Y-72763927D01*
X205651258Y-72759000D01*
X205828742Y-72759000D01*
X205853512Y-72763927D01*
G37*
G36*
X172833512Y-72763927D02*
G01*
X172982812Y-72793624D01*
X173146784Y-72861544D01*
X173294354Y-72960147D01*
X173419853Y-73085646D01*
X173518456Y-73233216D01*
X173586376Y-73397188D01*
X173621000Y-73571259D01*
X173621000Y-73748741D01*
X173586376Y-73922812D01*
X173518456Y-74086784D01*
X173419853Y-74234354D01*
X173294354Y-74359853D01*
X173146784Y-74458456D01*
X172982812Y-74526376D01*
X172833512Y-74556073D01*
X172808742Y-74561000D01*
X172631258Y-74561000D01*
X172606488Y-74556073D01*
X172457188Y-74526376D01*
X172293216Y-74458456D01*
X172145646Y-74359853D01*
X172020147Y-74234354D01*
X171921544Y-74086784D01*
X171853624Y-73922812D01*
X171819000Y-73748741D01*
X171819000Y-73571259D01*
X171853624Y-73397188D01*
X171921544Y-73233216D01*
X172020147Y-73085646D01*
X172145646Y-72960147D01*
X172293216Y-72861544D01*
X172457188Y-72793624D01*
X172606488Y-72763927D01*
X172631258Y-72759000D01*
X172808742Y-72759000D01*
X172833512Y-72763927D01*
G37*
G36*
X175373512Y-72763927D02*
G01*
X175522812Y-72793624D01*
X175686784Y-72861544D01*
X175834354Y-72960147D01*
X175959853Y-73085646D01*
X176058456Y-73233216D01*
X176126376Y-73397188D01*
X176161000Y-73571259D01*
X176161000Y-73748741D01*
X176126376Y-73922812D01*
X176058456Y-74086784D01*
X175959853Y-74234354D01*
X175834354Y-74359853D01*
X175686784Y-74458456D01*
X175522812Y-74526376D01*
X175373512Y-74556073D01*
X175348742Y-74561000D01*
X175171258Y-74561000D01*
X175146488Y-74556073D01*
X174997188Y-74526376D01*
X174833216Y-74458456D01*
X174685646Y-74359853D01*
X174560147Y-74234354D01*
X174461544Y-74086784D01*
X174393624Y-73922812D01*
X174359000Y-73748741D01*
X174359000Y-73571259D01*
X174393624Y-73397188D01*
X174461544Y-73233216D01*
X174560147Y-73085646D01*
X174685646Y-72960147D01*
X174833216Y-72861544D01*
X174997188Y-72793624D01*
X175146488Y-72763927D01*
X175171258Y-72759000D01*
X175348742Y-72759000D01*
X175373512Y-72763927D01*
G37*
G36*
X193153512Y-72763927D02*
G01*
X193302812Y-72793624D01*
X193466784Y-72861544D01*
X193614354Y-72960147D01*
X193739853Y-73085646D01*
X193838456Y-73233216D01*
X193906376Y-73397188D01*
X193941000Y-73571259D01*
X193941000Y-73748741D01*
X193906376Y-73922812D01*
X193838456Y-74086784D01*
X193739853Y-74234354D01*
X193614354Y-74359853D01*
X193466784Y-74458456D01*
X193302812Y-74526376D01*
X193153512Y-74556073D01*
X193128742Y-74561000D01*
X192951258Y-74561000D01*
X192926488Y-74556073D01*
X192777188Y-74526376D01*
X192613216Y-74458456D01*
X192465646Y-74359853D01*
X192340147Y-74234354D01*
X192241544Y-74086784D01*
X192173624Y-73922812D01*
X192139000Y-73748741D01*
X192139000Y-73571259D01*
X192173624Y-73397188D01*
X192241544Y-73233216D01*
X192340147Y-73085646D01*
X192465646Y-72960147D01*
X192613216Y-72861544D01*
X192777188Y-72793624D01*
X192926488Y-72763927D01*
X192951258Y-72759000D01*
X193128742Y-72759000D01*
X193153512Y-72763927D01*
G37*
G36*
X190613512Y-72763927D02*
G01*
X190762812Y-72793624D01*
X190926784Y-72861544D01*
X191074354Y-72960147D01*
X191199853Y-73085646D01*
X191298456Y-73233216D01*
X191366376Y-73397188D01*
X191401000Y-73571259D01*
X191401000Y-73748741D01*
X191366376Y-73922812D01*
X191298456Y-74086784D01*
X191199853Y-74234354D01*
X191074354Y-74359853D01*
X190926784Y-74458456D01*
X190762812Y-74526376D01*
X190613512Y-74556073D01*
X190588742Y-74561000D01*
X190411258Y-74561000D01*
X190386488Y-74556073D01*
X190237188Y-74526376D01*
X190073216Y-74458456D01*
X189925646Y-74359853D01*
X189800147Y-74234354D01*
X189701544Y-74086784D01*
X189633624Y-73922812D01*
X189599000Y-73748741D01*
X189599000Y-73571259D01*
X189633624Y-73397188D01*
X189701544Y-73233216D01*
X189800147Y-73085646D01*
X189925646Y-72960147D01*
X190073216Y-72861544D01*
X190237188Y-72793624D01*
X190386488Y-72763927D01*
X190411258Y-72759000D01*
X190588742Y-72759000D01*
X190613512Y-72763927D01*
G37*
G36*
X185533512Y-72763927D02*
G01*
X185682812Y-72793624D01*
X185846784Y-72861544D01*
X185994354Y-72960147D01*
X186119853Y-73085646D01*
X186218456Y-73233216D01*
X186286376Y-73397188D01*
X186321000Y-73571259D01*
X186321000Y-73748741D01*
X186286376Y-73922812D01*
X186218456Y-74086784D01*
X186119853Y-74234354D01*
X185994354Y-74359853D01*
X185846784Y-74458456D01*
X185682812Y-74526376D01*
X185533512Y-74556073D01*
X185508742Y-74561000D01*
X185331258Y-74561000D01*
X185306488Y-74556073D01*
X185157188Y-74526376D01*
X184993216Y-74458456D01*
X184845646Y-74359853D01*
X184720147Y-74234354D01*
X184621544Y-74086784D01*
X184553624Y-73922812D01*
X184519000Y-73748741D01*
X184519000Y-73571259D01*
X184553624Y-73397188D01*
X184621544Y-73233216D01*
X184720147Y-73085646D01*
X184845646Y-72960147D01*
X184993216Y-72861544D01*
X185157188Y-72793624D01*
X185306488Y-72763927D01*
X185331258Y-72759000D01*
X185508742Y-72759000D01*
X185533512Y-72763927D01*
G37*
G36*
X182993512Y-72763927D02*
G01*
X183142812Y-72793624D01*
X183306784Y-72861544D01*
X183454354Y-72960147D01*
X183579853Y-73085646D01*
X183678456Y-73233216D01*
X183746376Y-73397188D01*
X183781000Y-73571259D01*
X183781000Y-73748741D01*
X183746376Y-73922812D01*
X183678456Y-74086784D01*
X183579853Y-74234354D01*
X183454354Y-74359853D01*
X183306784Y-74458456D01*
X183142812Y-74526376D01*
X182993512Y-74556073D01*
X182968742Y-74561000D01*
X182791258Y-74561000D01*
X182766488Y-74556073D01*
X182617188Y-74526376D01*
X182453216Y-74458456D01*
X182305646Y-74359853D01*
X182180147Y-74234354D01*
X182081544Y-74086784D01*
X182013624Y-73922812D01*
X181979000Y-73748741D01*
X181979000Y-73571259D01*
X182013624Y-73397188D01*
X182081544Y-73233216D01*
X182180147Y-73085646D01*
X182305646Y-72960147D01*
X182453216Y-72861544D01*
X182617188Y-72793624D01*
X182766488Y-72763927D01*
X182791258Y-72759000D01*
X182968742Y-72759000D01*
X182993512Y-72763927D01*
G37*
G36*
X180453512Y-72763927D02*
G01*
X180602812Y-72793624D01*
X180766784Y-72861544D01*
X180914354Y-72960147D01*
X181039853Y-73085646D01*
X181138456Y-73233216D01*
X181206376Y-73397188D01*
X181241000Y-73571259D01*
X181241000Y-73748741D01*
X181206376Y-73922812D01*
X181138456Y-74086784D01*
X181039853Y-74234354D01*
X180914354Y-74359853D01*
X180766784Y-74458456D01*
X180602812Y-74526376D01*
X180453512Y-74556073D01*
X180428742Y-74561000D01*
X180251258Y-74561000D01*
X180226488Y-74556073D01*
X180077188Y-74526376D01*
X179913216Y-74458456D01*
X179765646Y-74359853D01*
X179640147Y-74234354D01*
X179541544Y-74086784D01*
X179473624Y-73922812D01*
X179439000Y-73748741D01*
X179439000Y-73571259D01*
X179473624Y-73397188D01*
X179541544Y-73233216D01*
X179640147Y-73085646D01*
X179765646Y-72960147D01*
X179913216Y-72861544D01*
X180077188Y-72793624D01*
X180226488Y-72763927D01*
X180251258Y-72759000D01*
X180428742Y-72759000D01*
X180453512Y-72763927D01*
G37*
G36*
X200773512Y-72763927D02*
G01*
X200922812Y-72793624D01*
X201086784Y-72861544D01*
X201234354Y-72960147D01*
X201359853Y-73085646D01*
X201458456Y-73233216D01*
X201526376Y-73397188D01*
X201561000Y-73571259D01*
X201561000Y-73748741D01*
X201526376Y-73922812D01*
X201458456Y-74086784D01*
X201359853Y-74234354D01*
X201234354Y-74359853D01*
X201086784Y-74458456D01*
X200922812Y-74526376D01*
X200773512Y-74556073D01*
X200748742Y-74561000D01*
X200571258Y-74561000D01*
X200546488Y-74556073D01*
X200397188Y-74526376D01*
X200233216Y-74458456D01*
X200085646Y-74359853D01*
X199960147Y-74234354D01*
X199861544Y-74086784D01*
X199793624Y-73922812D01*
X199759000Y-73748741D01*
X199759000Y-73571259D01*
X199793624Y-73397188D01*
X199861544Y-73233216D01*
X199960147Y-73085646D01*
X200085646Y-72960147D01*
X200233216Y-72861544D01*
X200397188Y-72793624D01*
X200546488Y-72763927D01*
X200571258Y-72759000D01*
X200748742Y-72759000D01*
X200773512Y-72763927D01*
G37*
G36*
X203313512Y-72763927D02*
G01*
X203462812Y-72793624D01*
X203626784Y-72861544D01*
X203774354Y-72960147D01*
X203899853Y-73085646D01*
X203998456Y-73233216D01*
X204066376Y-73397188D01*
X204101000Y-73571259D01*
X204101000Y-73748741D01*
X204066376Y-73922812D01*
X203998456Y-74086784D01*
X203899853Y-74234354D01*
X203774354Y-74359853D01*
X203626784Y-74458456D01*
X203462812Y-74526376D01*
X203313512Y-74556073D01*
X203288742Y-74561000D01*
X203111258Y-74561000D01*
X203086488Y-74556073D01*
X202937188Y-74526376D01*
X202773216Y-74458456D01*
X202625646Y-74359853D01*
X202500147Y-74234354D01*
X202401544Y-74086784D01*
X202333624Y-73922812D01*
X202299000Y-73748741D01*
X202299000Y-73571259D01*
X202333624Y-73397188D01*
X202401544Y-73233216D01*
X202500147Y-73085646D01*
X202625646Y-72960147D01*
X202773216Y-72861544D01*
X202937188Y-72793624D01*
X203086488Y-72763927D01*
X203111258Y-72759000D01*
X203288742Y-72759000D01*
X203313512Y-72763927D01*
G37*
G36*
X188073512Y-72763927D02*
G01*
X188222812Y-72793624D01*
X188386784Y-72861544D01*
X188534354Y-72960147D01*
X188659853Y-73085646D01*
X188758456Y-73233216D01*
X188826376Y-73397188D01*
X188861000Y-73571259D01*
X188861000Y-73748741D01*
X188826376Y-73922812D01*
X188758456Y-74086784D01*
X188659853Y-74234354D01*
X188534354Y-74359853D01*
X188386784Y-74458456D01*
X188222812Y-74526376D01*
X188073512Y-74556073D01*
X188048742Y-74561000D01*
X187871258Y-74561000D01*
X187846488Y-74556073D01*
X187697188Y-74526376D01*
X187533216Y-74458456D01*
X187385646Y-74359853D01*
X187260147Y-74234354D01*
X187161544Y-74086784D01*
X187093624Y-73922812D01*
X187059000Y-73748741D01*
X187059000Y-73571259D01*
X187093624Y-73397188D01*
X187161544Y-73233216D01*
X187260147Y-73085646D01*
X187385646Y-72960147D01*
X187533216Y-72861544D01*
X187697188Y-72793624D01*
X187846488Y-72763927D01*
X187871258Y-72759000D01*
X188048742Y-72759000D01*
X188073512Y-72763927D01*
G37*
G36*
X177913512Y-72763927D02*
G01*
X178062812Y-72793624D01*
X178226784Y-72861544D01*
X178374354Y-72960147D01*
X178499853Y-73085646D01*
X178598456Y-73233216D01*
X178666376Y-73397188D01*
X178701000Y-73571259D01*
X178701000Y-73748741D01*
X178666376Y-73922812D01*
X178598456Y-74086784D01*
X178499853Y-74234354D01*
X178374354Y-74359853D01*
X178226784Y-74458456D01*
X178062812Y-74526376D01*
X177913512Y-74556073D01*
X177888742Y-74561000D01*
X177711258Y-74561000D01*
X177686488Y-74556073D01*
X177537188Y-74526376D01*
X177373216Y-74458456D01*
X177225646Y-74359853D01*
X177100147Y-74234354D01*
X177001544Y-74086784D01*
X176933624Y-73922812D01*
X176899000Y-73748741D01*
X176899000Y-73571259D01*
X176933624Y-73397188D01*
X177001544Y-73233216D01*
X177100147Y-73085646D01*
X177225646Y-72960147D01*
X177373216Y-72861544D01*
X177537188Y-72793624D01*
X177686488Y-72763927D01*
X177711258Y-72759000D01*
X177888742Y-72759000D01*
X177913512Y-72763927D01*
G37*
G36*
X195693512Y-72763927D02*
G01*
X195842812Y-72793624D01*
X196006784Y-72861544D01*
X196154354Y-72960147D01*
X196279853Y-73085646D01*
X196378456Y-73233216D01*
X196446376Y-73397188D01*
X196481000Y-73571259D01*
X196481000Y-73748741D01*
X196446376Y-73922812D01*
X196378456Y-74086784D01*
X196279853Y-74234354D01*
X196154354Y-74359853D01*
X196006784Y-74458456D01*
X195842812Y-74526376D01*
X195693512Y-74556073D01*
X195668742Y-74561000D01*
X195491258Y-74561000D01*
X195466488Y-74556073D01*
X195317188Y-74526376D01*
X195153216Y-74458456D01*
X195005646Y-74359853D01*
X194880147Y-74234354D01*
X194781544Y-74086784D01*
X194713624Y-73922812D01*
X194679000Y-73748741D01*
X194679000Y-73571259D01*
X194713624Y-73397188D01*
X194781544Y-73233216D01*
X194880147Y-73085646D01*
X195005646Y-72960147D01*
X195153216Y-72861544D01*
X195317188Y-72793624D01*
X195466488Y-72763927D01*
X195491258Y-72759000D01*
X195668742Y-72759000D01*
X195693512Y-72763927D01*
G37*
G36*
X160133512Y-70223927D02*
G01*
X160282812Y-70253624D01*
X160446784Y-70321544D01*
X160594354Y-70420147D01*
X160719853Y-70545646D01*
X160818456Y-70693216D01*
X160886376Y-70857188D01*
X160921000Y-71031259D01*
X160921000Y-71208741D01*
X160886376Y-71382812D01*
X160818456Y-71546784D01*
X160719853Y-71694354D01*
X160594354Y-71819853D01*
X160446784Y-71918456D01*
X160282812Y-71986376D01*
X160133512Y-72016073D01*
X160108742Y-72021000D01*
X159931258Y-72021000D01*
X159906488Y-72016073D01*
X159757188Y-71986376D01*
X159593216Y-71918456D01*
X159445646Y-71819853D01*
X159320147Y-71694354D01*
X159221544Y-71546784D01*
X159153624Y-71382812D01*
X159119000Y-71208741D01*
X159119000Y-71031259D01*
X159153624Y-70857188D01*
X159221544Y-70693216D01*
X159320147Y-70545646D01*
X159445646Y-70420147D01*
X159593216Y-70321544D01*
X159757188Y-70253624D01*
X159906488Y-70223927D01*
X159931258Y-70219000D01*
X160108742Y-70219000D01*
X160133512Y-70223927D01*
G37*
G36*
X162673512Y-70223927D02*
G01*
X162822812Y-70253624D01*
X162986784Y-70321544D01*
X163134354Y-70420147D01*
X163259853Y-70545646D01*
X163358456Y-70693216D01*
X163426376Y-70857188D01*
X163461000Y-71031259D01*
X163461000Y-71208741D01*
X163426376Y-71382812D01*
X163358456Y-71546784D01*
X163259853Y-71694354D01*
X163134354Y-71819853D01*
X162986784Y-71918456D01*
X162822812Y-71986376D01*
X162673512Y-72016073D01*
X162648742Y-72021000D01*
X162471258Y-72021000D01*
X162446488Y-72016073D01*
X162297188Y-71986376D01*
X162133216Y-71918456D01*
X161985646Y-71819853D01*
X161860147Y-71694354D01*
X161761544Y-71546784D01*
X161693624Y-71382812D01*
X161659000Y-71208741D01*
X161659000Y-71031259D01*
X161693624Y-70857188D01*
X161761544Y-70693216D01*
X161860147Y-70545646D01*
X161985646Y-70420147D01*
X162133216Y-70321544D01*
X162297188Y-70253624D01*
X162446488Y-70223927D01*
X162471258Y-70219000D01*
X162648742Y-70219000D01*
X162673512Y-70223927D01*
G37*
G36*
X165213512Y-70223927D02*
G01*
X165362812Y-70253624D01*
X165526784Y-70321544D01*
X165674354Y-70420147D01*
X165799853Y-70545646D01*
X165898456Y-70693216D01*
X165966376Y-70857188D01*
X166001000Y-71031259D01*
X166001000Y-71208741D01*
X165966376Y-71382812D01*
X165898456Y-71546784D01*
X165799853Y-71694354D01*
X165674354Y-71819853D01*
X165526784Y-71918456D01*
X165362812Y-71986376D01*
X165213512Y-72016073D01*
X165188742Y-72021000D01*
X165011258Y-72021000D01*
X164986488Y-72016073D01*
X164837188Y-71986376D01*
X164673216Y-71918456D01*
X164525646Y-71819853D01*
X164400147Y-71694354D01*
X164301544Y-71546784D01*
X164233624Y-71382812D01*
X164199000Y-71208741D01*
X164199000Y-71031259D01*
X164233624Y-70857188D01*
X164301544Y-70693216D01*
X164400147Y-70545646D01*
X164525646Y-70420147D01*
X164673216Y-70321544D01*
X164837188Y-70253624D01*
X164986488Y-70223927D01*
X165011258Y-70219000D01*
X165188742Y-70219000D01*
X165213512Y-70223927D01*
G37*
G36*
X167753512Y-70223927D02*
G01*
X167902812Y-70253624D01*
X168066784Y-70321544D01*
X168214354Y-70420147D01*
X168339853Y-70545646D01*
X168438456Y-70693216D01*
X168506376Y-70857188D01*
X168541000Y-71031259D01*
X168541000Y-71208741D01*
X168506376Y-71382812D01*
X168438456Y-71546784D01*
X168339853Y-71694354D01*
X168214354Y-71819853D01*
X168066784Y-71918456D01*
X167902812Y-71986376D01*
X167753512Y-72016073D01*
X167728742Y-72021000D01*
X167551258Y-72021000D01*
X167526488Y-72016073D01*
X167377188Y-71986376D01*
X167213216Y-71918456D01*
X167065646Y-71819853D01*
X166940147Y-71694354D01*
X166841544Y-71546784D01*
X166773624Y-71382812D01*
X166739000Y-71208741D01*
X166739000Y-71031259D01*
X166773624Y-70857188D01*
X166841544Y-70693216D01*
X166940147Y-70545646D01*
X167065646Y-70420147D01*
X167213216Y-70321544D01*
X167377188Y-70253624D01*
X167526488Y-70223927D01*
X167551258Y-70219000D01*
X167728742Y-70219000D01*
X167753512Y-70223927D01*
G37*
G36*
X170293512Y-70223927D02*
G01*
X170442812Y-70253624D01*
X170606784Y-70321544D01*
X170754354Y-70420147D01*
X170879853Y-70545646D01*
X170978456Y-70693216D01*
X171046376Y-70857188D01*
X171081000Y-71031259D01*
X171081000Y-71208741D01*
X171046376Y-71382812D01*
X170978456Y-71546784D01*
X170879853Y-71694354D01*
X170754354Y-71819853D01*
X170606784Y-71918456D01*
X170442812Y-71986376D01*
X170293512Y-72016073D01*
X170268742Y-72021000D01*
X170091258Y-72021000D01*
X170066488Y-72016073D01*
X169917188Y-71986376D01*
X169753216Y-71918456D01*
X169605646Y-71819853D01*
X169480147Y-71694354D01*
X169381544Y-71546784D01*
X169313624Y-71382812D01*
X169279000Y-71208741D01*
X169279000Y-71031259D01*
X169313624Y-70857188D01*
X169381544Y-70693216D01*
X169480147Y-70545646D01*
X169605646Y-70420147D01*
X169753216Y-70321544D01*
X169917188Y-70253624D01*
X170066488Y-70223927D01*
X170091258Y-70219000D01*
X170268742Y-70219000D01*
X170293512Y-70223927D01*
G37*
G36*
X172833512Y-70223927D02*
G01*
X172982812Y-70253624D01*
X173146784Y-70321544D01*
X173294354Y-70420147D01*
X173419853Y-70545646D01*
X173518456Y-70693216D01*
X173586376Y-70857188D01*
X173621000Y-71031259D01*
X173621000Y-71208741D01*
X173586376Y-71382812D01*
X173518456Y-71546784D01*
X173419853Y-71694354D01*
X173294354Y-71819853D01*
X173146784Y-71918456D01*
X172982812Y-71986376D01*
X172833512Y-72016073D01*
X172808742Y-72021000D01*
X172631258Y-72021000D01*
X172606488Y-72016073D01*
X172457188Y-71986376D01*
X172293216Y-71918456D01*
X172145646Y-71819853D01*
X172020147Y-71694354D01*
X171921544Y-71546784D01*
X171853624Y-71382812D01*
X171819000Y-71208741D01*
X171819000Y-71031259D01*
X171853624Y-70857188D01*
X171921544Y-70693216D01*
X172020147Y-70545646D01*
X172145646Y-70420147D01*
X172293216Y-70321544D01*
X172457188Y-70253624D01*
X172606488Y-70223927D01*
X172631258Y-70219000D01*
X172808742Y-70219000D01*
X172833512Y-70223927D01*
G37*
G36*
X175373512Y-70223927D02*
G01*
X175522812Y-70253624D01*
X175686784Y-70321544D01*
X175834354Y-70420147D01*
X175959853Y-70545646D01*
X176058456Y-70693216D01*
X176126376Y-70857188D01*
X176161000Y-71031259D01*
X176161000Y-71208741D01*
X176126376Y-71382812D01*
X176058456Y-71546784D01*
X175959853Y-71694354D01*
X175834354Y-71819853D01*
X175686784Y-71918456D01*
X175522812Y-71986376D01*
X175373512Y-72016073D01*
X175348742Y-72021000D01*
X175171258Y-72021000D01*
X175146488Y-72016073D01*
X174997188Y-71986376D01*
X174833216Y-71918456D01*
X174685646Y-71819853D01*
X174560147Y-71694354D01*
X174461544Y-71546784D01*
X174393624Y-71382812D01*
X174359000Y-71208741D01*
X174359000Y-71031259D01*
X174393624Y-70857188D01*
X174461544Y-70693216D01*
X174560147Y-70545646D01*
X174685646Y-70420147D01*
X174833216Y-70321544D01*
X174997188Y-70253624D01*
X175146488Y-70223927D01*
X175171258Y-70219000D01*
X175348742Y-70219000D01*
X175373512Y-70223927D01*
G37*
G36*
X182993512Y-70223927D02*
G01*
X183142812Y-70253624D01*
X183306784Y-70321544D01*
X183454354Y-70420147D01*
X183579853Y-70545646D01*
X183678456Y-70693216D01*
X183746376Y-70857188D01*
X183781000Y-71031259D01*
X183781000Y-71208741D01*
X183746376Y-71382812D01*
X183678456Y-71546784D01*
X183579853Y-71694354D01*
X183454354Y-71819853D01*
X183306784Y-71918456D01*
X183142812Y-71986376D01*
X182993512Y-72016073D01*
X182968742Y-72021000D01*
X182791258Y-72021000D01*
X182766488Y-72016073D01*
X182617188Y-71986376D01*
X182453216Y-71918456D01*
X182305646Y-71819853D01*
X182180147Y-71694354D01*
X182081544Y-71546784D01*
X182013624Y-71382812D01*
X181979000Y-71208741D01*
X181979000Y-71031259D01*
X182013624Y-70857188D01*
X182081544Y-70693216D01*
X182180147Y-70545646D01*
X182305646Y-70420147D01*
X182453216Y-70321544D01*
X182617188Y-70253624D01*
X182766488Y-70223927D01*
X182791258Y-70219000D01*
X182968742Y-70219000D01*
X182993512Y-70223927D01*
G37*
G36*
X177913512Y-70223927D02*
G01*
X178062812Y-70253624D01*
X178226784Y-70321544D01*
X178374354Y-70420147D01*
X178499853Y-70545646D01*
X178598456Y-70693216D01*
X178666376Y-70857188D01*
X178701000Y-71031259D01*
X178701000Y-71208741D01*
X178666376Y-71382812D01*
X178598456Y-71546784D01*
X178499853Y-71694354D01*
X178374354Y-71819853D01*
X178226784Y-71918456D01*
X178062812Y-71986376D01*
X177913512Y-72016073D01*
X177888742Y-72021000D01*
X177711258Y-72021000D01*
X177686488Y-72016073D01*
X177537188Y-71986376D01*
X177373216Y-71918456D01*
X177225646Y-71819853D01*
X177100147Y-71694354D01*
X177001544Y-71546784D01*
X176933624Y-71382812D01*
X176899000Y-71208741D01*
X176899000Y-71031259D01*
X176933624Y-70857188D01*
X177001544Y-70693216D01*
X177100147Y-70545646D01*
X177225646Y-70420147D01*
X177373216Y-70321544D01*
X177537188Y-70253624D01*
X177686488Y-70223927D01*
X177711258Y-70219000D01*
X177888742Y-70219000D01*
X177913512Y-70223927D01*
G37*
G36*
X180453512Y-70223927D02*
G01*
X180602812Y-70253624D01*
X180766784Y-70321544D01*
X180914354Y-70420147D01*
X181039853Y-70545646D01*
X181138456Y-70693216D01*
X181206376Y-70857188D01*
X181241000Y-71031259D01*
X181241000Y-71208741D01*
X181206376Y-71382812D01*
X181138456Y-71546784D01*
X181039853Y-71694354D01*
X180914354Y-71819853D01*
X180766784Y-71918456D01*
X180602812Y-71986376D01*
X180453512Y-72016073D01*
X180428742Y-72021000D01*
X180251258Y-72021000D01*
X180226488Y-72016073D01*
X180077188Y-71986376D01*
X179913216Y-71918456D01*
X179765646Y-71819853D01*
X179640147Y-71694354D01*
X179541544Y-71546784D01*
X179473624Y-71382812D01*
X179439000Y-71208741D01*
X179439000Y-71031259D01*
X179473624Y-70857188D01*
X179541544Y-70693216D01*
X179640147Y-70545646D01*
X179765646Y-70420147D01*
X179913216Y-70321544D01*
X180077188Y-70253624D01*
X180226488Y-70223927D01*
X180251258Y-70219000D01*
X180428742Y-70219000D01*
X180453512Y-70223927D01*
G37*
G36*
X208393512Y-70223927D02*
G01*
X208542812Y-70253624D01*
X208706784Y-70321544D01*
X208854354Y-70420147D01*
X208979853Y-70545646D01*
X209078456Y-70693216D01*
X209146376Y-70857188D01*
X209181000Y-71031259D01*
X209181000Y-71208741D01*
X209146376Y-71382812D01*
X209078456Y-71546784D01*
X208979853Y-71694354D01*
X208854354Y-71819853D01*
X208706784Y-71918456D01*
X208542812Y-71986376D01*
X208393512Y-72016073D01*
X208368742Y-72021000D01*
X208191258Y-72021000D01*
X208166488Y-72016073D01*
X208017188Y-71986376D01*
X207853216Y-71918456D01*
X207705646Y-71819853D01*
X207580147Y-71694354D01*
X207481544Y-71546784D01*
X207413624Y-71382812D01*
X207379000Y-71208741D01*
X207379000Y-71031259D01*
X207413624Y-70857188D01*
X207481544Y-70693216D01*
X207580147Y-70545646D01*
X207705646Y-70420147D01*
X207853216Y-70321544D01*
X208017188Y-70253624D01*
X208166488Y-70223927D01*
X208191258Y-70219000D01*
X208368742Y-70219000D01*
X208393512Y-70223927D01*
G37*
G36*
X190613512Y-70223927D02*
G01*
X190762812Y-70253624D01*
X190926784Y-70321544D01*
X191074354Y-70420147D01*
X191199853Y-70545646D01*
X191298456Y-70693216D01*
X191366376Y-70857188D01*
X191401000Y-71031259D01*
X191401000Y-71208741D01*
X191366376Y-71382812D01*
X191298456Y-71546784D01*
X191199853Y-71694354D01*
X191074354Y-71819853D01*
X190926784Y-71918456D01*
X190762812Y-71986376D01*
X190613512Y-72016073D01*
X190588742Y-72021000D01*
X190411258Y-72021000D01*
X190386488Y-72016073D01*
X190237188Y-71986376D01*
X190073216Y-71918456D01*
X189925646Y-71819853D01*
X189800147Y-71694354D01*
X189701544Y-71546784D01*
X189633624Y-71382812D01*
X189599000Y-71208741D01*
X189599000Y-71031259D01*
X189633624Y-70857188D01*
X189701544Y-70693216D01*
X189800147Y-70545646D01*
X189925646Y-70420147D01*
X190073216Y-70321544D01*
X190237188Y-70253624D01*
X190386488Y-70223927D01*
X190411258Y-70219000D01*
X190588742Y-70219000D01*
X190613512Y-70223927D01*
G37*
G36*
X185533512Y-70223927D02*
G01*
X185682812Y-70253624D01*
X185846784Y-70321544D01*
X185994354Y-70420147D01*
X186119853Y-70545646D01*
X186218456Y-70693216D01*
X186286376Y-70857188D01*
X186321000Y-71031259D01*
X186321000Y-71208741D01*
X186286376Y-71382812D01*
X186218456Y-71546784D01*
X186119853Y-71694354D01*
X185994354Y-71819853D01*
X185846784Y-71918456D01*
X185682812Y-71986376D01*
X185533512Y-72016073D01*
X185508742Y-72021000D01*
X185331258Y-72021000D01*
X185306488Y-72016073D01*
X185157188Y-71986376D01*
X184993216Y-71918456D01*
X184845646Y-71819853D01*
X184720147Y-71694354D01*
X184621544Y-71546784D01*
X184553624Y-71382812D01*
X184519000Y-71208741D01*
X184519000Y-71031259D01*
X184553624Y-70857188D01*
X184621544Y-70693216D01*
X184720147Y-70545646D01*
X184845646Y-70420147D01*
X184993216Y-70321544D01*
X185157188Y-70253624D01*
X185306488Y-70223927D01*
X185331258Y-70219000D01*
X185508742Y-70219000D01*
X185533512Y-70223927D01*
G37*
G36*
X205853512Y-70223927D02*
G01*
X206002812Y-70253624D01*
X206166784Y-70321544D01*
X206314354Y-70420147D01*
X206439853Y-70545646D01*
X206538456Y-70693216D01*
X206606376Y-70857188D01*
X206641000Y-71031259D01*
X206641000Y-71208741D01*
X206606376Y-71382812D01*
X206538456Y-71546784D01*
X206439853Y-71694354D01*
X206314354Y-71819853D01*
X206166784Y-71918456D01*
X206002812Y-71986376D01*
X205853512Y-72016073D01*
X205828742Y-72021000D01*
X205651258Y-72021000D01*
X205626488Y-72016073D01*
X205477188Y-71986376D01*
X205313216Y-71918456D01*
X205165646Y-71819853D01*
X205040147Y-71694354D01*
X204941544Y-71546784D01*
X204873624Y-71382812D01*
X204839000Y-71208741D01*
X204839000Y-71031259D01*
X204873624Y-70857188D01*
X204941544Y-70693216D01*
X205040147Y-70545646D01*
X205165646Y-70420147D01*
X205313216Y-70321544D01*
X205477188Y-70253624D01*
X205626488Y-70223927D01*
X205651258Y-70219000D01*
X205828742Y-70219000D01*
X205853512Y-70223927D01*
G37*
G36*
X203313512Y-70223927D02*
G01*
X203462812Y-70253624D01*
X203626784Y-70321544D01*
X203774354Y-70420147D01*
X203899853Y-70545646D01*
X203998456Y-70693216D01*
X204066376Y-70857188D01*
X204101000Y-71031259D01*
X204101000Y-71208741D01*
X204066376Y-71382812D01*
X203998456Y-71546784D01*
X203899853Y-71694354D01*
X203774354Y-71819853D01*
X203626784Y-71918456D01*
X203462812Y-71986376D01*
X203313512Y-72016073D01*
X203288742Y-72021000D01*
X203111258Y-72021000D01*
X203086488Y-72016073D01*
X202937188Y-71986376D01*
X202773216Y-71918456D01*
X202625646Y-71819853D01*
X202500147Y-71694354D01*
X202401544Y-71546784D01*
X202333624Y-71382812D01*
X202299000Y-71208741D01*
X202299000Y-71031259D01*
X202333624Y-70857188D01*
X202401544Y-70693216D01*
X202500147Y-70545646D01*
X202625646Y-70420147D01*
X202773216Y-70321544D01*
X202937188Y-70253624D01*
X203086488Y-70223927D01*
X203111258Y-70219000D01*
X203288742Y-70219000D01*
X203313512Y-70223927D01*
G37*
G36*
X200773512Y-70223927D02*
G01*
X200922812Y-70253624D01*
X201086784Y-70321544D01*
X201234354Y-70420147D01*
X201359853Y-70545646D01*
X201458456Y-70693216D01*
X201526376Y-70857188D01*
X201561000Y-71031259D01*
X201561000Y-71208741D01*
X201526376Y-71382812D01*
X201458456Y-71546784D01*
X201359853Y-71694354D01*
X201234354Y-71819853D01*
X201086784Y-71918456D01*
X200922812Y-71986376D01*
X200773512Y-72016073D01*
X200748742Y-72021000D01*
X200571258Y-72021000D01*
X200546488Y-72016073D01*
X200397188Y-71986376D01*
X200233216Y-71918456D01*
X200085646Y-71819853D01*
X199960147Y-71694354D01*
X199861544Y-71546784D01*
X199793624Y-71382812D01*
X199759000Y-71208741D01*
X199759000Y-71031259D01*
X199793624Y-70857188D01*
X199861544Y-70693216D01*
X199960147Y-70545646D01*
X200085646Y-70420147D01*
X200233216Y-70321544D01*
X200397188Y-70253624D01*
X200546488Y-70223927D01*
X200571258Y-70219000D01*
X200748742Y-70219000D01*
X200773512Y-70223927D01*
G37*
G36*
X198233512Y-70223927D02*
G01*
X198382812Y-70253624D01*
X198546784Y-70321544D01*
X198694354Y-70420147D01*
X198819853Y-70545646D01*
X198918456Y-70693216D01*
X198986376Y-70857188D01*
X199021000Y-71031259D01*
X199021000Y-71208741D01*
X198986376Y-71382812D01*
X198918456Y-71546784D01*
X198819853Y-71694354D01*
X198694354Y-71819853D01*
X198546784Y-71918456D01*
X198382812Y-71986376D01*
X198233512Y-72016073D01*
X198208742Y-72021000D01*
X198031258Y-72021000D01*
X198006488Y-72016073D01*
X197857188Y-71986376D01*
X197693216Y-71918456D01*
X197545646Y-71819853D01*
X197420147Y-71694354D01*
X197321544Y-71546784D01*
X197253624Y-71382812D01*
X197219000Y-71208741D01*
X197219000Y-71031259D01*
X197253624Y-70857188D01*
X197321544Y-70693216D01*
X197420147Y-70545646D01*
X197545646Y-70420147D01*
X197693216Y-70321544D01*
X197857188Y-70253624D01*
X198006488Y-70223927D01*
X198031258Y-70219000D01*
X198208742Y-70219000D01*
X198233512Y-70223927D01*
G37*
G36*
X188073512Y-70223927D02*
G01*
X188222812Y-70253624D01*
X188386784Y-70321544D01*
X188534354Y-70420147D01*
X188659853Y-70545646D01*
X188758456Y-70693216D01*
X188826376Y-70857188D01*
X188861000Y-71031259D01*
X188861000Y-71208741D01*
X188826376Y-71382812D01*
X188758456Y-71546784D01*
X188659853Y-71694354D01*
X188534354Y-71819853D01*
X188386784Y-71918456D01*
X188222812Y-71986376D01*
X188073512Y-72016073D01*
X188048742Y-72021000D01*
X187871258Y-72021000D01*
X187846488Y-72016073D01*
X187697188Y-71986376D01*
X187533216Y-71918456D01*
X187385646Y-71819853D01*
X187260147Y-71694354D01*
X187161544Y-71546784D01*
X187093624Y-71382812D01*
X187059000Y-71208741D01*
X187059000Y-71031259D01*
X187093624Y-70857188D01*
X187161544Y-70693216D01*
X187260147Y-70545646D01*
X187385646Y-70420147D01*
X187533216Y-70321544D01*
X187697188Y-70253624D01*
X187846488Y-70223927D01*
X187871258Y-70219000D01*
X188048742Y-70219000D01*
X188073512Y-70223927D01*
G37*
G36*
X195693512Y-70223927D02*
G01*
X195842812Y-70253624D01*
X196006784Y-70321544D01*
X196154354Y-70420147D01*
X196279853Y-70545646D01*
X196378456Y-70693216D01*
X196446376Y-70857188D01*
X196481000Y-71031259D01*
X196481000Y-71208741D01*
X196446376Y-71382812D01*
X196378456Y-71546784D01*
X196279853Y-71694354D01*
X196154354Y-71819853D01*
X196006784Y-71918456D01*
X195842812Y-71986376D01*
X195693512Y-72016073D01*
X195668742Y-72021000D01*
X195491258Y-72021000D01*
X195466488Y-72016073D01*
X195317188Y-71986376D01*
X195153216Y-71918456D01*
X195005646Y-71819853D01*
X194880147Y-71694354D01*
X194781544Y-71546784D01*
X194713624Y-71382812D01*
X194679000Y-71208741D01*
X194679000Y-71031259D01*
X194713624Y-70857188D01*
X194781544Y-70693216D01*
X194880147Y-70545646D01*
X195005646Y-70420147D01*
X195153216Y-70321544D01*
X195317188Y-70253624D01*
X195466488Y-70223927D01*
X195491258Y-70219000D01*
X195668742Y-70219000D01*
X195693512Y-70223927D01*
G37*
G36*
X193153512Y-70223927D02*
G01*
X193302812Y-70253624D01*
X193466784Y-70321544D01*
X193614354Y-70420147D01*
X193739853Y-70545646D01*
X193838456Y-70693216D01*
X193906376Y-70857188D01*
X193941000Y-71031259D01*
X193941000Y-71208741D01*
X193906376Y-71382812D01*
X193838456Y-71546784D01*
X193739853Y-71694354D01*
X193614354Y-71819853D01*
X193466784Y-71918456D01*
X193302812Y-71986376D01*
X193153512Y-72016073D01*
X193128742Y-72021000D01*
X192951258Y-72021000D01*
X192926488Y-72016073D01*
X192777188Y-71986376D01*
X192613216Y-71918456D01*
X192465646Y-71819853D01*
X192340147Y-71694354D01*
X192241544Y-71546784D01*
X192173624Y-71382812D01*
X192139000Y-71208741D01*
X192139000Y-71031259D01*
X192173624Y-70857188D01*
X192241544Y-70693216D01*
X192340147Y-70545646D01*
X192465646Y-70420147D01*
X192613216Y-70321544D01*
X192777188Y-70253624D01*
X192926488Y-70223927D01*
X192951258Y-70219000D01*
X193128742Y-70219000D01*
X193153512Y-70223927D01*
G37*
G36*
X185533512Y-67683927D02*
G01*
X185682812Y-67713624D01*
X185846784Y-67781544D01*
X185994354Y-67880147D01*
X186119853Y-68005646D01*
X186218456Y-68153216D01*
X186286376Y-68317188D01*
X186321000Y-68491259D01*
X186321000Y-68668741D01*
X186286376Y-68842812D01*
X186218456Y-69006784D01*
X186119853Y-69154354D01*
X185994354Y-69279853D01*
X185846784Y-69378456D01*
X185682812Y-69446376D01*
X185533512Y-69476073D01*
X185508742Y-69481000D01*
X185331258Y-69481000D01*
X185306488Y-69476073D01*
X185157188Y-69446376D01*
X184993216Y-69378456D01*
X184845646Y-69279853D01*
X184720147Y-69154354D01*
X184621544Y-69006784D01*
X184553624Y-68842812D01*
X184519000Y-68668741D01*
X184519000Y-68491259D01*
X184553624Y-68317188D01*
X184621544Y-68153216D01*
X184720147Y-68005646D01*
X184845646Y-67880147D01*
X184993216Y-67781544D01*
X185157188Y-67713624D01*
X185306488Y-67683927D01*
X185331258Y-67679000D01*
X185508742Y-67679000D01*
X185533512Y-67683927D01*
G37*
G36*
X208393512Y-67683927D02*
G01*
X208542812Y-67713624D01*
X208706784Y-67781544D01*
X208854354Y-67880147D01*
X208979853Y-68005646D01*
X209078456Y-68153216D01*
X209146376Y-68317188D01*
X209181000Y-68491259D01*
X209181000Y-68668741D01*
X209146376Y-68842812D01*
X209078456Y-69006784D01*
X208979853Y-69154354D01*
X208854354Y-69279853D01*
X208706784Y-69378456D01*
X208542812Y-69446376D01*
X208393512Y-69476073D01*
X208368742Y-69481000D01*
X208191258Y-69481000D01*
X208166488Y-69476073D01*
X208017188Y-69446376D01*
X207853216Y-69378456D01*
X207705646Y-69279853D01*
X207580147Y-69154354D01*
X207481544Y-69006784D01*
X207413624Y-68842812D01*
X207379000Y-68668741D01*
X207379000Y-68491259D01*
X207413624Y-68317188D01*
X207481544Y-68153216D01*
X207580147Y-68005646D01*
X207705646Y-67880147D01*
X207853216Y-67781544D01*
X208017188Y-67713624D01*
X208166488Y-67683927D01*
X208191258Y-67679000D01*
X208368742Y-67679000D01*
X208393512Y-67683927D01*
G37*
G36*
X205853512Y-67683927D02*
G01*
X206002812Y-67713624D01*
X206166784Y-67781544D01*
X206314354Y-67880147D01*
X206439853Y-68005646D01*
X206538456Y-68153216D01*
X206606376Y-68317188D01*
X206641000Y-68491259D01*
X206641000Y-68668741D01*
X206606376Y-68842812D01*
X206538456Y-69006784D01*
X206439853Y-69154354D01*
X206314354Y-69279853D01*
X206166784Y-69378456D01*
X206002812Y-69446376D01*
X205853512Y-69476073D01*
X205828742Y-69481000D01*
X205651258Y-69481000D01*
X205626488Y-69476073D01*
X205477188Y-69446376D01*
X205313216Y-69378456D01*
X205165646Y-69279853D01*
X205040147Y-69154354D01*
X204941544Y-69006784D01*
X204873624Y-68842812D01*
X204839000Y-68668741D01*
X204839000Y-68491259D01*
X204873624Y-68317188D01*
X204941544Y-68153216D01*
X205040147Y-68005646D01*
X205165646Y-67880147D01*
X205313216Y-67781544D01*
X205477188Y-67713624D01*
X205626488Y-67683927D01*
X205651258Y-67679000D01*
X205828742Y-67679000D01*
X205853512Y-67683927D01*
G37*
G36*
X203313512Y-67683927D02*
G01*
X203462812Y-67713624D01*
X203626784Y-67781544D01*
X203774354Y-67880147D01*
X203899853Y-68005646D01*
X203998456Y-68153216D01*
X204066376Y-68317188D01*
X204101000Y-68491259D01*
X204101000Y-68668741D01*
X204066376Y-68842812D01*
X203998456Y-69006784D01*
X203899853Y-69154354D01*
X203774354Y-69279853D01*
X203626784Y-69378456D01*
X203462812Y-69446376D01*
X203313512Y-69476073D01*
X203288742Y-69481000D01*
X203111258Y-69481000D01*
X203086488Y-69476073D01*
X202937188Y-69446376D01*
X202773216Y-69378456D01*
X202625646Y-69279853D01*
X202500147Y-69154354D01*
X202401544Y-69006784D01*
X202333624Y-68842812D01*
X202299000Y-68668741D01*
X202299000Y-68491259D01*
X202333624Y-68317188D01*
X202401544Y-68153216D01*
X202500147Y-68005646D01*
X202625646Y-67880147D01*
X202773216Y-67781544D01*
X202937188Y-67713624D01*
X203086488Y-67683927D01*
X203111258Y-67679000D01*
X203288742Y-67679000D01*
X203313512Y-67683927D01*
G37*
G36*
X200773512Y-67683927D02*
G01*
X200922812Y-67713624D01*
X201086784Y-67781544D01*
X201234354Y-67880147D01*
X201359853Y-68005646D01*
X201458456Y-68153216D01*
X201526376Y-68317188D01*
X201561000Y-68491259D01*
X201561000Y-68668741D01*
X201526376Y-68842812D01*
X201458456Y-69006784D01*
X201359853Y-69154354D01*
X201234354Y-69279853D01*
X201086784Y-69378456D01*
X200922812Y-69446376D01*
X200773512Y-69476073D01*
X200748742Y-69481000D01*
X200571258Y-69481000D01*
X200546488Y-69476073D01*
X200397188Y-69446376D01*
X200233216Y-69378456D01*
X200085646Y-69279853D01*
X199960147Y-69154354D01*
X199861544Y-69006784D01*
X199793624Y-68842812D01*
X199759000Y-68668741D01*
X199759000Y-68491259D01*
X199793624Y-68317188D01*
X199861544Y-68153216D01*
X199960147Y-68005646D01*
X200085646Y-67880147D01*
X200233216Y-67781544D01*
X200397188Y-67713624D01*
X200546488Y-67683927D01*
X200571258Y-67679000D01*
X200748742Y-67679000D01*
X200773512Y-67683927D01*
G37*
G36*
X198233512Y-67683927D02*
G01*
X198382812Y-67713624D01*
X198546784Y-67781544D01*
X198694354Y-67880147D01*
X198819853Y-68005646D01*
X198918456Y-68153216D01*
X198986376Y-68317188D01*
X199021000Y-68491259D01*
X199021000Y-68668741D01*
X198986376Y-68842812D01*
X198918456Y-69006784D01*
X198819853Y-69154354D01*
X198694354Y-69279853D01*
X198546784Y-69378456D01*
X198382812Y-69446376D01*
X198233512Y-69476073D01*
X198208742Y-69481000D01*
X198031258Y-69481000D01*
X198006488Y-69476073D01*
X197857188Y-69446376D01*
X197693216Y-69378456D01*
X197545646Y-69279853D01*
X197420147Y-69154354D01*
X197321544Y-69006784D01*
X197253624Y-68842812D01*
X197219000Y-68668741D01*
X197219000Y-68491259D01*
X197253624Y-68317188D01*
X197321544Y-68153216D01*
X197420147Y-68005646D01*
X197545646Y-67880147D01*
X197693216Y-67781544D01*
X197857188Y-67713624D01*
X198006488Y-67683927D01*
X198031258Y-67679000D01*
X198208742Y-67679000D01*
X198233512Y-67683927D01*
G37*
G36*
X195693512Y-67683927D02*
G01*
X195842812Y-67713624D01*
X196006784Y-67781544D01*
X196154354Y-67880147D01*
X196279853Y-68005646D01*
X196378456Y-68153216D01*
X196446376Y-68317188D01*
X196481000Y-68491259D01*
X196481000Y-68668741D01*
X196446376Y-68842812D01*
X196378456Y-69006784D01*
X196279853Y-69154354D01*
X196154354Y-69279853D01*
X196006784Y-69378456D01*
X195842812Y-69446376D01*
X195693512Y-69476073D01*
X195668742Y-69481000D01*
X195491258Y-69481000D01*
X195466488Y-69476073D01*
X195317188Y-69446376D01*
X195153216Y-69378456D01*
X195005646Y-69279853D01*
X194880147Y-69154354D01*
X194781544Y-69006784D01*
X194713624Y-68842812D01*
X194679000Y-68668741D01*
X194679000Y-68491259D01*
X194713624Y-68317188D01*
X194781544Y-68153216D01*
X194880147Y-68005646D01*
X195005646Y-67880147D01*
X195153216Y-67781544D01*
X195317188Y-67713624D01*
X195466488Y-67683927D01*
X195491258Y-67679000D01*
X195668742Y-67679000D01*
X195693512Y-67683927D01*
G37*
G36*
X193153512Y-67683927D02*
G01*
X193302812Y-67713624D01*
X193466784Y-67781544D01*
X193614354Y-67880147D01*
X193739853Y-68005646D01*
X193838456Y-68153216D01*
X193906376Y-68317188D01*
X193941000Y-68491259D01*
X193941000Y-68668741D01*
X193906376Y-68842812D01*
X193838456Y-69006784D01*
X193739853Y-69154354D01*
X193614354Y-69279853D01*
X193466784Y-69378456D01*
X193302812Y-69446376D01*
X193153512Y-69476073D01*
X193128742Y-69481000D01*
X192951258Y-69481000D01*
X192926488Y-69476073D01*
X192777188Y-69446376D01*
X192613216Y-69378456D01*
X192465646Y-69279853D01*
X192340147Y-69154354D01*
X192241544Y-69006784D01*
X192173624Y-68842812D01*
X192139000Y-68668741D01*
X192139000Y-68491259D01*
X192173624Y-68317188D01*
X192241544Y-68153216D01*
X192340147Y-68005646D01*
X192465646Y-67880147D01*
X192613216Y-67781544D01*
X192777188Y-67713624D01*
X192926488Y-67683927D01*
X192951258Y-67679000D01*
X193128742Y-67679000D01*
X193153512Y-67683927D01*
G37*
G36*
X190613512Y-67683927D02*
G01*
X190762812Y-67713624D01*
X190926784Y-67781544D01*
X191074354Y-67880147D01*
X191199853Y-68005646D01*
X191298456Y-68153216D01*
X191366376Y-68317188D01*
X191401000Y-68491259D01*
X191401000Y-68668741D01*
X191366376Y-68842812D01*
X191298456Y-69006784D01*
X191199853Y-69154354D01*
X191074354Y-69279853D01*
X190926784Y-69378456D01*
X190762812Y-69446376D01*
X190613512Y-69476073D01*
X190588742Y-69481000D01*
X190411258Y-69481000D01*
X190386488Y-69476073D01*
X190237188Y-69446376D01*
X190073216Y-69378456D01*
X189925646Y-69279853D01*
X189800147Y-69154354D01*
X189701544Y-69006784D01*
X189633624Y-68842812D01*
X189599000Y-68668741D01*
X189599000Y-68491259D01*
X189633624Y-68317188D01*
X189701544Y-68153216D01*
X189800147Y-68005646D01*
X189925646Y-67880147D01*
X190073216Y-67781544D01*
X190237188Y-67713624D01*
X190386488Y-67683927D01*
X190411258Y-67679000D01*
X190588742Y-67679000D01*
X190613512Y-67683927D01*
G37*
G36*
X188073512Y-67683927D02*
G01*
X188222812Y-67713624D01*
X188386784Y-67781544D01*
X188534354Y-67880147D01*
X188659853Y-68005646D01*
X188758456Y-68153216D01*
X188826376Y-68317188D01*
X188861000Y-68491259D01*
X188861000Y-68668741D01*
X188826376Y-68842812D01*
X188758456Y-69006784D01*
X188659853Y-69154354D01*
X188534354Y-69279853D01*
X188386784Y-69378456D01*
X188222812Y-69446376D01*
X188073512Y-69476073D01*
X188048742Y-69481000D01*
X187871258Y-69481000D01*
X187846488Y-69476073D01*
X187697188Y-69446376D01*
X187533216Y-69378456D01*
X187385646Y-69279853D01*
X187260147Y-69154354D01*
X187161544Y-69006784D01*
X187093624Y-68842812D01*
X187059000Y-68668741D01*
X187059000Y-68491259D01*
X187093624Y-68317188D01*
X187161544Y-68153216D01*
X187260147Y-68005646D01*
X187385646Y-67880147D01*
X187533216Y-67781544D01*
X187697188Y-67713624D01*
X187846488Y-67683927D01*
X187871258Y-67679000D01*
X188048742Y-67679000D01*
X188073512Y-67683927D01*
G37*
G36*
X180453512Y-67683927D02*
G01*
X180602812Y-67713624D01*
X180766784Y-67781544D01*
X180914354Y-67880147D01*
X181039853Y-68005646D01*
X181138456Y-68153216D01*
X181206376Y-68317188D01*
X181241000Y-68491259D01*
X181241000Y-68668741D01*
X181206376Y-68842812D01*
X181138456Y-69006784D01*
X181039853Y-69154354D01*
X180914354Y-69279853D01*
X180766784Y-69378456D01*
X180602812Y-69446376D01*
X180453512Y-69476073D01*
X180428742Y-69481000D01*
X180251258Y-69481000D01*
X180226488Y-69476073D01*
X180077188Y-69446376D01*
X179913216Y-69378456D01*
X179765646Y-69279853D01*
X179640147Y-69154354D01*
X179541544Y-69006784D01*
X179473624Y-68842812D01*
X179439000Y-68668741D01*
X179439000Y-68491259D01*
X179473624Y-68317188D01*
X179541544Y-68153216D01*
X179640147Y-68005646D01*
X179765646Y-67880147D01*
X179913216Y-67781544D01*
X180077188Y-67713624D01*
X180226488Y-67683927D01*
X180251258Y-67679000D01*
X180428742Y-67679000D01*
X180453512Y-67683927D01*
G37*
G36*
X175373512Y-67683927D02*
G01*
X175522812Y-67713624D01*
X175686784Y-67781544D01*
X175834354Y-67880147D01*
X175959853Y-68005646D01*
X176058456Y-68153216D01*
X176126376Y-68317188D01*
X176161000Y-68491259D01*
X176161000Y-68668741D01*
X176126376Y-68842812D01*
X176058456Y-69006784D01*
X175959853Y-69154354D01*
X175834354Y-69279853D01*
X175686784Y-69378456D01*
X175522812Y-69446376D01*
X175373512Y-69476073D01*
X175348742Y-69481000D01*
X175171258Y-69481000D01*
X175146488Y-69476073D01*
X174997188Y-69446376D01*
X174833216Y-69378456D01*
X174685646Y-69279853D01*
X174560147Y-69154354D01*
X174461544Y-69006784D01*
X174393624Y-68842812D01*
X174359000Y-68668741D01*
X174359000Y-68491259D01*
X174393624Y-68317188D01*
X174461544Y-68153216D01*
X174560147Y-68005646D01*
X174685646Y-67880147D01*
X174833216Y-67781544D01*
X174997188Y-67713624D01*
X175146488Y-67683927D01*
X175171258Y-67679000D01*
X175348742Y-67679000D01*
X175373512Y-67683927D01*
G37*
G36*
X160133512Y-67683927D02*
G01*
X160282812Y-67713624D01*
X160446784Y-67781544D01*
X160594354Y-67880147D01*
X160719853Y-68005646D01*
X160818456Y-68153216D01*
X160886376Y-68317188D01*
X160921000Y-68491259D01*
X160921000Y-68668741D01*
X160886376Y-68842812D01*
X160818456Y-69006784D01*
X160719853Y-69154354D01*
X160594354Y-69279853D01*
X160446784Y-69378456D01*
X160282812Y-69446376D01*
X160133512Y-69476073D01*
X160108742Y-69481000D01*
X159931258Y-69481000D01*
X159906488Y-69476073D01*
X159757188Y-69446376D01*
X159593216Y-69378456D01*
X159445646Y-69279853D01*
X159320147Y-69154354D01*
X159221544Y-69006784D01*
X159153624Y-68842812D01*
X159119000Y-68668741D01*
X159119000Y-68491259D01*
X159153624Y-68317188D01*
X159221544Y-68153216D01*
X159320147Y-68005646D01*
X159445646Y-67880147D01*
X159593216Y-67781544D01*
X159757188Y-67713624D01*
X159906488Y-67683927D01*
X159931258Y-67679000D01*
X160108742Y-67679000D01*
X160133512Y-67683927D01*
G37*
G36*
X162673512Y-67683927D02*
G01*
X162822812Y-67713624D01*
X162986784Y-67781544D01*
X163134354Y-67880147D01*
X163259853Y-68005646D01*
X163358456Y-68153216D01*
X163426376Y-68317188D01*
X163461000Y-68491259D01*
X163461000Y-68668741D01*
X163426376Y-68842812D01*
X163358456Y-69006784D01*
X163259853Y-69154354D01*
X163134354Y-69279853D01*
X162986784Y-69378456D01*
X162822812Y-69446376D01*
X162673512Y-69476073D01*
X162648742Y-69481000D01*
X162471258Y-69481000D01*
X162446488Y-69476073D01*
X162297188Y-69446376D01*
X162133216Y-69378456D01*
X161985646Y-69279853D01*
X161860147Y-69154354D01*
X161761544Y-69006784D01*
X161693624Y-68842812D01*
X161659000Y-68668741D01*
X161659000Y-68491259D01*
X161693624Y-68317188D01*
X161761544Y-68153216D01*
X161860147Y-68005646D01*
X161985646Y-67880147D01*
X162133216Y-67781544D01*
X162297188Y-67713624D01*
X162446488Y-67683927D01*
X162471258Y-67679000D01*
X162648742Y-67679000D01*
X162673512Y-67683927D01*
G37*
G36*
X165213512Y-67683927D02*
G01*
X165362812Y-67713624D01*
X165526784Y-67781544D01*
X165674354Y-67880147D01*
X165799853Y-68005646D01*
X165898456Y-68153216D01*
X165966376Y-68317188D01*
X166001000Y-68491259D01*
X166001000Y-68668741D01*
X165966376Y-68842812D01*
X165898456Y-69006784D01*
X165799853Y-69154354D01*
X165674354Y-69279853D01*
X165526784Y-69378456D01*
X165362812Y-69446376D01*
X165213512Y-69476073D01*
X165188742Y-69481000D01*
X165011258Y-69481000D01*
X164986488Y-69476073D01*
X164837188Y-69446376D01*
X164673216Y-69378456D01*
X164525646Y-69279853D01*
X164400147Y-69154354D01*
X164301544Y-69006784D01*
X164233624Y-68842812D01*
X164199000Y-68668741D01*
X164199000Y-68491259D01*
X164233624Y-68317188D01*
X164301544Y-68153216D01*
X164400147Y-68005646D01*
X164525646Y-67880147D01*
X164673216Y-67781544D01*
X164837188Y-67713624D01*
X164986488Y-67683927D01*
X165011258Y-67679000D01*
X165188742Y-67679000D01*
X165213512Y-67683927D01*
G37*
G36*
X167753512Y-67683927D02*
G01*
X167902812Y-67713624D01*
X168066784Y-67781544D01*
X168214354Y-67880147D01*
X168339853Y-68005646D01*
X168438456Y-68153216D01*
X168506376Y-68317188D01*
X168541000Y-68491259D01*
X168541000Y-68668741D01*
X168506376Y-68842812D01*
X168438456Y-69006784D01*
X168339853Y-69154354D01*
X168214354Y-69279853D01*
X168066784Y-69378456D01*
X167902812Y-69446376D01*
X167753512Y-69476073D01*
X167728742Y-69481000D01*
X167551258Y-69481000D01*
X167526488Y-69476073D01*
X167377188Y-69446376D01*
X167213216Y-69378456D01*
X167065646Y-69279853D01*
X166940147Y-69154354D01*
X166841544Y-69006784D01*
X166773624Y-68842812D01*
X166739000Y-68668741D01*
X166739000Y-68491259D01*
X166773624Y-68317188D01*
X166841544Y-68153216D01*
X166940147Y-68005646D01*
X167065646Y-67880147D01*
X167213216Y-67781544D01*
X167377188Y-67713624D01*
X167526488Y-67683927D01*
X167551258Y-67679000D01*
X167728742Y-67679000D01*
X167753512Y-67683927D01*
G37*
G36*
X177913512Y-67683927D02*
G01*
X178062812Y-67713624D01*
X178226784Y-67781544D01*
X178374354Y-67880147D01*
X178499853Y-68005646D01*
X178598456Y-68153216D01*
X178666376Y-68317188D01*
X178701000Y-68491259D01*
X178701000Y-68668741D01*
X178666376Y-68842812D01*
X178598456Y-69006784D01*
X178499853Y-69154354D01*
X178374354Y-69279853D01*
X178226784Y-69378456D01*
X178062812Y-69446376D01*
X177913512Y-69476073D01*
X177888742Y-69481000D01*
X177711258Y-69481000D01*
X177686488Y-69476073D01*
X177537188Y-69446376D01*
X177373216Y-69378456D01*
X177225646Y-69279853D01*
X177100147Y-69154354D01*
X177001544Y-69006784D01*
X176933624Y-68842812D01*
X176899000Y-68668741D01*
X176899000Y-68491259D01*
X176933624Y-68317188D01*
X177001544Y-68153216D01*
X177100147Y-68005646D01*
X177225646Y-67880147D01*
X177373216Y-67781544D01*
X177537188Y-67713624D01*
X177686488Y-67683927D01*
X177711258Y-67679000D01*
X177888742Y-67679000D01*
X177913512Y-67683927D01*
G37*
G36*
X172833512Y-67683927D02*
G01*
X172982812Y-67713624D01*
X173146784Y-67781544D01*
X173294354Y-67880147D01*
X173419853Y-68005646D01*
X173518456Y-68153216D01*
X173586376Y-68317188D01*
X173621000Y-68491259D01*
X173621000Y-68668741D01*
X173586376Y-68842812D01*
X173518456Y-69006784D01*
X173419853Y-69154354D01*
X173294354Y-69279853D01*
X173146784Y-69378456D01*
X172982812Y-69446376D01*
X172833512Y-69476073D01*
X172808742Y-69481000D01*
X172631258Y-69481000D01*
X172606488Y-69476073D01*
X172457188Y-69446376D01*
X172293216Y-69378456D01*
X172145646Y-69279853D01*
X172020147Y-69154354D01*
X171921544Y-69006784D01*
X171853624Y-68842812D01*
X171819000Y-68668741D01*
X171819000Y-68491259D01*
X171853624Y-68317188D01*
X171921544Y-68153216D01*
X172020147Y-68005646D01*
X172145646Y-67880147D01*
X172293216Y-67781544D01*
X172457188Y-67713624D01*
X172606488Y-67683927D01*
X172631258Y-67679000D01*
X172808742Y-67679000D01*
X172833512Y-67683927D01*
G37*
G36*
X170293512Y-67683927D02*
G01*
X170442812Y-67713624D01*
X170606784Y-67781544D01*
X170754354Y-67880147D01*
X170879853Y-68005646D01*
X170978456Y-68153216D01*
X171046376Y-68317188D01*
X171081000Y-68491259D01*
X171081000Y-68668741D01*
X171046376Y-68842812D01*
X170978456Y-69006784D01*
X170879853Y-69154354D01*
X170754354Y-69279853D01*
X170606784Y-69378456D01*
X170442812Y-69446376D01*
X170293512Y-69476073D01*
X170268742Y-69481000D01*
X170091258Y-69481000D01*
X170066488Y-69476073D01*
X169917188Y-69446376D01*
X169753216Y-69378456D01*
X169605646Y-69279853D01*
X169480147Y-69154354D01*
X169381544Y-69006784D01*
X169313624Y-68842812D01*
X169279000Y-68668741D01*
X169279000Y-68491259D01*
X169313624Y-68317188D01*
X169381544Y-68153216D01*
X169480147Y-68005646D01*
X169605646Y-67880147D01*
X169753216Y-67781544D01*
X169917188Y-67713624D01*
X170066488Y-67683927D01*
X170091258Y-67679000D01*
X170268742Y-67679000D01*
X170293512Y-67683927D01*
G37*
G36*
X182993512Y-67683927D02*
G01*
X183142812Y-67713624D01*
X183306784Y-67781544D01*
X183454354Y-67880147D01*
X183579853Y-68005646D01*
X183678456Y-68153216D01*
X183746376Y-68317188D01*
X183781000Y-68491259D01*
X183781000Y-68668741D01*
X183746376Y-68842812D01*
X183678456Y-69006784D01*
X183579853Y-69154354D01*
X183454354Y-69279853D01*
X183306784Y-69378456D01*
X183142812Y-69446376D01*
X182993512Y-69476073D01*
X182968742Y-69481000D01*
X182791258Y-69481000D01*
X182766488Y-69476073D01*
X182617188Y-69446376D01*
X182453216Y-69378456D01*
X182305646Y-69279853D01*
X182180147Y-69154354D01*
X182081544Y-69006784D01*
X182013624Y-68842812D01*
X181979000Y-68668741D01*
X181979000Y-68491259D01*
X182013624Y-68317188D01*
X182081544Y-68153216D01*
X182180147Y-68005646D01*
X182305646Y-67880147D01*
X182453216Y-67781544D01*
X182617188Y-67713624D01*
X182766488Y-67683927D01*
X182791258Y-67679000D01*
X182968742Y-67679000D01*
X182993512Y-67683927D01*
G37*
G36*
X185533512Y-65143927D02*
G01*
X185682812Y-65173624D01*
X185846784Y-65241544D01*
X185994354Y-65340147D01*
X186119853Y-65465646D01*
X186218456Y-65613216D01*
X186286376Y-65777188D01*
X186321000Y-65951259D01*
X186321000Y-66128741D01*
X186286376Y-66302812D01*
X186218456Y-66466784D01*
X186119853Y-66614354D01*
X185994354Y-66739853D01*
X185846784Y-66838456D01*
X185682812Y-66906376D01*
X185533512Y-66936073D01*
X185508742Y-66941000D01*
X185331258Y-66941000D01*
X185306488Y-66936073D01*
X185157188Y-66906376D01*
X184993216Y-66838456D01*
X184845646Y-66739853D01*
X184720147Y-66614354D01*
X184621544Y-66466784D01*
X184553624Y-66302812D01*
X184519000Y-66128741D01*
X184519000Y-65951259D01*
X184553624Y-65777188D01*
X184621544Y-65613216D01*
X184720147Y-65465646D01*
X184845646Y-65340147D01*
X184993216Y-65241544D01*
X185157188Y-65173624D01*
X185306488Y-65143927D01*
X185331258Y-65139000D01*
X185508742Y-65139000D01*
X185533512Y-65143927D01*
G37*
G36*
X160133512Y-65143927D02*
G01*
X160282812Y-65173624D01*
X160446784Y-65241544D01*
X160594354Y-65340147D01*
X160719853Y-65465646D01*
X160818456Y-65613216D01*
X160886376Y-65777188D01*
X160921000Y-65951259D01*
X160921000Y-66128741D01*
X160886376Y-66302812D01*
X160818456Y-66466784D01*
X160719853Y-66614354D01*
X160594354Y-66739853D01*
X160446784Y-66838456D01*
X160282812Y-66906376D01*
X160133512Y-66936073D01*
X160108742Y-66941000D01*
X159931258Y-66941000D01*
X159906488Y-66936073D01*
X159757188Y-66906376D01*
X159593216Y-66838456D01*
X159445646Y-66739853D01*
X159320147Y-66614354D01*
X159221544Y-66466784D01*
X159153624Y-66302812D01*
X159119000Y-66128741D01*
X159119000Y-65951259D01*
X159153624Y-65777188D01*
X159221544Y-65613216D01*
X159320147Y-65465646D01*
X159445646Y-65340147D01*
X159593216Y-65241544D01*
X159757188Y-65173624D01*
X159906488Y-65143927D01*
X159931258Y-65139000D01*
X160108742Y-65139000D01*
X160133512Y-65143927D01*
G37*
G36*
X182993512Y-65143927D02*
G01*
X183142812Y-65173624D01*
X183306784Y-65241544D01*
X183454354Y-65340147D01*
X183579853Y-65465646D01*
X183678456Y-65613216D01*
X183746376Y-65777188D01*
X183781000Y-65951259D01*
X183781000Y-66128741D01*
X183746376Y-66302812D01*
X183678456Y-66466784D01*
X183579853Y-66614354D01*
X183454354Y-66739853D01*
X183306784Y-66838456D01*
X183142812Y-66906376D01*
X182993512Y-66936073D01*
X182968742Y-66941000D01*
X182791258Y-66941000D01*
X182766488Y-66936073D01*
X182617188Y-66906376D01*
X182453216Y-66838456D01*
X182305646Y-66739853D01*
X182180147Y-66614354D01*
X182081544Y-66466784D01*
X182013624Y-66302812D01*
X181979000Y-66128741D01*
X181979000Y-65951259D01*
X182013624Y-65777188D01*
X182081544Y-65613216D01*
X182180147Y-65465646D01*
X182305646Y-65340147D01*
X182453216Y-65241544D01*
X182617188Y-65173624D01*
X182766488Y-65143927D01*
X182791258Y-65139000D01*
X182968742Y-65139000D01*
X182993512Y-65143927D01*
G37*
G36*
X162673512Y-65143927D02*
G01*
X162822812Y-65173624D01*
X162986784Y-65241544D01*
X163134354Y-65340147D01*
X163259853Y-65465646D01*
X163358456Y-65613216D01*
X163426376Y-65777188D01*
X163461000Y-65951259D01*
X163461000Y-66128741D01*
X163426376Y-66302812D01*
X163358456Y-66466784D01*
X163259853Y-66614354D01*
X163134354Y-66739853D01*
X162986784Y-66838456D01*
X162822812Y-66906376D01*
X162673512Y-66936073D01*
X162648742Y-66941000D01*
X162471258Y-66941000D01*
X162446488Y-66936073D01*
X162297188Y-66906376D01*
X162133216Y-66838456D01*
X161985646Y-66739853D01*
X161860147Y-66614354D01*
X161761544Y-66466784D01*
X161693624Y-66302812D01*
X161659000Y-66128741D01*
X161659000Y-65951259D01*
X161693624Y-65777188D01*
X161761544Y-65613216D01*
X161860147Y-65465646D01*
X161985646Y-65340147D01*
X162133216Y-65241544D01*
X162297188Y-65173624D01*
X162446488Y-65143927D01*
X162471258Y-65139000D01*
X162648742Y-65139000D01*
X162673512Y-65143927D01*
G37*
G36*
X165213512Y-65143927D02*
G01*
X165362812Y-65173624D01*
X165526784Y-65241544D01*
X165674354Y-65340147D01*
X165799853Y-65465646D01*
X165898456Y-65613216D01*
X165966376Y-65777188D01*
X166001000Y-65951259D01*
X166001000Y-66128741D01*
X165966376Y-66302812D01*
X165898456Y-66466784D01*
X165799853Y-66614354D01*
X165674354Y-66739853D01*
X165526784Y-66838456D01*
X165362812Y-66906376D01*
X165213512Y-66936073D01*
X165188742Y-66941000D01*
X165011258Y-66941000D01*
X164986488Y-66936073D01*
X164837188Y-66906376D01*
X164673216Y-66838456D01*
X164525646Y-66739853D01*
X164400147Y-66614354D01*
X164301544Y-66466784D01*
X164233624Y-66302812D01*
X164199000Y-66128741D01*
X164199000Y-65951259D01*
X164233624Y-65777188D01*
X164301544Y-65613216D01*
X164400147Y-65465646D01*
X164525646Y-65340147D01*
X164673216Y-65241544D01*
X164837188Y-65173624D01*
X164986488Y-65143927D01*
X165011258Y-65139000D01*
X165188742Y-65139000D01*
X165213512Y-65143927D01*
G37*
G36*
X167753512Y-65143927D02*
G01*
X167902812Y-65173624D01*
X168066784Y-65241544D01*
X168214354Y-65340147D01*
X168339853Y-65465646D01*
X168438456Y-65613216D01*
X168506376Y-65777188D01*
X168541000Y-65951259D01*
X168541000Y-66128741D01*
X168506376Y-66302812D01*
X168438456Y-66466784D01*
X168339853Y-66614354D01*
X168214354Y-66739853D01*
X168066784Y-66838456D01*
X167902812Y-66906376D01*
X167753512Y-66936073D01*
X167728742Y-66941000D01*
X167551258Y-66941000D01*
X167526488Y-66936073D01*
X167377188Y-66906376D01*
X167213216Y-66838456D01*
X167065646Y-66739853D01*
X166940147Y-66614354D01*
X166841544Y-66466784D01*
X166773624Y-66302812D01*
X166739000Y-66128741D01*
X166739000Y-65951259D01*
X166773624Y-65777188D01*
X166841544Y-65613216D01*
X166940147Y-65465646D01*
X167065646Y-65340147D01*
X167213216Y-65241544D01*
X167377188Y-65173624D01*
X167526488Y-65143927D01*
X167551258Y-65139000D01*
X167728742Y-65139000D01*
X167753512Y-65143927D01*
G37*
G36*
X170293512Y-65143927D02*
G01*
X170442812Y-65173624D01*
X170606784Y-65241544D01*
X170754354Y-65340147D01*
X170879853Y-65465646D01*
X170978456Y-65613216D01*
X171046376Y-65777188D01*
X171081000Y-65951259D01*
X171081000Y-66128741D01*
X171046376Y-66302812D01*
X170978456Y-66466784D01*
X170879853Y-66614354D01*
X170754354Y-66739853D01*
X170606784Y-66838456D01*
X170442812Y-66906376D01*
X170293512Y-66936073D01*
X170268742Y-66941000D01*
X170091258Y-66941000D01*
X170066488Y-66936073D01*
X169917188Y-66906376D01*
X169753216Y-66838456D01*
X169605646Y-66739853D01*
X169480147Y-66614354D01*
X169381544Y-66466784D01*
X169313624Y-66302812D01*
X169279000Y-66128741D01*
X169279000Y-65951259D01*
X169313624Y-65777188D01*
X169381544Y-65613216D01*
X169480147Y-65465646D01*
X169605646Y-65340147D01*
X169753216Y-65241544D01*
X169917188Y-65173624D01*
X170066488Y-65143927D01*
X170091258Y-65139000D01*
X170268742Y-65139000D01*
X170293512Y-65143927D01*
G37*
G36*
X172833512Y-65143927D02*
G01*
X172982812Y-65173624D01*
X173146784Y-65241544D01*
X173294354Y-65340147D01*
X173419853Y-65465646D01*
X173518456Y-65613216D01*
X173586376Y-65777188D01*
X173621000Y-65951259D01*
X173621000Y-66128741D01*
X173586376Y-66302812D01*
X173518456Y-66466784D01*
X173419853Y-66614354D01*
X173294354Y-66739853D01*
X173146784Y-66838456D01*
X172982812Y-66906376D01*
X172833512Y-66936073D01*
X172808742Y-66941000D01*
X172631258Y-66941000D01*
X172606488Y-66936073D01*
X172457188Y-66906376D01*
X172293216Y-66838456D01*
X172145646Y-66739853D01*
X172020147Y-66614354D01*
X171921544Y-66466784D01*
X171853624Y-66302812D01*
X171819000Y-66128741D01*
X171819000Y-65951259D01*
X171853624Y-65777188D01*
X171921544Y-65613216D01*
X172020147Y-65465646D01*
X172145646Y-65340147D01*
X172293216Y-65241544D01*
X172457188Y-65173624D01*
X172606488Y-65143927D01*
X172631258Y-65139000D01*
X172808742Y-65139000D01*
X172833512Y-65143927D01*
G37*
G36*
X175373512Y-65143927D02*
G01*
X175522812Y-65173624D01*
X175686784Y-65241544D01*
X175834354Y-65340147D01*
X175959853Y-65465646D01*
X176058456Y-65613216D01*
X176126376Y-65777188D01*
X176161000Y-65951259D01*
X176161000Y-66128741D01*
X176126376Y-66302812D01*
X176058456Y-66466784D01*
X175959853Y-66614354D01*
X175834354Y-66739853D01*
X175686784Y-66838456D01*
X175522812Y-66906376D01*
X175373512Y-66936073D01*
X175348742Y-66941000D01*
X175171258Y-66941000D01*
X175146488Y-66936073D01*
X174997188Y-66906376D01*
X174833216Y-66838456D01*
X174685646Y-66739853D01*
X174560147Y-66614354D01*
X174461544Y-66466784D01*
X174393624Y-66302812D01*
X174359000Y-66128741D01*
X174359000Y-65951259D01*
X174393624Y-65777188D01*
X174461544Y-65613216D01*
X174560147Y-65465646D01*
X174685646Y-65340147D01*
X174833216Y-65241544D01*
X174997188Y-65173624D01*
X175146488Y-65143927D01*
X175171258Y-65139000D01*
X175348742Y-65139000D01*
X175373512Y-65143927D01*
G37*
G36*
X177913512Y-65143927D02*
G01*
X178062812Y-65173624D01*
X178226784Y-65241544D01*
X178374354Y-65340147D01*
X178499853Y-65465646D01*
X178598456Y-65613216D01*
X178666376Y-65777188D01*
X178701000Y-65951259D01*
X178701000Y-66128741D01*
X178666376Y-66302812D01*
X178598456Y-66466784D01*
X178499853Y-66614354D01*
X178374354Y-66739853D01*
X178226784Y-66838456D01*
X178062812Y-66906376D01*
X177913512Y-66936073D01*
X177888742Y-66941000D01*
X177711258Y-66941000D01*
X177686488Y-66936073D01*
X177537188Y-66906376D01*
X177373216Y-66838456D01*
X177225646Y-66739853D01*
X177100147Y-66614354D01*
X177001544Y-66466784D01*
X176933624Y-66302812D01*
X176899000Y-66128741D01*
X176899000Y-65951259D01*
X176933624Y-65777188D01*
X177001544Y-65613216D01*
X177100147Y-65465646D01*
X177225646Y-65340147D01*
X177373216Y-65241544D01*
X177537188Y-65173624D01*
X177686488Y-65143927D01*
X177711258Y-65139000D01*
X177888742Y-65139000D01*
X177913512Y-65143927D01*
G37*
G36*
X190613512Y-65143927D02*
G01*
X190762812Y-65173624D01*
X190926784Y-65241544D01*
X191074354Y-65340147D01*
X191199853Y-65465646D01*
X191298456Y-65613216D01*
X191366376Y-65777188D01*
X191401000Y-65951259D01*
X191401000Y-66128741D01*
X191366376Y-66302812D01*
X191298456Y-66466784D01*
X191199853Y-66614354D01*
X191074354Y-66739853D01*
X190926784Y-66838456D01*
X190762812Y-66906376D01*
X190613512Y-66936073D01*
X190588742Y-66941000D01*
X190411258Y-66941000D01*
X190386488Y-66936073D01*
X190237188Y-66906376D01*
X190073216Y-66838456D01*
X189925646Y-66739853D01*
X189800147Y-66614354D01*
X189701544Y-66466784D01*
X189633624Y-66302812D01*
X189599000Y-66128741D01*
X189599000Y-65951259D01*
X189633624Y-65777188D01*
X189701544Y-65613216D01*
X189800147Y-65465646D01*
X189925646Y-65340147D01*
X190073216Y-65241544D01*
X190237188Y-65173624D01*
X190386488Y-65143927D01*
X190411258Y-65139000D01*
X190588742Y-65139000D01*
X190613512Y-65143927D01*
G37*
G36*
X188073512Y-65143927D02*
G01*
X188222812Y-65173624D01*
X188386784Y-65241544D01*
X188534354Y-65340147D01*
X188659853Y-65465646D01*
X188758456Y-65613216D01*
X188826376Y-65777188D01*
X188861000Y-65951259D01*
X188861000Y-66128741D01*
X188826376Y-66302812D01*
X188758456Y-66466784D01*
X188659853Y-66614354D01*
X188534354Y-66739853D01*
X188386784Y-66838456D01*
X188222812Y-66906376D01*
X188073512Y-66936073D01*
X188048742Y-66941000D01*
X187871258Y-66941000D01*
X187846488Y-66936073D01*
X187697188Y-66906376D01*
X187533216Y-66838456D01*
X187385646Y-66739853D01*
X187260147Y-66614354D01*
X187161544Y-66466784D01*
X187093624Y-66302812D01*
X187059000Y-66128741D01*
X187059000Y-65951259D01*
X187093624Y-65777188D01*
X187161544Y-65613216D01*
X187260147Y-65465646D01*
X187385646Y-65340147D01*
X187533216Y-65241544D01*
X187697188Y-65173624D01*
X187846488Y-65143927D01*
X187871258Y-65139000D01*
X188048742Y-65139000D01*
X188073512Y-65143927D01*
G37*
G36*
X208393512Y-65143927D02*
G01*
X208542812Y-65173624D01*
X208706784Y-65241544D01*
X208854354Y-65340147D01*
X208979853Y-65465646D01*
X209078456Y-65613216D01*
X209146376Y-65777188D01*
X209181000Y-65951259D01*
X209181000Y-66128741D01*
X209146376Y-66302812D01*
X209078456Y-66466784D01*
X208979853Y-66614354D01*
X208854354Y-66739853D01*
X208706784Y-66838456D01*
X208542812Y-66906376D01*
X208393512Y-66936073D01*
X208368742Y-66941000D01*
X208191258Y-66941000D01*
X208166488Y-66936073D01*
X208017188Y-66906376D01*
X207853216Y-66838456D01*
X207705646Y-66739853D01*
X207580147Y-66614354D01*
X207481544Y-66466784D01*
X207413624Y-66302812D01*
X207379000Y-66128741D01*
X207379000Y-65951259D01*
X207413624Y-65777188D01*
X207481544Y-65613216D01*
X207580147Y-65465646D01*
X207705646Y-65340147D01*
X207853216Y-65241544D01*
X208017188Y-65173624D01*
X208166488Y-65143927D01*
X208191258Y-65139000D01*
X208368742Y-65139000D01*
X208393512Y-65143927D01*
G37*
G36*
X180453512Y-65143927D02*
G01*
X180602812Y-65173624D01*
X180766784Y-65241544D01*
X180914354Y-65340147D01*
X181039853Y-65465646D01*
X181138456Y-65613216D01*
X181206376Y-65777188D01*
X181241000Y-65951259D01*
X181241000Y-66128741D01*
X181206376Y-66302812D01*
X181138456Y-66466784D01*
X181039853Y-66614354D01*
X180914354Y-66739853D01*
X180766784Y-66838456D01*
X180602812Y-66906376D01*
X180453512Y-66936073D01*
X180428742Y-66941000D01*
X180251258Y-66941000D01*
X180226488Y-66936073D01*
X180077188Y-66906376D01*
X179913216Y-66838456D01*
X179765646Y-66739853D01*
X179640147Y-66614354D01*
X179541544Y-66466784D01*
X179473624Y-66302812D01*
X179439000Y-66128741D01*
X179439000Y-65951259D01*
X179473624Y-65777188D01*
X179541544Y-65613216D01*
X179640147Y-65465646D01*
X179765646Y-65340147D01*
X179913216Y-65241544D01*
X180077188Y-65173624D01*
X180226488Y-65143927D01*
X180251258Y-65139000D01*
X180428742Y-65139000D01*
X180453512Y-65143927D01*
G37*
G36*
X205853512Y-65143927D02*
G01*
X206002812Y-65173624D01*
X206166784Y-65241544D01*
X206314354Y-65340147D01*
X206439853Y-65465646D01*
X206538456Y-65613216D01*
X206606376Y-65777188D01*
X206641000Y-65951259D01*
X206641000Y-66128741D01*
X206606376Y-66302812D01*
X206538456Y-66466784D01*
X206439853Y-66614354D01*
X206314354Y-66739853D01*
X206166784Y-66838456D01*
X206002812Y-66906376D01*
X205853512Y-66936073D01*
X205828742Y-66941000D01*
X205651258Y-66941000D01*
X205626488Y-66936073D01*
X205477188Y-66906376D01*
X205313216Y-66838456D01*
X205165646Y-66739853D01*
X205040147Y-66614354D01*
X204941544Y-66466784D01*
X204873624Y-66302812D01*
X204839000Y-66128741D01*
X204839000Y-65951259D01*
X204873624Y-65777188D01*
X204941544Y-65613216D01*
X205040147Y-65465646D01*
X205165646Y-65340147D01*
X205313216Y-65241544D01*
X205477188Y-65173624D01*
X205626488Y-65143927D01*
X205651258Y-65139000D01*
X205828742Y-65139000D01*
X205853512Y-65143927D01*
G37*
G36*
X203313512Y-65143927D02*
G01*
X203462812Y-65173624D01*
X203626784Y-65241544D01*
X203774354Y-65340147D01*
X203899853Y-65465646D01*
X203998456Y-65613216D01*
X204066376Y-65777188D01*
X204101000Y-65951259D01*
X204101000Y-66128741D01*
X204066376Y-66302812D01*
X203998456Y-66466784D01*
X203899853Y-66614354D01*
X203774354Y-66739853D01*
X203626784Y-66838456D01*
X203462812Y-66906376D01*
X203313512Y-66936073D01*
X203288742Y-66941000D01*
X203111258Y-66941000D01*
X203086488Y-66936073D01*
X202937188Y-66906376D01*
X202773216Y-66838456D01*
X202625646Y-66739853D01*
X202500147Y-66614354D01*
X202401544Y-66466784D01*
X202333624Y-66302812D01*
X202299000Y-66128741D01*
X202299000Y-65951259D01*
X202333624Y-65777188D01*
X202401544Y-65613216D01*
X202500147Y-65465646D01*
X202625646Y-65340147D01*
X202773216Y-65241544D01*
X202937188Y-65173624D01*
X203086488Y-65143927D01*
X203111258Y-65139000D01*
X203288742Y-65139000D01*
X203313512Y-65143927D01*
G37*
G36*
X200773512Y-65143927D02*
G01*
X200922812Y-65173624D01*
X201086784Y-65241544D01*
X201234354Y-65340147D01*
X201359853Y-65465646D01*
X201458456Y-65613216D01*
X201526376Y-65777188D01*
X201561000Y-65951259D01*
X201561000Y-66128741D01*
X201526376Y-66302812D01*
X201458456Y-66466784D01*
X201359853Y-66614354D01*
X201234354Y-66739853D01*
X201086784Y-66838456D01*
X200922812Y-66906376D01*
X200773512Y-66936073D01*
X200748742Y-66941000D01*
X200571258Y-66941000D01*
X200546488Y-66936073D01*
X200397188Y-66906376D01*
X200233216Y-66838456D01*
X200085646Y-66739853D01*
X199960147Y-66614354D01*
X199861544Y-66466784D01*
X199793624Y-66302812D01*
X199759000Y-66128741D01*
X199759000Y-65951259D01*
X199793624Y-65777188D01*
X199861544Y-65613216D01*
X199960147Y-65465646D01*
X200085646Y-65340147D01*
X200233216Y-65241544D01*
X200397188Y-65173624D01*
X200546488Y-65143927D01*
X200571258Y-65139000D01*
X200748742Y-65139000D01*
X200773512Y-65143927D01*
G37*
G36*
X198233512Y-65143927D02*
G01*
X198382812Y-65173624D01*
X198546784Y-65241544D01*
X198694354Y-65340147D01*
X198819853Y-65465646D01*
X198918456Y-65613216D01*
X198986376Y-65777188D01*
X199021000Y-65951259D01*
X199021000Y-66128741D01*
X198986376Y-66302812D01*
X198918456Y-66466784D01*
X198819853Y-66614354D01*
X198694354Y-66739853D01*
X198546784Y-66838456D01*
X198382812Y-66906376D01*
X198233512Y-66936073D01*
X198208742Y-66941000D01*
X198031258Y-66941000D01*
X198006488Y-66936073D01*
X197857188Y-66906376D01*
X197693216Y-66838456D01*
X197545646Y-66739853D01*
X197420147Y-66614354D01*
X197321544Y-66466784D01*
X197253624Y-66302812D01*
X197219000Y-66128741D01*
X197219000Y-65951259D01*
X197253624Y-65777188D01*
X197321544Y-65613216D01*
X197420147Y-65465646D01*
X197545646Y-65340147D01*
X197693216Y-65241544D01*
X197857188Y-65173624D01*
X198006488Y-65143927D01*
X198031258Y-65139000D01*
X198208742Y-65139000D01*
X198233512Y-65143927D01*
G37*
G36*
X195693512Y-65143927D02*
G01*
X195842812Y-65173624D01*
X196006784Y-65241544D01*
X196154354Y-65340147D01*
X196279853Y-65465646D01*
X196378456Y-65613216D01*
X196446376Y-65777188D01*
X196481000Y-65951259D01*
X196481000Y-66128741D01*
X196446376Y-66302812D01*
X196378456Y-66466784D01*
X196279853Y-66614354D01*
X196154354Y-66739853D01*
X196006784Y-66838456D01*
X195842812Y-66906376D01*
X195693512Y-66936073D01*
X195668742Y-66941000D01*
X195491258Y-66941000D01*
X195466488Y-66936073D01*
X195317188Y-66906376D01*
X195153216Y-66838456D01*
X195005646Y-66739853D01*
X194880147Y-66614354D01*
X194781544Y-66466784D01*
X194713624Y-66302812D01*
X194679000Y-66128741D01*
X194679000Y-65951259D01*
X194713624Y-65777188D01*
X194781544Y-65613216D01*
X194880147Y-65465646D01*
X195005646Y-65340147D01*
X195153216Y-65241544D01*
X195317188Y-65173624D01*
X195466488Y-65143927D01*
X195491258Y-65139000D01*
X195668742Y-65139000D01*
X195693512Y-65143927D01*
G37*
G36*
X193153512Y-65143927D02*
G01*
X193302812Y-65173624D01*
X193466784Y-65241544D01*
X193614354Y-65340147D01*
X193739853Y-65465646D01*
X193838456Y-65613216D01*
X193906376Y-65777188D01*
X193941000Y-65951259D01*
X193941000Y-66128741D01*
X193906376Y-66302812D01*
X193838456Y-66466784D01*
X193739853Y-66614354D01*
X193614354Y-66739853D01*
X193466784Y-66838456D01*
X193302812Y-66906376D01*
X193153512Y-66936073D01*
X193128742Y-66941000D01*
X192951258Y-66941000D01*
X192926488Y-66936073D01*
X192777188Y-66906376D01*
X192613216Y-66838456D01*
X192465646Y-66739853D01*
X192340147Y-66614354D01*
X192241544Y-66466784D01*
X192173624Y-66302812D01*
X192139000Y-66128741D01*
X192139000Y-65951259D01*
X192173624Y-65777188D01*
X192241544Y-65613216D01*
X192340147Y-65465646D01*
X192465646Y-65340147D01*
X192613216Y-65241544D01*
X192777188Y-65173624D01*
X192926488Y-65143927D01*
X192951258Y-65139000D01*
X193128742Y-65139000D01*
X193153512Y-65143927D01*
G37*
G36*
X182993512Y-62603927D02*
G01*
X183142812Y-62633624D01*
X183306784Y-62701544D01*
X183454354Y-62800147D01*
X183579853Y-62925646D01*
X183678456Y-63073216D01*
X183746376Y-63237188D01*
X183781000Y-63411259D01*
X183781000Y-63588741D01*
X183746376Y-63762812D01*
X183678456Y-63926784D01*
X183579853Y-64074354D01*
X183454354Y-64199853D01*
X183306784Y-64298456D01*
X183142812Y-64366376D01*
X182993512Y-64396073D01*
X182968742Y-64401000D01*
X182791258Y-64401000D01*
X182766488Y-64396073D01*
X182617188Y-64366376D01*
X182453216Y-64298456D01*
X182305646Y-64199853D01*
X182180147Y-64074354D01*
X182081544Y-63926784D01*
X182013624Y-63762812D01*
X181979000Y-63588741D01*
X181979000Y-63411259D01*
X182013624Y-63237188D01*
X182081544Y-63073216D01*
X182180147Y-62925646D01*
X182305646Y-62800147D01*
X182453216Y-62701544D01*
X182617188Y-62633624D01*
X182766488Y-62603927D01*
X182791258Y-62599000D01*
X182968742Y-62599000D01*
X182993512Y-62603927D01*
G37*
G36*
X180453512Y-62603927D02*
G01*
X180602812Y-62633624D01*
X180766784Y-62701544D01*
X180914354Y-62800147D01*
X181039853Y-62925646D01*
X181138456Y-63073216D01*
X181206376Y-63237188D01*
X181241000Y-63411259D01*
X181241000Y-63588741D01*
X181206376Y-63762812D01*
X181138456Y-63926784D01*
X181039853Y-64074354D01*
X180914354Y-64199853D01*
X180766784Y-64298456D01*
X180602812Y-64366376D01*
X180453512Y-64396073D01*
X180428742Y-64401000D01*
X180251258Y-64401000D01*
X180226488Y-64396073D01*
X180077188Y-64366376D01*
X179913216Y-64298456D01*
X179765646Y-64199853D01*
X179640147Y-64074354D01*
X179541544Y-63926784D01*
X179473624Y-63762812D01*
X179439000Y-63588741D01*
X179439000Y-63411259D01*
X179473624Y-63237188D01*
X179541544Y-63073216D01*
X179640147Y-62925646D01*
X179765646Y-62800147D01*
X179913216Y-62701544D01*
X180077188Y-62633624D01*
X180226488Y-62603927D01*
X180251258Y-62599000D01*
X180428742Y-62599000D01*
X180453512Y-62603927D01*
G37*
G36*
X177913512Y-62603927D02*
G01*
X178062812Y-62633624D01*
X178226784Y-62701544D01*
X178374354Y-62800147D01*
X178499853Y-62925646D01*
X178598456Y-63073216D01*
X178666376Y-63237188D01*
X178701000Y-63411259D01*
X178701000Y-63588741D01*
X178666376Y-63762812D01*
X178598456Y-63926784D01*
X178499853Y-64074354D01*
X178374354Y-64199853D01*
X178226784Y-64298456D01*
X178062812Y-64366376D01*
X177913512Y-64396073D01*
X177888742Y-64401000D01*
X177711258Y-64401000D01*
X177686488Y-64396073D01*
X177537188Y-64366376D01*
X177373216Y-64298456D01*
X177225646Y-64199853D01*
X177100147Y-64074354D01*
X177001544Y-63926784D01*
X176933624Y-63762812D01*
X176899000Y-63588741D01*
X176899000Y-63411259D01*
X176933624Y-63237188D01*
X177001544Y-63073216D01*
X177100147Y-62925646D01*
X177225646Y-62800147D01*
X177373216Y-62701544D01*
X177537188Y-62633624D01*
X177686488Y-62603927D01*
X177711258Y-62599000D01*
X177888742Y-62599000D01*
X177913512Y-62603927D01*
G37*
G36*
X175373512Y-62603927D02*
G01*
X175522812Y-62633624D01*
X175686784Y-62701544D01*
X175834354Y-62800147D01*
X175959853Y-62925646D01*
X176058456Y-63073216D01*
X176126376Y-63237188D01*
X176161000Y-63411259D01*
X176161000Y-63588741D01*
X176126376Y-63762812D01*
X176058456Y-63926784D01*
X175959853Y-64074354D01*
X175834354Y-64199853D01*
X175686784Y-64298456D01*
X175522812Y-64366376D01*
X175373512Y-64396073D01*
X175348742Y-64401000D01*
X175171258Y-64401000D01*
X175146488Y-64396073D01*
X174997188Y-64366376D01*
X174833216Y-64298456D01*
X174685646Y-64199853D01*
X174560147Y-64074354D01*
X174461544Y-63926784D01*
X174393624Y-63762812D01*
X174359000Y-63588741D01*
X174359000Y-63411259D01*
X174393624Y-63237188D01*
X174461544Y-63073216D01*
X174560147Y-62925646D01*
X174685646Y-62800147D01*
X174833216Y-62701544D01*
X174997188Y-62633624D01*
X175146488Y-62603927D01*
X175171258Y-62599000D01*
X175348742Y-62599000D01*
X175373512Y-62603927D01*
G37*
G36*
X172833512Y-62603927D02*
G01*
X172982812Y-62633624D01*
X173146784Y-62701544D01*
X173294354Y-62800147D01*
X173419853Y-62925646D01*
X173518456Y-63073216D01*
X173586376Y-63237188D01*
X173621000Y-63411259D01*
X173621000Y-63588741D01*
X173586376Y-63762812D01*
X173518456Y-63926784D01*
X173419853Y-64074354D01*
X173294354Y-64199853D01*
X173146784Y-64298456D01*
X172982812Y-64366376D01*
X172833512Y-64396073D01*
X172808742Y-64401000D01*
X172631258Y-64401000D01*
X172606488Y-64396073D01*
X172457188Y-64366376D01*
X172293216Y-64298456D01*
X172145646Y-64199853D01*
X172020147Y-64074354D01*
X171921544Y-63926784D01*
X171853624Y-63762812D01*
X171819000Y-63588741D01*
X171819000Y-63411259D01*
X171853624Y-63237188D01*
X171921544Y-63073216D01*
X172020147Y-62925646D01*
X172145646Y-62800147D01*
X172293216Y-62701544D01*
X172457188Y-62633624D01*
X172606488Y-62603927D01*
X172631258Y-62599000D01*
X172808742Y-62599000D01*
X172833512Y-62603927D01*
G37*
G36*
X170293512Y-62603927D02*
G01*
X170442812Y-62633624D01*
X170606784Y-62701544D01*
X170754354Y-62800147D01*
X170879853Y-62925646D01*
X170978456Y-63073216D01*
X171046376Y-63237188D01*
X171081000Y-63411259D01*
X171081000Y-63588741D01*
X171046376Y-63762812D01*
X170978456Y-63926784D01*
X170879853Y-64074354D01*
X170754354Y-64199853D01*
X170606784Y-64298456D01*
X170442812Y-64366376D01*
X170293512Y-64396073D01*
X170268742Y-64401000D01*
X170091258Y-64401000D01*
X170066488Y-64396073D01*
X169917188Y-64366376D01*
X169753216Y-64298456D01*
X169605646Y-64199853D01*
X169480147Y-64074354D01*
X169381544Y-63926784D01*
X169313624Y-63762812D01*
X169279000Y-63588741D01*
X169279000Y-63411259D01*
X169313624Y-63237188D01*
X169381544Y-63073216D01*
X169480147Y-62925646D01*
X169605646Y-62800147D01*
X169753216Y-62701544D01*
X169917188Y-62633624D01*
X170066488Y-62603927D01*
X170091258Y-62599000D01*
X170268742Y-62599000D01*
X170293512Y-62603927D01*
G37*
G36*
X167753512Y-62603927D02*
G01*
X167902812Y-62633624D01*
X168066784Y-62701544D01*
X168214354Y-62800147D01*
X168339853Y-62925646D01*
X168438456Y-63073216D01*
X168506376Y-63237188D01*
X168541000Y-63411259D01*
X168541000Y-63588741D01*
X168506376Y-63762812D01*
X168438456Y-63926784D01*
X168339853Y-64074354D01*
X168214354Y-64199853D01*
X168066784Y-64298456D01*
X167902812Y-64366376D01*
X167753512Y-64396073D01*
X167728742Y-64401000D01*
X167551258Y-64401000D01*
X167526488Y-64396073D01*
X167377188Y-64366376D01*
X167213216Y-64298456D01*
X167065646Y-64199853D01*
X166940147Y-64074354D01*
X166841544Y-63926784D01*
X166773624Y-63762812D01*
X166739000Y-63588741D01*
X166739000Y-63411259D01*
X166773624Y-63237188D01*
X166841544Y-63073216D01*
X166940147Y-62925646D01*
X167065646Y-62800147D01*
X167213216Y-62701544D01*
X167377188Y-62633624D01*
X167526488Y-62603927D01*
X167551258Y-62599000D01*
X167728742Y-62599000D01*
X167753512Y-62603927D01*
G37*
G36*
X165213512Y-62603927D02*
G01*
X165362812Y-62633624D01*
X165526784Y-62701544D01*
X165674354Y-62800147D01*
X165799853Y-62925646D01*
X165898456Y-63073216D01*
X165966376Y-63237188D01*
X166001000Y-63411259D01*
X166001000Y-63588741D01*
X165966376Y-63762812D01*
X165898456Y-63926784D01*
X165799853Y-64074354D01*
X165674354Y-64199853D01*
X165526784Y-64298456D01*
X165362812Y-64366376D01*
X165213512Y-64396073D01*
X165188742Y-64401000D01*
X165011258Y-64401000D01*
X164986488Y-64396073D01*
X164837188Y-64366376D01*
X164673216Y-64298456D01*
X164525646Y-64199853D01*
X164400147Y-64074354D01*
X164301544Y-63926784D01*
X164233624Y-63762812D01*
X164199000Y-63588741D01*
X164199000Y-63411259D01*
X164233624Y-63237188D01*
X164301544Y-63073216D01*
X164400147Y-62925646D01*
X164525646Y-62800147D01*
X164673216Y-62701544D01*
X164837188Y-62633624D01*
X164986488Y-62603927D01*
X165011258Y-62599000D01*
X165188742Y-62599000D01*
X165213512Y-62603927D01*
G37*
G36*
X190613512Y-62603927D02*
G01*
X190762812Y-62633624D01*
X190926784Y-62701544D01*
X191074354Y-62800147D01*
X191199853Y-62925646D01*
X191298456Y-63073216D01*
X191366376Y-63237188D01*
X191401000Y-63411259D01*
X191401000Y-63588741D01*
X191366376Y-63762812D01*
X191298456Y-63926784D01*
X191199853Y-64074354D01*
X191074354Y-64199853D01*
X190926784Y-64298456D01*
X190762812Y-64366376D01*
X190613512Y-64396073D01*
X190588742Y-64401000D01*
X190411258Y-64401000D01*
X190386488Y-64396073D01*
X190237188Y-64366376D01*
X190073216Y-64298456D01*
X189925646Y-64199853D01*
X189800147Y-64074354D01*
X189701544Y-63926784D01*
X189633624Y-63762812D01*
X189599000Y-63588741D01*
X189599000Y-63411259D01*
X189633624Y-63237188D01*
X189701544Y-63073216D01*
X189800147Y-62925646D01*
X189925646Y-62800147D01*
X190073216Y-62701544D01*
X190237188Y-62633624D01*
X190386488Y-62603927D01*
X190411258Y-62599000D01*
X190588742Y-62599000D01*
X190613512Y-62603927D01*
G37*
G36*
X203313512Y-62603927D02*
G01*
X203462812Y-62633624D01*
X203626784Y-62701544D01*
X203774354Y-62800147D01*
X203899853Y-62925646D01*
X203998456Y-63073216D01*
X204066376Y-63237188D01*
X204101000Y-63411259D01*
X204101000Y-63588741D01*
X204066376Y-63762812D01*
X203998456Y-63926784D01*
X203899853Y-64074354D01*
X203774354Y-64199853D01*
X203626784Y-64298456D01*
X203462812Y-64366376D01*
X203313512Y-64396073D01*
X203288742Y-64401000D01*
X203111258Y-64401000D01*
X203086488Y-64396073D01*
X202937188Y-64366376D01*
X202773216Y-64298456D01*
X202625646Y-64199853D01*
X202500147Y-64074354D01*
X202401544Y-63926784D01*
X202333624Y-63762812D01*
X202299000Y-63588741D01*
X202299000Y-63411259D01*
X202333624Y-63237188D01*
X202401544Y-63073216D01*
X202500147Y-62925646D01*
X202625646Y-62800147D01*
X202773216Y-62701544D01*
X202937188Y-62633624D01*
X203086488Y-62603927D01*
X203111258Y-62599000D01*
X203288742Y-62599000D01*
X203313512Y-62603927D01*
G37*
G36*
X200773512Y-62603927D02*
G01*
X200922812Y-62633624D01*
X201086784Y-62701544D01*
X201234354Y-62800147D01*
X201359853Y-62925646D01*
X201458456Y-63073216D01*
X201526376Y-63237188D01*
X201561000Y-63411259D01*
X201561000Y-63588741D01*
X201526376Y-63762812D01*
X201458456Y-63926784D01*
X201359853Y-64074354D01*
X201234354Y-64199853D01*
X201086784Y-64298456D01*
X200922812Y-64366376D01*
X200773512Y-64396073D01*
X200748742Y-64401000D01*
X200571258Y-64401000D01*
X200546488Y-64396073D01*
X200397188Y-64366376D01*
X200233216Y-64298456D01*
X200085646Y-64199853D01*
X199960147Y-64074354D01*
X199861544Y-63926784D01*
X199793624Y-63762812D01*
X199759000Y-63588741D01*
X199759000Y-63411259D01*
X199793624Y-63237188D01*
X199861544Y-63073216D01*
X199960147Y-62925646D01*
X200085646Y-62800147D01*
X200233216Y-62701544D01*
X200397188Y-62633624D01*
X200546488Y-62603927D01*
X200571258Y-62599000D01*
X200748742Y-62599000D01*
X200773512Y-62603927D01*
G37*
G36*
X198233512Y-62603927D02*
G01*
X198382812Y-62633624D01*
X198546784Y-62701544D01*
X198694354Y-62800147D01*
X198819853Y-62925646D01*
X198918456Y-63073216D01*
X198986376Y-63237188D01*
X199021000Y-63411259D01*
X199021000Y-63588741D01*
X198986376Y-63762812D01*
X198918456Y-63926784D01*
X198819853Y-64074354D01*
X198694354Y-64199853D01*
X198546784Y-64298456D01*
X198382812Y-64366376D01*
X198233512Y-64396073D01*
X198208742Y-64401000D01*
X198031258Y-64401000D01*
X198006488Y-64396073D01*
X197857188Y-64366376D01*
X197693216Y-64298456D01*
X197545646Y-64199853D01*
X197420147Y-64074354D01*
X197321544Y-63926784D01*
X197253624Y-63762812D01*
X197219000Y-63588741D01*
X197219000Y-63411259D01*
X197253624Y-63237188D01*
X197321544Y-63073216D01*
X197420147Y-62925646D01*
X197545646Y-62800147D01*
X197693216Y-62701544D01*
X197857188Y-62633624D01*
X198006488Y-62603927D01*
X198031258Y-62599000D01*
X198208742Y-62599000D01*
X198233512Y-62603927D01*
G37*
G36*
X195693512Y-62603927D02*
G01*
X195842812Y-62633624D01*
X196006784Y-62701544D01*
X196154354Y-62800147D01*
X196279853Y-62925646D01*
X196378456Y-63073216D01*
X196446376Y-63237188D01*
X196481000Y-63411259D01*
X196481000Y-63588741D01*
X196446376Y-63762812D01*
X196378456Y-63926784D01*
X196279853Y-64074354D01*
X196154354Y-64199853D01*
X196006784Y-64298456D01*
X195842812Y-64366376D01*
X195693512Y-64396073D01*
X195668742Y-64401000D01*
X195491258Y-64401000D01*
X195466488Y-64396073D01*
X195317188Y-64366376D01*
X195153216Y-64298456D01*
X195005646Y-64199853D01*
X194880147Y-64074354D01*
X194781544Y-63926784D01*
X194713624Y-63762812D01*
X194679000Y-63588741D01*
X194679000Y-63411259D01*
X194713624Y-63237188D01*
X194781544Y-63073216D01*
X194880147Y-62925646D01*
X195005646Y-62800147D01*
X195153216Y-62701544D01*
X195317188Y-62633624D01*
X195466488Y-62603927D01*
X195491258Y-62599000D01*
X195668742Y-62599000D01*
X195693512Y-62603927D01*
G37*
G36*
X193153512Y-62603927D02*
G01*
X193302812Y-62633624D01*
X193466784Y-62701544D01*
X193614354Y-62800147D01*
X193739853Y-62925646D01*
X193838456Y-63073216D01*
X193906376Y-63237188D01*
X193941000Y-63411259D01*
X193941000Y-63588741D01*
X193906376Y-63762812D01*
X193838456Y-63926784D01*
X193739853Y-64074354D01*
X193614354Y-64199853D01*
X193466784Y-64298456D01*
X193302812Y-64366376D01*
X193153512Y-64396073D01*
X193128742Y-64401000D01*
X192951258Y-64401000D01*
X192926488Y-64396073D01*
X192777188Y-64366376D01*
X192613216Y-64298456D01*
X192465646Y-64199853D01*
X192340147Y-64074354D01*
X192241544Y-63926784D01*
X192173624Y-63762812D01*
X192139000Y-63588741D01*
X192139000Y-63411259D01*
X192173624Y-63237188D01*
X192241544Y-63073216D01*
X192340147Y-62925646D01*
X192465646Y-62800147D01*
X192613216Y-62701544D01*
X192777188Y-62633624D01*
X192926488Y-62603927D01*
X192951258Y-62599000D01*
X193128742Y-62599000D01*
X193153512Y-62603927D01*
G37*
G36*
X188073512Y-62603927D02*
G01*
X188222812Y-62633624D01*
X188386784Y-62701544D01*
X188534354Y-62800147D01*
X188659853Y-62925646D01*
X188758456Y-63073216D01*
X188826376Y-63237188D01*
X188861000Y-63411259D01*
X188861000Y-63588741D01*
X188826376Y-63762812D01*
X188758456Y-63926784D01*
X188659853Y-64074354D01*
X188534354Y-64199853D01*
X188386784Y-64298456D01*
X188222812Y-64366376D01*
X188073512Y-64396073D01*
X188048742Y-64401000D01*
X187871258Y-64401000D01*
X187846488Y-64396073D01*
X187697188Y-64366376D01*
X187533216Y-64298456D01*
X187385646Y-64199853D01*
X187260147Y-64074354D01*
X187161544Y-63926784D01*
X187093624Y-63762812D01*
X187059000Y-63588741D01*
X187059000Y-63411259D01*
X187093624Y-63237188D01*
X187161544Y-63073216D01*
X187260147Y-62925646D01*
X187385646Y-62800147D01*
X187533216Y-62701544D01*
X187697188Y-62633624D01*
X187846488Y-62603927D01*
X187871258Y-62599000D01*
X188048742Y-62599000D01*
X188073512Y-62603927D01*
G37*
G36*
X185533512Y-62603927D02*
G01*
X185682812Y-62633624D01*
X185846784Y-62701544D01*
X185994354Y-62800147D01*
X186119853Y-62925646D01*
X186218456Y-63073216D01*
X186286376Y-63237188D01*
X186321000Y-63411259D01*
X186321000Y-63588741D01*
X186286376Y-63762812D01*
X186218456Y-63926784D01*
X186119853Y-64074354D01*
X185994354Y-64199853D01*
X185846784Y-64298456D01*
X185682812Y-64366376D01*
X185533512Y-64396073D01*
X185508742Y-64401000D01*
X185331258Y-64401000D01*
X185306488Y-64396073D01*
X185157188Y-64366376D01*
X184993216Y-64298456D01*
X184845646Y-64199853D01*
X184720147Y-64074354D01*
X184621544Y-63926784D01*
X184553624Y-63762812D01*
X184519000Y-63588741D01*
X184519000Y-63411259D01*
X184553624Y-63237188D01*
X184621544Y-63073216D01*
X184720147Y-62925646D01*
X184845646Y-62800147D01*
X184993216Y-62701544D01*
X185157188Y-62633624D01*
X185306488Y-62603927D01*
X185331258Y-62599000D01*
X185508742Y-62599000D01*
X185533512Y-62603927D01*
G37*
G36*
X161665256Y-60621298D02*
G01*
X161771579Y-60642447D01*
X162072042Y-60766903D01*
X162342451Y-60947585D01*
X162572415Y-61177549D01*
X162753097Y-61447958D01*
X162877553Y-61748421D01*
X162941000Y-62067391D01*
X162941000Y-62392609D01*
X162877553Y-62711579D01*
X162753097Y-63012042D01*
X162572415Y-63282451D01*
X162342451Y-63512415D01*
X162072042Y-63693097D01*
X161771579Y-63817553D01*
X161665256Y-63838702D01*
X161452611Y-63881000D01*
X161127389Y-63881000D01*
X160914744Y-63838702D01*
X160808421Y-63817553D01*
X160507958Y-63693097D01*
X160237549Y-63512415D01*
X160007585Y-63282451D01*
X159826903Y-63012042D01*
X159702447Y-62711579D01*
X159639000Y-62392609D01*
X159639000Y-62067391D01*
X159702447Y-61748421D01*
X159826903Y-61447958D01*
X160007585Y-61177549D01*
X160237549Y-60947585D01*
X160507958Y-60766903D01*
X160808421Y-60642447D01*
X160914744Y-60621298D01*
X161127389Y-60579000D01*
X161452611Y-60579000D01*
X161665256Y-60621298D01*
G37*
G36*
X207385256Y-60621298D02*
G01*
X207491579Y-60642447D01*
X207792042Y-60766903D01*
X208062451Y-60947585D01*
X208292415Y-61177549D01*
X208473097Y-61447958D01*
X208597553Y-61748421D01*
X208661000Y-62067391D01*
X208661000Y-62392609D01*
X208597553Y-62711579D01*
X208473097Y-63012042D01*
X208292415Y-63282451D01*
X208062451Y-63512415D01*
X207792042Y-63693097D01*
X207491579Y-63817553D01*
X207385256Y-63838702D01*
X207172611Y-63881000D01*
X206847389Y-63881000D01*
X206634744Y-63838702D01*
X206528421Y-63817553D01*
X206227958Y-63693097D01*
X205957549Y-63512415D01*
X205727585Y-63282451D01*
X205546903Y-63012042D01*
X205422447Y-62711579D01*
X205359000Y-62392609D01*
X205359000Y-62067391D01*
X205422447Y-61748421D01*
X205546903Y-61447958D01*
X205727585Y-61177549D01*
X205957549Y-60947585D01*
X206227958Y-60766903D01*
X206528421Y-60642447D01*
X206634744Y-60621298D01*
X206847389Y-60579000D01*
X207172611Y-60579000D01*
X207385256Y-60621298D01*
G37*
G36*
X165213512Y-60063927D02*
G01*
X165362812Y-60093624D01*
X165526784Y-60161544D01*
X165674354Y-60260147D01*
X165799853Y-60385646D01*
X165898456Y-60533216D01*
X165966376Y-60697188D01*
X166001000Y-60871259D01*
X166001000Y-61048741D01*
X165966376Y-61222812D01*
X165898456Y-61386784D01*
X165799853Y-61534354D01*
X165674354Y-61659853D01*
X165526784Y-61758456D01*
X165362812Y-61826376D01*
X165213512Y-61856073D01*
X165188742Y-61861000D01*
X165011258Y-61861000D01*
X164986488Y-61856073D01*
X164837188Y-61826376D01*
X164673216Y-61758456D01*
X164525646Y-61659853D01*
X164400147Y-61534354D01*
X164301544Y-61386784D01*
X164233624Y-61222812D01*
X164199000Y-61048741D01*
X164199000Y-60871259D01*
X164233624Y-60697188D01*
X164301544Y-60533216D01*
X164400147Y-60385646D01*
X164525646Y-60260147D01*
X164673216Y-60161544D01*
X164837188Y-60093624D01*
X164986488Y-60063927D01*
X165011258Y-60059000D01*
X165188742Y-60059000D01*
X165213512Y-60063927D01*
G37*
G36*
X167753512Y-60063927D02*
G01*
X167902812Y-60093624D01*
X168066784Y-60161544D01*
X168214354Y-60260147D01*
X168339853Y-60385646D01*
X168438456Y-60533216D01*
X168506376Y-60697188D01*
X168541000Y-60871259D01*
X168541000Y-61048741D01*
X168506376Y-61222812D01*
X168438456Y-61386784D01*
X168339853Y-61534354D01*
X168214354Y-61659853D01*
X168066784Y-61758456D01*
X167902812Y-61826376D01*
X167753512Y-61856073D01*
X167728742Y-61861000D01*
X167551258Y-61861000D01*
X167526488Y-61856073D01*
X167377188Y-61826376D01*
X167213216Y-61758456D01*
X167065646Y-61659853D01*
X166940147Y-61534354D01*
X166841544Y-61386784D01*
X166773624Y-61222812D01*
X166739000Y-61048741D01*
X166739000Y-60871259D01*
X166773624Y-60697188D01*
X166841544Y-60533216D01*
X166940147Y-60385646D01*
X167065646Y-60260147D01*
X167213216Y-60161544D01*
X167377188Y-60093624D01*
X167526488Y-60063927D01*
X167551258Y-60059000D01*
X167728742Y-60059000D01*
X167753512Y-60063927D01*
G37*
G36*
X203313512Y-60063927D02*
G01*
X203462812Y-60093624D01*
X203626784Y-60161544D01*
X203774354Y-60260147D01*
X203899853Y-60385646D01*
X203998456Y-60533216D01*
X204066376Y-60697188D01*
X204101000Y-60871259D01*
X204101000Y-61048741D01*
X204066376Y-61222812D01*
X203998456Y-61386784D01*
X203899853Y-61534354D01*
X203774354Y-61659853D01*
X203626784Y-61758456D01*
X203462812Y-61826376D01*
X203313512Y-61856073D01*
X203288742Y-61861000D01*
X203111258Y-61861000D01*
X203086488Y-61856073D01*
X202937188Y-61826376D01*
X202773216Y-61758456D01*
X202625646Y-61659853D01*
X202500147Y-61534354D01*
X202401544Y-61386784D01*
X202333624Y-61222812D01*
X202299000Y-61048741D01*
X202299000Y-60871259D01*
X202333624Y-60697188D01*
X202401544Y-60533216D01*
X202500147Y-60385646D01*
X202625646Y-60260147D01*
X202773216Y-60161544D01*
X202937188Y-60093624D01*
X203086488Y-60063927D01*
X203111258Y-60059000D01*
X203288742Y-60059000D01*
X203313512Y-60063927D01*
G37*
G36*
X170293512Y-60063927D02*
G01*
X170442812Y-60093624D01*
X170606784Y-60161544D01*
X170754354Y-60260147D01*
X170879853Y-60385646D01*
X170978456Y-60533216D01*
X171046376Y-60697188D01*
X171081000Y-60871259D01*
X171081000Y-61048741D01*
X171046376Y-61222812D01*
X170978456Y-61386784D01*
X170879853Y-61534354D01*
X170754354Y-61659853D01*
X170606784Y-61758456D01*
X170442812Y-61826376D01*
X170293512Y-61856073D01*
X170268742Y-61861000D01*
X170091258Y-61861000D01*
X170066488Y-61856073D01*
X169917188Y-61826376D01*
X169753216Y-61758456D01*
X169605646Y-61659853D01*
X169480147Y-61534354D01*
X169381544Y-61386784D01*
X169313624Y-61222812D01*
X169279000Y-61048741D01*
X169279000Y-60871259D01*
X169313624Y-60697188D01*
X169381544Y-60533216D01*
X169480147Y-60385646D01*
X169605646Y-60260147D01*
X169753216Y-60161544D01*
X169917188Y-60093624D01*
X170066488Y-60063927D01*
X170091258Y-60059000D01*
X170268742Y-60059000D01*
X170293512Y-60063927D01*
G37*
G36*
X172833512Y-60063927D02*
G01*
X172982812Y-60093624D01*
X173146784Y-60161544D01*
X173294354Y-60260147D01*
X173419853Y-60385646D01*
X173518456Y-60533216D01*
X173586376Y-60697188D01*
X173621000Y-60871259D01*
X173621000Y-61048741D01*
X173586376Y-61222812D01*
X173518456Y-61386784D01*
X173419853Y-61534354D01*
X173294354Y-61659853D01*
X173146784Y-61758456D01*
X172982812Y-61826376D01*
X172833512Y-61856073D01*
X172808742Y-61861000D01*
X172631258Y-61861000D01*
X172606488Y-61856073D01*
X172457188Y-61826376D01*
X172293216Y-61758456D01*
X172145646Y-61659853D01*
X172020147Y-61534354D01*
X171921544Y-61386784D01*
X171853624Y-61222812D01*
X171819000Y-61048741D01*
X171819000Y-60871259D01*
X171853624Y-60697188D01*
X171921544Y-60533216D01*
X172020147Y-60385646D01*
X172145646Y-60260147D01*
X172293216Y-60161544D01*
X172457188Y-60093624D01*
X172606488Y-60063927D01*
X172631258Y-60059000D01*
X172808742Y-60059000D01*
X172833512Y-60063927D01*
G37*
G36*
X177913512Y-60063927D02*
G01*
X178062812Y-60093624D01*
X178226784Y-60161544D01*
X178374354Y-60260147D01*
X178499853Y-60385646D01*
X178598456Y-60533216D01*
X178666376Y-60697188D01*
X178701000Y-60871259D01*
X178701000Y-61048741D01*
X178666376Y-61222812D01*
X178598456Y-61386784D01*
X178499853Y-61534354D01*
X178374354Y-61659853D01*
X178226784Y-61758456D01*
X178062812Y-61826376D01*
X177913512Y-61856073D01*
X177888742Y-61861000D01*
X177711258Y-61861000D01*
X177686488Y-61856073D01*
X177537188Y-61826376D01*
X177373216Y-61758456D01*
X177225646Y-61659853D01*
X177100147Y-61534354D01*
X177001544Y-61386784D01*
X176933624Y-61222812D01*
X176899000Y-61048741D01*
X176899000Y-60871259D01*
X176933624Y-60697188D01*
X177001544Y-60533216D01*
X177100147Y-60385646D01*
X177225646Y-60260147D01*
X177373216Y-60161544D01*
X177537188Y-60093624D01*
X177686488Y-60063927D01*
X177711258Y-60059000D01*
X177888742Y-60059000D01*
X177913512Y-60063927D01*
G37*
G36*
X180453512Y-60063927D02*
G01*
X180602812Y-60093624D01*
X180766784Y-60161544D01*
X180914354Y-60260147D01*
X181039853Y-60385646D01*
X181138456Y-60533216D01*
X181206376Y-60697188D01*
X181241000Y-60871259D01*
X181241000Y-61048741D01*
X181206376Y-61222812D01*
X181138456Y-61386784D01*
X181039853Y-61534354D01*
X180914354Y-61659853D01*
X180766784Y-61758456D01*
X180602812Y-61826376D01*
X180453512Y-61856073D01*
X180428742Y-61861000D01*
X180251258Y-61861000D01*
X180226488Y-61856073D01*
X180077188Y-61826376D01*
X179913216Y-61758456D01*
X179765646Y-61659853D01*
X179640147Y-61534354D01*
X179541544Y-61386784D01*
X179473624Y-61222812D01*
X179439000Y-61048741D01*
X179439000Y-60871259D01*
X179473624Y-60697188D01*
X179541544Y-60533216D01*
X179640147Y-60385646D01*
X179765646Y-60260147D01*
X179913216Y-60161544D01*
X180077188Y-60093624D01*
X180226488Y-60063927D01*
X180251258Y-60059000D01*
X180428742Y-60059000D01*
X180453512Y-60063927D01*
G37*
G36*
X175373512Y-60063927D02*
G01*
X175522812Y-60093624D01*
X175686784Y-60161544D01*
X175834354Y-60260147D01*
X175959853Y-60385646D01*
X176058456Y-60533216D01*
X176126376Y-60697188D01*
X176161000Y-60871259D01*
X176161000Y-61048741D01*
X176126376Y-61222812D01*
X176058456Y-61386784D01*
X175959853Y-61534354D01*
X175834354Y-61659853D01*
X175686784Y-61758456D01*
X175522812Y-61826376D01*
X175373512Y-61856073D01*
X175348742Y-61861000D01*
X175171258Y-61861000D01*
X175146488Y-61856073D01*
X174997188Y-61826376D01*
X174833216Y-61758456D01*
X174685646Y-61659853D01*
X174560147Y-61534354D01*
X174461544Y-61386784D01*
X174393624Y-61222812D01*
X174359000Y-61048741D01*
X174359000Y-60871259D01*
X174393624Y-60697188D01*
X174461544Y-60533216D01*
X174560147Y-60385646D01*
X174685646Y-60260147D01*
X174833216Y-60161544D01*
X174997188Y-60093624D01*
X175146488Y-60063927D01*
X175171258Y-60059000D01*
X175348742Y-60059000D01*
X175373512Y-60063927D01*
G37*
G36*
X185533512Y-60063927D02*
G01*
X185682812Y-60093624D01*
X185846784Y-60161544D01*
X185994354Y-60260147D01*
X186119853Y-60385646D01*
X186218456Y-60533216D01*
X186286376Y-60697188D01*
X186321000Y-60871259D01*
X186321000Y-61048741D01*
X186286376Y-61222812D01*
X186218456Y-61386784D01*
X186119853Y-61534354D01*
X185994354Y-61659853D01*
X185846784Y-61758456D01*
X185682812Y-61826376D01*
X185533512Y-61856073D01*
X185508742Y-61861000D01*
X185331258Y-61861000D01*
X185306488Y-61856073D01*
X185157188Y-61826376D01*
X184993216Y-61758456D01*
X184845646Y-61659853D01*
X184720147Y-61534354D01*
X184621544Y-61386784D01*
X184553624Y-61222812D01*
X184519000Y-61048741D01*
X184519000Y-60871259D01*
X184553624Y-60697188D01*
X184621544Y-60533216D01*
X184720147Y-60385646D01*
X184845646Y-60260147D01*
X184993216Y-60161544D01*
X185157188Y-60093624D01*
X185306488Y-60063927D01*
X185331258Y-60059000D01*
X185508742Y-60059000D01*
X185533512Y-60063927D01*
G37*
G36*
X188073512Y-60063927D02*
G01*
X188222812Y-60093624D01*
X188386784Y-60161544D01*
X188534354Y-60260147D01*
X188659853Y-60385646D01*
X188758456Y-60533216D01*
X188826376Y-60697188D01*
X188861000Y-60871259D01*
X188861000Y-61048741D01*
X188826376Y-61222812D01*
X188758456Y-61386784D01*
X188659853Y-61534354D01*
X188534354Y-61659853D01*
X188386784Y-61758456D01*
X188222812Y-61826376D01*
X188073512Y-61856073D01*
X188048742Y-61861000D01*
X187871258Y-61861000D01*
X187846488Y-61856073D01*
X187697188Y-61826376D01*
X187533216Y-61758456D01*
X187385646Y-61659853D01*
X187260147Y-61534354D01*
X187161544Y-61386784D01*
X187093624Y-61222812D01*
X187059000Y-61048741D01*
X187059000Y-60871259D01*
X187093624Y-60697188D01*
X187161544Y-60533216D01*
X187260147Y-60385646D01*
X187385646Y-60260147D01*
X187533216Y-60161544D01*
X187697188Y-60093624D01*
X187846488Y-60063927D01*
X187871258Y-60059000D01*
X188048742Y-60059000D01*
X188073512Y-60063927D01*
G37*
G36*
X190613512Y-60063927D02*
G01*
X190762812Y-60093624D01*
X190926784Y-60161544D01*
X191074354Y-60260147D01*
X191199853Y-60385646D01*
X191298456Y-60533216D01*
X191366376Y-60697188D01*
X191401000Y-60871259D01*
X191401000Y-61048741D01*
X191366376Y-61222812D01*
X191298456Y-61386784D01*
X191199853Y-61534354D01*
X191074354Y-61659853D01*
X190926784Y-61758456D01*
X190762812Y-61826376D01*
X190613512Y-61856073D01*
X190588742Y-61861000D01*
X190411258Y-61861000D01*
X190386488Y-61856073D01*
X190237188Y-61826376D01*
X190073216Y-61758456D01*
X189925646Y-61659853D01*
X189800147Y-61534354D01*
X189701544Y-61386784D01*
X189633624Y-61222812D01*
X189599000Y-61048741D01*
X189599000Y-60871259D01*
X189633624Y-60697188D01*
X189701544Y-60533216D01*
X189800147Y-60385646D01*
X189925646Y-60260147D01*
X190073216Y-60161544D01*
X190237188Y-60093624D01*
X190386488Y-60063927D01*
X190411258Y-60059000D01*
X190588742Y-60059000D01*
X190613512Y-60063927D01*
G37*
G36*
X193153512Y-60063927D02*
G01*
X193302812Y-60093624D01*
X193466784Y-60161544D01*
X193614354Y-60260147D01*
X193739853Y-60385646D01*
X193838456Y-60533216D01*
X193906376Y-60697188D01*
X193941000Y-60871259D01*
X193941000Y-61048741D01*
X193906376Y-61222812D01*
X193838456Y-61386784D01*
X193739853Y-61534354D01*
X193614354Y-61659853D01*
X193466784Y-61758456D01*
X193302812Y-61826376D01*
X193153512Y-61856073D01*
X193128742Y-61861000D01*
X192951258Y-61861000D01*
X192926488Y-61856073D01*
X192777188Y-61826376D01*
X192613216Y-61758456D01*
X192465646Y-61659853D01*
X192340147Y-61534354D01*
X192241544Y-61386784D01*
X192173624Y-61222812D01*
X192139000Y-61048741D01*
X192139000Y-60871259D01*
X192173624Y-60697188D01*
X192241544Y-60533216D01*
X192340147Y-60385646D01*
X192465646Y-60260147D01*
X192613216Y-60161544D01*
X192777188Y-60093624D01*
X192926488Y-60063927D01*
X192951258Y-60059000D01*
X193128742Y-60059000D01*
X193153512Y-60063927D01*
G37*
G36*
X195693512Y-60063927D02*
G01*
X195842812Y-60093624D01*
X196006784Y-60161544D01*
X196154354Y-60260147D01*
X196279853Y-60385646D01*
X196378456Y-60533216D01*
X196446376Y-60697188D01*
X196481000Y-60871259D01*
X196481000Y-61048741D01*
X196446376Y-61222812D01*
X196378456Y-61386784D01*
X196279853Y-61534354D01*
X196154354Y-61659853D01*
X196006784Y-61758456D01*
X195842812Y-61826376D01*
X195693512Y-61856073D01*
X195668742Y-61861000D01*
X195491258Y-61861000D01*
X195466488Y-61856073D01*
X195317188Y-61826376D01*
X195153216Y-61758456D01*
X195005646Y-61659853D01*
X194880147Y-61534354D01*
X194781544Y-61386784D01*
X194713624Y-61222812D01*
X194679000Y-61048741D01*
X194679000Y-60871259D01*
X194713624Y-60697188D01*
X194781544Y-60533216D01*
X194880147Y-60385646D01*
X195005646Y-60260147D01*
X195153216Y-60161544D01*
X195317188Y-60093624D01*
X195466488Y-60063927D01*
X195491258Y-60059000D01*
X195668742Y-60059000D01*
X195693512Y-60063927D01*
G37*
G36*
X198233512Y-60063927D02*
G01*
X198382812Y-60093624D01*
X198546784Y-60161544D01*
X198694354Y-60260147D01*
X198819853Y-60385646D01*
X198918456Y-60533216D01*
X198986376Y-60697188D01*
X199021000Y-60871259D01*
X199021000Y-61048741D01*
X198986376Y-61222812D01*
X198918456Y-61386784D01*
X198819853Y-61534354D01*
X198694354Y-61659853D01*
X198546784Y-61758456D01*
X198382812Y-61826376D01*
X198233512Y-61856073D01*
X198208742Y-61861000D01*
X198031258Y-61861000D01*
X198006488Y-61856073D01*
X197857188Y-61826376D01*
X197693216Y-61758456D01*
X197545646Y-61659853D01*
X197420147Y-61534354D01*
X197321544Y-61386784D01*
X197253624Y-61222812D01*
X197219000Y-61048741D01*
X197219000Y-60871259D01*
X197253624Y-60697188D01*
X197321544Y-60533216D01*
X197420147Y-60385646D01*
X197545646Y-60260147D01*
X197693216Y-60161544D01*
X197857188Y-60093624D01*
X198006488Y-60063927D01*
X198031258Y-60059000D01*
X198208742Y-60059000D01*
X198233512Y-60063927D01*
G37*
G36*
X200773512Y-60063927D02*
G01*
X200922812Y-60093624D01*
X201086784Y-60161544D01*
X201234354Y-60260147D01*
X201359853Y-60385646D01*
X201458456Y-60533216D01*
X201526376Y-60697188D01*
X201561000Y-60871259D01*
X201561000Y-61048741D01*
X201526376Y-61222812D01*
X201458456Y-61386784D01*
X201359853Y-61534354D01*
X201234354Y-61659853D01*
X201086784Y-61758456D01*
X200922812Y-61826376D01*
X200773512Y-61856073D01*
X200748742Y-61861000D01*
X200571258Y-61861000D01*
X200546488Y-61856073D01*
X200397188Y-61826376D01*
X200233216Y-61758456D01*
X200085646Y-61659853D01*
X199960147Y-61534354D01*
X199861544Y-61386784D01*
X199793624Y-61222812D01*
X199759000Y-61048741D01*
X199759000Y-60871259D01*
X199793624Y-60697188D01*
X199861544Y-60533216D01*
X199960147Y-60385646D01*
X200085646Y-60260147D01*
X200233216Y-60161544D01*
X200397188Y-60093624D01*
X200546488Y-60063927D01*
X200571258Y-60059000D01*
X200748742Y-60059000D01*
X200773512Y-60063927D01*
G37*
G36*
X182993512Y-60063927D02*
G01*
X183142812Y-60093624D01*
X183306784Y-60161544D01*
X183454354Y-60260147D01*
X183579853Y-60385646D01*
X183678456Y-60533216D01*
X183746376Y-60697188D01*
X183781000Y-60871259D01*
X183781000Y-61048741D01*
X183746376Y-61222812D01*
X183678456Y-61386784D01*
X183579853Y-61534354D01*
X183454354Y-61659853D01*
X183306784Y-61758456D01*
X183142812Y-61826376D01*
X182993512Y-61856073D01*
X182968742Y-61861000D01*
X182791258Y-61861000D01*
X182766488Y-61856073D01*
X182617188Y-61826376D01*
X182453216Y-61758456D01*
X182305646Y-61659853D01*
X182180147Y-61534354D01*
X182081544Y-61386784D01*
X182013624Y-61222812D01*
X181979000Y-61048741D01*
X181979000Y-60871259D01*
X182013624Y-60697188D01*
X182081544Y-60533216D01*
X182180147Y-60385646D01*
X182305646Y-60260147D01*
X182453216Y-60161544D01*
X182617188Y-60093624D01*
X182766488Y-60063927D01*
X182791258Y-60059000D01*
X182968742Y-60059000D01*
X182993512Y-60063927D01*
G37*
M02*
