M48
; DRILL file {KiCad (5.1.5)-3} date 2020-05-28 8:00:19 AM
; FORMAT={-:-/ absolute / metric / decimal}
; #@! TF.CreationDate,2020-05-28T08:00:19-06:00
; #@! TF.GenerationSoftware,Kicad,Pcbnew,(5.1.5)-3
; #@! TF.FileFunction,Plated,1,2,PTH
FMAT,2
METRIC
T1C1.000
%
G90
G05
T1
X185.42Y-66.04
X177.8Y-76.2
X198.12Y-66.04
X185.42Y-73.66
X200.66Y-66.04
X165.1Y-78.74
X193.04Y-78.74
X167.64Y-66.04
X170.18Y-68.58
X162.56Y-73.66
X167.64Y-78.74
X172.72Y-71.12
X205.74Y-68.58
X203.2Y-78.74
X170.18Y-63.5
X200.66Y-73.66
X187.96Y-60.96
X195.58Y-81.28
X198.12Y-63.5
X190.5Y-78.74
X172.72Y-60.96
X190.5Y-71.12
X160.02Y-76.2
X187.96Y-71.12
X185.42Y-63.5
X180.34Y-81.28
X165.1Y-60.96
X182.88Y-73.66
X160.02Y-71.12
X175.26Y-81.28
X190.5Y-81.28
X175.26Y-66.04
X170.18Y-81.28
X165.1Y-81.28
X165.1Y-71.12
X172.72Y-73.66
X203.2Y-76.2
X203.2Y-81.28
X198.12Y-73.66
X180.34Y-60.96
X195.58Y-78.74
X180.34Y-68.58
X170.18Y-60.96
X190.5Y-68.58
X193.04Y-66.04
X187.96Y-73.66
X187.96Y-63.5
X172.72Y-66.04
X182.88Y-71.12
X170.18Y-76.2
X185.42Y-71.12
X160.02Y-68.58
X167.64Y-81.28
X185.42Y-78.74
X195.58Y-66.04
X170.18Y-73.66
X167.64Y-73.66
X170.18Y-71.12
X203.2Y-68.58
X198.12Y-68.58
X200.66Y-71.12
X195.58Y-71.12
X175.26Y-60.96
X195.58Y-76.2
X195.58Y-63.5
X177.8Y-78.74
X182.88Y-66.04
X187.96Y-68.58
X180.34Y-63.5
X208.28Y-73.66
X187.96Y-78.74
X180.34Y-66.04
X182.88Y-78.74
X167.64Y-63.5
X167.64Y-68.58
X180.34Y-73.66
X160.02Y-66.04
X175.26Y-78.74
X177.8Y-66.04
X165.1Y-76.2
X165.1Y-68.58
X205.74Y-73.66
X205.74Y-76.2
X200.66Y-68.58
X198.12Y-76.2
X193.04Y-71.12
X193.04Y-68.58
X193.04Y-60.96
X190.5Y-76.2
X208.28Y-76.2
X185.42Y-68.58
X175.26Y-63.5
X208.28Y-66.04
X187.96Y-81.28
X190.5Y-63.5
X167.64Y-60.96
X180.34Y-71.12
X160.02Y-73.66
X167.64Y-76.2
X182.88Y-76.2
X162.56Y-66.04
X172.72Y-78.74
X175.26Y-76.2
X175.26Y-71.12
X167.64Y-71.12
X203.2Y-71.12
X195.58Y-73.66
X200.66Y-81.28
X200.66Y-63.5
X198.12Y-71.12
X182.88Y-60.96
X193.04Y-73.66
X203.2Y-63.5
X180.34Y-78.74
X172.72Y-63.5
X208.28Y-71.12
X182.88Y-68.58
X187.96Y-66.04
X185.42Y-81.28
X177.8Y-60.96
X203.2Y-66.04
X187.96Y-76.2
X165.1Y-63.5
X162.56Y-68.58
X177.8Y-71.12
X205.74Y-66.04
X172.72Y-81.28
X175.26Y-73.66
X170.18Y-78.74
X165.1Y-73.66
X205.74Y-71.12
X195.58Y-68.58
X200.66Y-78.74
X185.42Y-60.96
X198.12Y-78.74
X198.12Y-60.96
X193.04Y-76.2
X203.2Y-60.96
X177.8Y-81.28
X177.8Y-63.5
X208.28Y-68.58
X177.8Y-68.58
X193.04Y-63.5
X170.18Y-66.04
X180.34Y-76.2
X185.42Y-76.2
X190.5Y-66.04
X182.88Y-81.28
X165.1Y-66.04
X162.56Y-71.12
X172.72Y-68.58
X172.72Y-76.2
X175.26Y-68.58
X203.2Y-73.66
X200.66Y-76.2
X200.66Y-60.96
X198.12Y-81.28
X195.58Y-60.96
X193.04Y-81.28
X190.5Y-73.66
X190.5Y-60.96
X162.56Y-76.2
X177.8Y-73.66
X182.88Y-63.5
T0
M30
